<?xml version="1.0" encoding="UTF-8" standalone="no"?>
<svg
   id="Layer_2"
   data-name="Layer 2"
   viewBox="0 0 177.5 145.51"
   version="1.1"
   sodipodi:docname="diamond.svg"
   inkscape:version="1.3.2 (091e20e, 2023-11-25, custom)"
   xmlns:inkscape="http://www.inkscape.org/namespaces/inkscape"
   xmlns:sodipodi="http://sodipodi.sourceforge.net/DTD/sodipodi-0.dtd"
   xmlns="http://www.w3.org/2000/svg"
   xmlns:svg="http://www.w3.org/2000/svg">
  <defs
     id="defs2" />
  <sodipodi:namedview
     id="namedview2"
     pagecolor="#ffffff"
     bordercolor="#000000"
     borderopacity="0.25"
     inkscape:showpageshadow="2"
     inkscape:pageopacity="0.0"
     inkscape:pagecheckerboard="0"
     inkscape:deskcolor="#d1d1d1"
     inkscape:zoom="7.5516733"
     inkscape:cx="40.189768"
     inkscape:cy="91.56911"
     inkscape:window-width="1920"
     inkscape:window-height="991"
     inkscape:window-x="-9"
     inkscape:window-y="-9"
     inkscape:window-maximized="1"
     inkscape:current-layer="g2" />
  <g
     id="Layer_2-2"
     data-name="Layer 2">
    <g
       id="g2">
      <path
         d="m167.46,60.38c-5.04-1.96-10.66.71-12.38,5.84-8.09,24.13-29.82,42.67-57.09,45.65-37.21,4.07-70.63-22.37-74.64-59.04-1.37-12.56.88-24.69,5.94-35.37,2.34-4.94-.03-10.82-5.12-12.8h0c-4.57-1.78-9.79.22-11.91,4.65-6.57,13.75-9.53,29.39-7.75,45.59,5.13,46.93,47.9,80.76,95.52,75.55,34.79-3.8,62.53-27.39,72.96-58.12,1.64-4.82-.75-10.08-5.49-11.93h-.03Z"
         style="fill: #ccc; stroke: #000; stroke-miterlimit: 10; stroke-width: 8px;"
         id="path1" />
      <path
         d="m 62.82,81.35 27.41,11.07 c 1.36,0.55 2.45,1.62 3.02,2.97 l 5.73,13.49 c 1.06,2.49 0.16,5.37 -2.12,6.82 l -40.1,25.52 c -1.09,0.69 -2.53,0.12 -2.85,-1.13 L 42.32,94.73 c -0.63,-2.48 0.52,-5.07 2.78,-6.26 L 59.80979,81.564316 C 61.24979,80.804316 62.82,81.35 62.82,81.35 Z"
         style="fill:#e6e6e6;stroke:#000000;stroke-width:8px;stroke-miterlimit:10"
         id="path2"
         sodipodi:nodetypes="ccccccccccc" />
    </g>
  </g>
</svg>
