<?xml version="1.0" encoding="UTF-8"?>
<svg id="Layer_2" data-name="Layer 2" xmlns="http://www.w3.org/2000/svg" viewBox="0 0 177.5 145.21">
  <g id="Layer_2-2" data-name="Layer 2">
    <g>
      <path d="m167.46,60.38c-5.04-1.96-10.66.71-12.38,5.84-8.09,24.13-29.82,42.67-57.09,45.65-37.21,4.07-70.63-22.37-74.64-59.04-1.37-12.56.88-24.69,5.94-35.37,2.34-4.94-.03-10.82-5.12-12.8h0c-4.57-1.78-9.79.22-11.91,4.65-6.57,13.75-9.53,29.39-7.75,45.59,5.13,46.93,47.9,80.76,95.52,75.55,34.79-3.8,62.53-27.39,72.96-58.12,1.64-4.82-.75-10.08-5.49-11.93h-.03Z" style="fill: #fbb03b; stroke: #000; stroke-miterlimit: 10; stroke-width: 8px;"/>
      <circle cx="106" cy="119.21" r="14" style="fill: #fbb03b; stroke: #000; stroke-miterlimit: 10; stroke-width: 8px;"/>
      <circle cx="39" cy="103.21" r="14" style="fill: #fbb03b; stroke: #000; stroke-miterlimit: 10; stroke-width: 8px;"/>
      <circle cx="71" cy="119.21" r="22" style="fill: #fbb03b; stroke: #000; stroke-miterlimit: 10; stroke-width: 8px;"/>
    </g>
  </g>
</svg>