<?xml version="1.0" encoding="UTF-8"?>
<svg id="Layer_2" data-name="Layer 2" xmlns="http://www.w3.org/2000/svg" viewBox="0 0 99.03 105.79">
  <g id="Layer_2-2" data-name="Layer 2">
    <g>
      <path d="m94,58.35c.62,18.33-11.51,33.85-21,39-3.97,2.15-13.36,5.68-17.83,4-.43-.16-1.98-.81-4.17-1-2.8-.25-4.92.4-5.48.55-5.11,1.36-14.92-3.2-17.52-4.55-8.43-4.4-23.76-18.31-24-38-.29-24.43,20.95-42.84,32.83-43.26,1.67-.06,7.54.08,12.17.26,5.77.23,11.6.61,13.13.78,11.56,1.29,31.08,18.85,31.87,42.22Z" style="fill: #ed1c24; stroke: #000; stroke-miterlimit: 10; stroke-width: 8px;"/>
      <path d="m76.85,31.49c-4.1.26-4.61-1.26-9.85-1.14-9.46.22-12.91,5.32-15.72,3.65-4.12-2.44-3.64-17.33,5.05-25.19,9.06-8.19,22.1-3.68,25.57-2.51,2.81.95,12.59,4.26,13.1,10.05.59,6.73-9.31,14.57-18.15,15.14Z" style="fill: #8cc63f; stroke: #000; stroke-miterlimit: 10; stroke-width: 8px;"/>
    </g>
  </g>
</svg>