<?xml version="1.0" encoding="UTF-8" standalone="no"?>
<svg
   id="Layer_2"
   data-name="Layer 2"
   viewBox="0 0 143.26 114.78"
   version="1.1"
   sodipodi:docname="banana.svg"
   inkscape:version="1.3.2 (091e20e, 2023-11-25, custom)"
   xmlns:inkscape="http://www.inkscape.org/namespaces/inkscape"
   xmlns:sodipodi="http://sodipodi.sourceforge.net/DTD/sodipodi-0.dtd"
   xmlns="http://www.w3.org/2000/svg"
   xmlns:svg="http://www.w3.org/2000/svg">
  <defs
     id="defs2" />
  <sodipodi:namedview
     id="namedview2"
     pagecolor="#ffffff"
     bordercolor="#000000"
     borderopacity="0.25"
     inkscape:showpageshadow="2"
     inkscape:pageopacity="0.0"
     inkscape:pagecheckerboard="0"
     inkscape:deskcolor="#d1d1d1"
     inkscape:zoom="3.3261205"
     inkscape:cx="77.718171"
     inkscape:cy="48.254416"
     inkscape:window-width="1920"
     inkscape:window-height="991"
     inkscape:window-x="-9"
     inkscape:window-y="-9"
     inkscape:window-maximized="1"
     inkscape:current-layer="Layer_2" />
  <g
     id="Layer_2-2"
     data-name="Layer 2">
    <g
       id="g2">
      <path
         d="m122.96,25.18c-2.72-1.02-2.61-2.15-6.02-3.58-6.17-2.59-9.86-.3-11.19-2.19-1.95-2.76,2.67-12.23,10.54-14.78,8.21-2.66,15.31,4.01,17.21,5.77,1.54,1.43,6.89,6.39,5.54,10.27-1.56,4.51-10.22,6.7-16.08,4.51Z"
         style="fill: #8cc63f; stroke: #000; stroke-miterlimit: 10; stroke-width: 8px;"
         id="path1" />
      <path
         d="m 4.09,84.91 c 1.09,-2.46 11.54,3.51 28.9,2.89 1.9,-0.07 36.5,-1.78 55.83,-26.08 16.3,-20.49 11.64,-44.27 17.73,-44.71 5.06,-0.37 13.99,16.91 12.51,34.26 -2.55,30 -34.33,60.57 -67.71,59.47 C 24.53,109.86 2.3424187,88.832744 4.0424187,85.012744 Z"
         style="fill:#fbb03b;stroke:#000000;stroke-width:8px;stroke-miterlimit:10"
         id="path2"
         sodipodi:nodetypes="cccccccc" />
    </g>
  </g>
</svg>
