<?xml version="1.0" encoding="UTF-8"?>
<svg id="Layer_2" data-name="Layer 2" xmlns="http://www.w3.org/2000/svg" viewBox="0 0 116.32 95.52">
  <g id="Layer_2-2" data-name="Layer 2">
    <g>
      <path d="m104.8,50.42l-34.06,1.08c-2.94.09-5.68-1.48-7.07-4.07h0c-1.25-2.31-1.24-5.09,0-7.39l17.37-31.97c2.94-5.42,10.72-5.41,13.65.02l16.69,30.9c2.74,5.08-.82,11.26-6.58,11.44Z" style="fill: #ff7bac; stroke: #000; stroke-miterlimit: 10; stroke-width: 8px;"/>
      <path d="m34.82,88.21l19.58-27.89c1.69-2.41,1.87-5.56.48-8.15h0c-1.25-2.31-3.57-3.83-6.19-4.05l-36.26-3.01c-6.14-.51-10.4,6-7.47,11.42l16.69,30.9c2.74,5.08,9.87,5.49,13.18.77Z" style="fill: #ff7bac; stroke: #000; stroke-miterlimit: 10; stroke-width: 8px;"/>
      <circle cx="58.49" cy="49.42" r="11.5" style="fill: #ff7bac; stroke: #000; stroke-miterlimit: 10; stroke-width: 8px;"/>
    </g>
  </g>
</svg>