<?xml version="1.0" encoding="UTF-8"?>
<svg id="Layer_2" data-name="Layer 2" xmlns="http://www.w3.org/2000/svg" viewBox="0 0 141 82.04">
  <g id="Layer_2-2" data-name="Layer 2">
    <path d="m120.97,78.04H20.03c-8.85,0-16.03-7.18-16.03-16.03V13.4c0-4.22,5.26-6.14,7.98-2.92l21.51,25.42c1.83,2.16,5.16,2.13,6.96-.05,8.26-10.06,16.51-20.12,24.77-30.19,1.9-2.32,5.49-2.18,7.21.28,7.16,10.23,14.32,20.46,21.48,30.69,1.61,2.31,4.92,2.6,6.91.61,9.49-9.49,18.97-18.97,28.46-28.46,2.85-2.85,7.73-.83,7.73,3.2v50.04c0,8.85-7.18,16.03-16.03,16.03Z" style="fill: #fbb03b; stroke: #000; stroke-miterlimit: 10; stroke-width: 8px;"/>
  </g>
</svg>