<?xml version="1.0" encoding="UTF-8"?>
<svg id="Layer_2" data-name="Layer 2" xmlns="http://www.w3.org/2000/svg" viewBox="0 0 204 163">
  <g id="Layer_2-2" data-name="Layer 2">
    <path d="m200,99c0-13.64-8.81-25.21-21.04-29.36.03-.54.04-1.09.04-1.64,0-17.12-13.88-31-31-31-6.19,0-11.95,1.82-16.79,4.95.51-2.23.79-4.56.79-6.95,0-17.12-13.88-31-31-31-9.29,0-17.61,4.09-23.29,10.56-3.05-1.01-6.31-1.56-9.71-1.56-17.12,0-31,13.88-31,31,0,1.04.05,2.07.15,3.08-.71-.05-1.43-.08-2.15-.08-17.12,0-31,13.88-31,31,0,11.33,6.08,21.23,15.15,26.64-.74,2.66-1.15,5.46-1.15,8.36,0,17.12,13.88,31,31,31,9.31,0,17.65-4.11,23.34-10.61,5.58,8.21,14.99,13.61,25.66,13.61,7.72,0,14.78-2.83,20.21-7.51,4.57,11.43,15.73,19.51,28.79,19.51,16.9,0,30.62-13.52,30.98-30.33,12.74-3.85,22.02-15.68,22.02-29.67Z" style="fill: #1a1a1a; stroke: #000; stroke-miterlimit: 10; stroke-width: 8px;"/>
  </g>
</svg>