<?xml version="1.0" encoding="UTF-8"?>
<svg id="Layer_2" data-name="Layer 2" xmlns="http://www.w3.org/2000/svg" viewBox="0 0 141.83 122.01">
  <g id="Layer_2-2" data-name="Layer 2">
    <g>
      <path d="m118.81,38c0-18.78-15.22-34-34-34s-34,15.22-34,34c0,5.79,1.45,11.23,4,16-5.26.61-13.02.93-22-1-12.88-2.78-15.84-6.77-20-5-11.34,4.81-14.37,46.53,7,62,6.06,4.39,12.65,5.62,17,6,6.28,1.18,14.07,2.12,23,2,7.64-.1,14.39-.94,20-2,2.06,0,13.05-.21,21.92-9.08,5.61-5.61,9.08-13.36,9.08-21.92h0c0-7.2-2.46-13.83-6.59-19.09,8.81-6.14,14.59-16.35,14.59-27.91Z" style="fill: #fbb03b; stroke: #000; stroke-miterlimit: 10; stroke-width: 8px;"/>
      <ellipse cx="89.65" cy="31.1" rx="6.78" ry="7.4" transform="translate(45.71 115.21) rotate(-81.55)"/>
      <path d="m136.1,49.76c-2.27,3.03-6.13,3.56-9.83,4.02-6.52.8-13.29,1.64-16.82-3.22-3.46-4.75-2.41-12.99,1.64-16.16,2.15-1.68,9.17.72,23.11,5.61.71.25,2.23.81,3.05,2.29,1.2,2.18.39,5.4-1.15,7.46Z" style="fill: #f15a24; stroke: #000; stroke-miterlimit: 10; stroke-width: 8px;"/>
    </g>
  </g>
</svg>