<?xml version="1.0" encoding="UTF-8"?>
<svg id="Layer_2" data-name="Layer 2" xmlns="http://www.w3.org/2000/svg" viewBox="0 0 224 137">
  <g id="Layer_2-2" data-name="Layer 2">
    <g>
      <path d="m83,4h59c18.77,0,34,15.23,34,34v78.08c0,8.23-6.68,14.92-14.92,14.92h-96.42c-8.65,0-15.67-7.02-15.67-15.67V38c0-18.77,15.23-34,34-34Z" style="fill: #4d4d4d; stroke: #000; stroke-miterlimit: 10; stroke-width: 8px;"/>
      <path d="m203.5,133c-40.19,0-142.84,0-183.02,0-9.11,0-16.48-7.38-16.48-16.49h0c0-9.11,7.38-16.49,16.49-16.49,40.19,0,142.82,0,183.02,0,9.11,0,16.49,7.39,16.49,16.5h0c0,9.11-7.38,16.5-16.5,16.5Z" style="fill: #333; stroke: #000; stroke-miterlimit: 10; stroke-width: 8px;"/>
    </g>
  </g>
</svg>