<?xml version="1.0" encoding="UTF-8"?>
<svg id="Layer_2" data-name="Layer 2" xmlns="http://www.w3.org/2000/svg" viewBox="0 0 154.63 91.8">
  <g id="Layer_2-2" data-name="Layer 2">
    <g>
      <path d="m57.38,11.63h0c-3.62-2.98-9.01-2.45-11.99,1.16l-25.97,31.55s-.02,0-.03,0c-8.01-.48-14.89,5.63-15.37,13.64s5.63,14.89,13.64,15.37,14.89-5.63,15.37-13.64c.09-1.57-.07-3.1-.45-4.55l25.96-31.54c2.98-3.62,2.45-9.01-1.16-11.99Z" style="fill: #333; stroke: #000; stroke-miterlimit: 10; stroke-width: 8px;"/>
      <path d="m38.97,81.78c.99-20.65,1.98-41.31,2.98-61.96.42-8.84,8.6-15.81,18.54-15.81h55.95c8.64,0,16.14,5.31,18.08,12.8l16.07,61.96c2.68,10.35-112.06,12.4-111.61,3.01Z" style="fill: #ed1c24; stroke: #000; stroke-miterlimit: 10; stroke-width: 8px;"/>
    </g>
  </g>
</svg>