<?xml version="1.0" encoding="UTF-8"?>
<svg id="Layer_2" data-name="Layer 2" xmlns="http://www.w3.org/2000/svg" viewBox="0 0 121.58 95.36">
  <g id="Layer_2-2" data-name="Layer 2">
    <g>
      <path d="m13.69,88.02C-2.4,74.86,5.06,27.47,11.08,13.02c.92-2.22,3.18-7.63,6.52-8,3.88-.43,7.07,6.15,8.48,9,17.18,34.82,26.38,37.27,24.79,50-2.31,18.5-24.35,34.5-37.18,24Z" style="fill: #ed1c24; stroke: #000; stroke-miterlimit: 10; stroke-width: 8px;"/>
      <path d="m107.89,87.02c16.08-13.16,8.63-60.55,2.61-75-.92-2.22-3.18-7.63-6.52-8-3.88-.43-7.07,6.15-8.48,9-17.18,34.82-26.38,37.27-24.79,50,2.31,18.5,24.35,34.5,37.18,24Z" style="fill: #ed1c24; stroke: #000; stroke-miterlimit: 10; stroke-width: 8px;"/>
    </g>
  </g>
</svg>