<?xml version="1.0" encoding="UTF-8" standalone="no"?>
<svg
   id="Layer_2"
   data-name="Layer 2"
   viewBox="0 0 192 192"
   version="1.1"
   sodipodi:docname="icon.svg"
   inkscape:version="1.3.2 (091e20e, 2023-11-25, custom)"
   xmlns:inkscape="http://www.inkscape.org/namespaces/inkscape"
   xmlns:sodipodi="http://sodipodi.sourceforge.net/DTD/sodipodi-0.dtd"
   xmlns="http://www.w3.org/2000/svg"
   xmlns:svg="http://www.w3.org/2000/svg">
  <defs
     id="defs7" />
  <sodipodi:namedview
     id="namedview7"
     pagecolor="#ffffff"
     bordercolor="#000000"
     borderopacity="0.25"
     inkscape:showpageshadow="2"
     inkscape:pageopacity="0.0"
     inkscape:pagecheckerboard="0"
     inkscape:deskcolor="#d1d1d1"
     inkscape:zoom="32.375"
     inkscape:cx="73.405406"
     inkscape:cy="60.586873"
     inkscape:window-width="1920"
     inkscape:window-height="991"
     inkscape:window-x="-9"
     inkscape:window-y="-9"
     inkscape:window-maximized="1"
     inkscape:current-layer="Layer_2-2" />
  <g
     id="Layer_2-2"
     data-name="Layer 2">
    <g
       id="g1">
      <rect
         x="4"
         y="4"
         width="184"
         height="184"
         rx="48.94"
         ry="48.94"
         style="fill: #f7931e;"
         id="rect1" />
      <path
         d="m139.06,8c24.78,0,44.94,20.16,44.94,44.94v86.13c0,24.78-20.16,44.94-44.94,44.94H52.94c-24.78,0-44.94-20.16-44.94-44.94V52.94c0-24.78,20.16-44.94,44.94-44.94h86.13m0-8H52.94C23.7,0,0,23.7,0,52.94v86.13c0,29.24,23.7,52.94,52.94,52.94h86.13c29.24,0,52.94-23.7,52.94-52.94V52.94c0-29.24-23.7-52.94-52.94-52.94h0Z"
         id="path1" />
    </g>
    <g
       id="g3">
      <path
         d="m68.44,61.8c-8.94-6.42-21.4-4.37-27.82,4.57-6.42,8.94-4.37,21.4,4.57,27.82,2.76,1.98,5.85,3.15,8.99,3.57-1.51,2.71-4.01,6.52-8,10.14-5.73,5.19-8.64,5.23-9.22,7.82-1.59,7.05,17.25,22.75,31.93,17.86,4.16-1.39,7-4.1,8.67-6.05,2.71-2.59,5.82-5.98,8.82-10.27,2.57-3.67,4.47-7.17,5.89-10.21.71-.98,4.36-6.29,3.17-13.55-.75-4.59-3.26-8.89-7.34-11.82h0c-3.43-2.46-7.43-3.55-11.35-3.39.09-6.3-2.8-12.54-8.31-16.49Z"
         style="fill: #fbb03b; stroke: #000; stroke-miterlimit: 10; stroke-width: 8px;"
         id="path2" />
      <ellipse
         cx="55.18"
         cy="73.34"
         rx="4.34"
         ry="3.97"
         transform="translate(-35.88 61.9) rotate(-45.88)"
         id="ellipse2" />
      <path
         d="m 79.95,57.59 c 0.67,2.12 -0.4,4.14 -1.45,6.05 -1.85,3.38 -3.76,6.89 -7.29,6.91 -3.45,0.02 -7.01,-3.3 -7.14,-6.3 -0.07,-1.6 3.48,-4.12 10.57,-9.09 0.36,-0.25 1.15,-0.79 2.14,-0.67 1.45,0.17 2.71,1.66 3.17,3.1 z"
         style="fill:#f15a24;stroke:#000000;stroke-width:8px;stroke-miterlimit:10"
         id="path3"
         sodipodi:nodetypes="cccccccc" />
    </g>
    <g
       id="g5">
      <path
         d="m 143.86,74.94 c 0,-3.866688 -0.81077,-7.543393 -2.27141,-10.869727 C 137.40189,54.53581 127.8759,47.88 116.8,47.88 101.86,47.88 89.74,60 89.74,74.94 c 0,4.6 1.15,8.94 3.18,12.73 -4.18,0.48 -10.36,0.74 -17.51,-0.8 -10.26,-2.21 -12.6,-5.39 -15.92,-3.98 -9.02,3.83 -11.44,37.04 5.57,49.35 4.82,3.49 10.06,4.47 13.53,4.78 5,0.94 11.2,1.68 18.31,1.59 6.08,-0.08 11.45,-0.75 15.92,-1.59 1.64,0 10.38,-0.16 17.45,-7.23 4.47,-4.47 7.23,-10.63 7.23,-17.45 v 0 c 0,-5.73 -1.96,-11.01 -5.24,-15.2 7.02,-4.89 11.6,-13 11.6,-22.2 z"
         style="fill:#e6e6e6;stroke:#000000;stroke-width:8px;stroke-miterlimit:10"
         id="path4"
         sodipodi:nodetypes="cssscccccccsssccc" />
      <ellipse
         cx="120.65"
         cy="69.45"
         rx="5.4"
         ry="5.89"
         transform="translate(34.23 178.58) rotate(-81.55)"
         id="ellipse4" />
      <path
         d="m 157.62,84.29 c -1.81,2.41 -4.88,2.84 -7.82,3.2 -5.19,0.64 -10.57,1.3 -13.39,-2.56 -2.75,-3.78 -1.91,-10.34 1.3,-12.86 1.71,-1.34 7.3,0.58 18.39,4.46 0.56,0.2 1.77,0.64 2.43,1.83 0.96,1.73 0.32,4.29 -0.91,5.93 z"
         style="fill:#f15a24;stroke:#000000;stroke-width:8px;stroke-miterlimit:10"
         id="path5"
         sodipodi:nodetypes="ccccccc" />
    </g>
    <g
       id="g7">
      <path
         d="m118.28,143.53c-2.89,0-5.69-1.87-7.13-4.76l-.66-1.33-.58.59c-1.1,1.11-2.54,1.73-4.05,1.73-1.69,0-3.29-.76-4.41-2.09-1.17-1.39-1.65-3.24-1.33-5.08l3.11-17.61c.51-2.87,2.91-4.96,5.72-4.96,1.11,0,2.2.33,3.14.96l14.18,9.47c2.21,1.47,3.18,4.22,2.43,6.85-.69,2.4-2.72,4.09-5.1,4.29l.39.78c2.03,4.08.81,8.69-2.79,10.48-.91.45-1.89.68-2.92.68h0Z"
         style="fill: #e6e6e6;"
         id="path6" />
      <path
         d="m108.96,114.02c.31,0,.63.09.92.29,4.73,3.16,9.45,6.31,14.18,9.47,1.57,1.05.95,3.78-.88,3.83-1.98.06-3.96.12-5.95.17l3.18,6.38c1.02,2.04.57,4.34-1,5.12-.36.18-.74.26-1.14.26-1.33,0-2.76-.97-3.55-2.55l-3.16-6.34c-1.5,1.53-3.01,3.05-4.51,4.58-.36.37-.79.53-1.2.53-1.06,0-2.04-1.07-1.79-2.47l3.11-17.61c.18-1.01.96-1.66,1.78-1.66m0-8c-4.75,0-8.82,3.48-9.66,8.26l-3.11,17.61c-.53,3,.27,6.04,2.2,8.34,1.88,2.24,4.6,3.52,7.47,3.52,1.18,0,2.32-.21,3.4-.62,2.29,2.74,5.6,4.4,9.02,4.4,1.63,0,3.26-.38,4.7-1.1,4.54-2.26,6.74-7.47,5.71-12.58,1.81-1.27,3.2-3.17,3.86-5.45,1.24-4.3-.39-8.84-4.05-11.28l-6.03-4.03-8.15-5.44c-1.6-1.07-3.45-1.63-5.36-1.63h0Z"
         id="path7" />
    </g>
  </g>
</svg>
