<?xml version="1.0" encoding="UTF-8"?>
<svg id="Layer_2" data-name="Layer 2" xmlns="http://www.w3.org/2000/svg" viewBox="0 0 371.34 326.66">
  <g id="Layer_2-2" data-name="Layer 2">
    <g>
      <ellipse cx="47.03" cy="159.55" rx="43.48" ry="41.64" transform="translate(-73.48 44.89) rotate(-30)" style="fill: #e6e6e6; stroke: #000; stroke-miterlimit: 10; stroke-width: 8px;"/>
      <g>
        <path d="m270.34,290.36c-9.37,8.24-18.74,16.48-28.12,24.73-10.67.68-21.33,1.36-32,2.03,1.59-13.98,3.18-27.95,4.77-41.93,6.53-4.19,13.05-8.37,19.58-12.56,11.92,9.24,23.84,18.49,35.77,27.73Z" style="fill: #f15a24; stroke: #000; stroke-miterlimit: 10; stroke-width: 8px;"/>
        <path d="m271.09,283.14l-33.21-23.98c-1.76-5.59-6.27-9.8-11.78-11.29l-14.51-41.75-17.95,6.24,14.48,41.68c-2.58,3.42-3.89,7.8-3.31,12.38.22,1.76.71,3.42,1.41,4.95l-2.1,42.55c-.18,3.57,2.6,6.64,6.17,6.81h0c3.57.18,6.64-2.6,6.81-6.17l1.65-33.53c1.39.24,2.83.29,4.3.17l11.52,34.22c1.14,3.39,4.85,5.23,8.23,4.09,3.39-1.14,5.23-4.85,4.09-8.23l-12.16-36.14c.38-.46.74-.94,1.07-1.43l27.67,19.98c2.9,2.09,6.98,1.43,9.08-1.46,2.09-2.9,1.43-6.98-1.46-9.08Z" style="fill: #f15a24; stroke: #000; stroke-miterlimit: 10; stroke-width: 8px;"/>
      </g>
      <g>
        <path d="m161.99,319.73c-12.43-1.07-24.87-2.14-37.3-3.22-7.86-7.24-15.73-14.47-23.59-21.71,11.2-8.52,22.39-17.03,33.59-25.55,7.54,1.82,15.07,3.64,22.61,5.46,1.57,15,3.13,30.01,4.7,45.01Z" style="fill: #f15a24; stroke: #000; stroke-miterlimit: 10; stroke-width: 8px;"/>
        <path d="m167.73,315.27l-5.64-40.57c2.82-5.13,2.74-11.31.01-16.32l20.13-39.35-16.91-8.65-20.1,39.28c-4.25.5-8.32,2.58-11.23,6.17-1.12,1.38-1.98,2.88-2.6,4.44l-32.19,27.91c-2.7,2.34-3,6.47-.65,9.17h0c2.34,2.7,6.47,3,9.17.65l25.36-21.99c.79,1.17,1.75,2.25,2.85,3.22l-16.76,31.98c-1.66,3.17-.43,7.12,2.74,8.77,3.17,1.66,7.12.43,8.77-2.74l17.7-33.77c.6-.04,1.19-.11,1.78-.22l4.7,33.81c.49,3.54,3.79,6.04,7.33,5.54,3.54-.49,6.04-3.79,5.54-7.33Z" style="fill: #f15a24; stroke: #000; stroke-miterlimit: 10; stroke-width: 8px;"/>
      </g>
      <path d="m322.9,62.02c-4.53-28.11-28.63-43.67-35.11-47.48-28.53-16.8-65.44-12.38-86.85,5.19-1.22,1-5.87,4.9-10.62,11.3-12.54,16.9-16.93,39.38-12.96,58.15.88,4.17,2.2,8.26,3.91,12.22-7.7.41-15.11.99-22.01,1.53-46.3,3.61-85.93,6.71-112.69,39.43-2.65,3.24-31.12,39.1-20.86,77.82,15.51,58.54,106.99,76.21,163.44,71.01,21.65-1.99,70.45-6.48,98.3-45.23,22.64-31.5,18.76-68.01,18.54-69.82-.8-6.59-3.33-25.67-15.89-42.39,23.22-16.47,37.02-45.6,32.81-71.73Z" style="fill: #e6e6e6; stroke: #000; stroke-miterlimit: 10; stroke-width: 8px;"/>
      <ellipse cx="257.71" cy="61.8" rx="11.32" ry="11.87" transform="translate(158.73 307.64) rotate(-81.55)"/>
      <g>
        <path d="m360.48,113.07c-6.99,5.15-16.72,4.09-26,2.97-16.37-1.98-33.38-4.04-39.79-16.34-6.27-12.03.18-28.92,11.58-33.35,6.07-2.36,22.16,6.72,54.1,24.96,1.62.92,5.1,2.97,6.42,6.59,1.94,5.3-1.56,11.67-6.31,15.16Z" style="fill: #f15a24; stroke: #000; stroke-miterlimit: 10; stroke-width: 8px;"/>
        <ellipse cx="312.31" cy="82.53" rx="3.86" ry="6.17" transform="translate(212.42 389.72) rotate(-86.79)"/>
      </g>
    </g>
  </g>
</svg>