<?xml version="1.0" encoding="UTF-8"?>
<svg id="Layer_2" data-name="Layer 2" xmlns="http://www.w3.org/2000/svg" viewBox="0 0 135.83 122.01">
  <g id="Layer_2-2" data-name="Layer 2">
    <path d="m131.25,42.3c-.82-1.49-2.35-2.05-3.05-2.29-3.59-1.26-6.71-2.35-9.42-3.25-.66-18.2-15.61-32.76-33.97-32.76s-34,15.22-34,34c0,5.79,1.45,11.23,4,16-5.26.61-13.02.93-22-1-12.88-2.78-15.84-6.77-20-5-11.34,4.81-14.37,46.53,7,62,6.06,4.39,12.65,5.62,17,6,6.28,1.18,14.07,2.12,23,2,7.64-.1,14.39-.94,20-2,2.06,0,13.05-.21,21.92-9.08,5.61-5.61,9.08-13.36,9.08-21.92h0c0-7.2-2.46-13.83-6.59-19.09,4.3-2.99,7.86-6.96,10.4-11.57,1.85-.1,3.76-.33,5.66-.56,3.69-.45,7.56-.99,9.83-4.02,1.54-2.06,2.36-5.28,1.15-7.46Z" style="fill: #fbb03b; stroke: #000; stroke-miterlimit: 10; stroke-width: 8px;"/>
  </g>
</svg>