<?xml version="1.0" encoding="UTF-8" standalone="no"?>
<svg
   id="Layer_2"
   viewBox="0 0 528 513"
   version="1.1"
   sodipodi:docname="loader.svg"
   inkscape:version="1.3.2 (091e20e, 2023-11-25, custom)"
   xmlns:inkscape="http://www.inkscape.org/namespaces/inkscape"
   xmlns:sodipodi="http://sodipodi.sourceforge.net/DTD/sodipodi-0.dtd"
   xmlns="http://www.w3.org/2000/svg"
   xmlns:svg="http://www.w3.org/2000/svg">
  <sodipodi:namedview
     id="namedview46"
     pagecolor="#ffffff"
     bordercolor="#000000"
     borderopacity="0.25"
     inkscape:showpageshadow="2"
     inkscape:pageopacity="0.0"
     inkscape:pagecheckerboard="0"
     inkscape:deskcolor="#d1d1d1"
     inkscape:zoom="6.0584796"
     inkscape:cx="169.76206"
     inkscape:cy="279.19546"
     inkscape:window-width="1920"
     inkscape:window-height="991"
     inkscape:window-x="-9"
     inkscape:window-y="-9"
     inkscape:window-maximized="1"
     inkscape:current-layer="Layer_2-2" />
  <defs
     id="defs1">
    <style
       id="style1">.cls-1,.cls-2{fill:#f15a24;}.cls-2,.cls-3,.cls-4,.cls-5,.cls-6{stroke:#000;stroke-miterlimit:10;stroke-width:8px;}.cls-3{fill:#8cc63f;}.cls-4{fill:#ed1c24;}.cls-5,.cls-7{fill:#e6e6e6;}.cls-6{fill:#fbb03b;}</style>
  </defs>
  <g
     id="Layer_2-2">
    <path
       class="cls-6"
       d="m121.3259,207.4092c-5.4226-13.1709-21.2203-19.7315-35.2851-14.6535-14.0648,5.078-21.0706,19.8717-15.648,33.0426,1.6707,4.058,4.3287,7.4856,7.615,10.1415-3.7613,1.8482-9.4824,4.1766-16.7656,5.2474-10.4525,1.5368-13.8155-.4636-16.4242,1.9015-7.1032,6.44,2.6753,36.5237,23.1475,41.5946,5.8054,1.438,11.0951.5239,14.4659-.3888,5.0447-.8681,11.1468-2.3201,17.805-4.817,5.6954-2.1359,10.5033-4.5508,14.4028-6.8114,1.5464-.5583,9.7127-3.6729,13.7965-12.2964,2.5819-5.4519,2.9428-11.8262.4707-17.8306h0c-2.0805-5.0534-5.8396-9.0337-10.4477-11.6109,4.8281-6.6926,6.205-15.4116,2.8671-23.5189Z"
       id="path1" />
    <ellipse
       cx="97.4905"
       cy="210.4589"
       rx="5.9324"
       ry="5.1049"
       transform="translate(-25.75 13.9668) rotate(-7.2412)"
       id="ellipse1" />
    <path
       class="cls-2"
       d="m137.6732,210.9785c-.8251,2.7399-3.5651,4.1576-6.1994,5.475-4.649,2.3249-9.4792,4.7405-13.5308,2.2913-3.9632-2.3957-5.5538-8.4625-3.4408-11.7746,1.1247-1.763,7.0753-1.9712,18.9305-2.3156.6001-.0174,1.9026-.0379,2.9495.7834,1.5304,1.2004,1.8516,3.679,1.291,5.5405Z"
       id="path2" />
    <path
       class="cls-6"
       d="m307.8014,111.2251c-5.2967-12.8651-20.7276-19.2734-34.4659-14.3133-13.7383,4.9601-20.5814,19.4103-15.2847,32.2755,1.6319,3.9637,4.2282,7.3118,7.4382,9.906-3.6739,1.8052-9.2623,4.0797-16.3763,5.1256-10.2098,1.5011-13.4948-.4528-16.0429,1.8573-6.9383,6.2905,2.6132,35.6757,22.6101,40.6289,5.6706,1.4046,10.8375.5117,14.1301-.3798,4.9275-.8479,10.888-2.2663,17.3916-4.7052,5.5632-2.0863,10.2595-4.4452,14.0684-6.6533,1.5105-.5454,9.4872-3.5877,13.4762-12.011,2.5219-5.3254,2.8744-11.5516.4597-17.4166h0c-2.0322-4.9361-5.704-8.8239-10.2051-11.3413,4.716-6.5372,6.061-15.0537,2.8006-22.9729Z"
       id="path3" />
    <ellipse
       cx="284.5193"
       cy="114.204"
       rx="5.7947"
       ry="4.9863"
       transform="translate(-12.1258 36.7734) rotate(-7.2412)"
       id="ellipse3" />
    <path
       class="cls-2"
       d="m323.7692,114.7115c-.806,2.6762-3.4824,4.0611-6.0555,5.3479-4.541,2.2709-9.2592,4.6304-13.2167,2.2381-3.8712-2.3401-5.4249-8.266-3.361-11.5012,1.0986-1.7221,6.911-1.9254,18.491-2.2618.5861-.017,1.8584-.037,2.881.7652,1.4948,1.1726,1.8086,3.5936,1.261,5.4118Z"
       id="path4" />
    <ellipse
       class="cls-5"
       cx="234.4331"
       cy="229.2172"
       rx="40.0408"
       ry="37.664"
       transform="translate(-57.6261 80.2178) rotate(-17.3262)"
       id="ellipse4" />
    <path
       class="cls-2"
       d="m454.9781,323.5c-7.7589,8.267-15.5177,16.534-23.2766,24.801-9.7786,1.6621-19.5571,3.3242-29.3357,4.9863-.0548-12.5996-.1096-25.1993-.1645-37.799,5.5718-4.3738,11.1436-8.7476,16.7154-13.1215,12.0204,7.0444,24.0409,14.0888,36.0614,21.1332Z"
       id="path5" />
    <path
       class="cls-2"
       d="m454.8804,316.9955l-33.2917-18.0535c-2.2328-4.8008-6.8605-8.1007-12.1131-8.8814l-17.9533-35.728-15.8989,7.3316,17.9196,35.6609c-2.0124,3.2963-2.7436,7.327-1.7079,11.3489.3974,1.5432,1.0267,2.9734,1.8412,4.2663l2.7043,38.0852c.227,3.1959,3.1269,5.6489,6.4445,5.4511h0c3.3175-.1978,5.8461-2.9745,5.6192-6.1704l-2.1307-30.0071c1.3102.0771,2.6481-.0201,3.9882-.2725l14.3703,29.3209c1.4227,2.9029,5.0459,4.1725,8.0514,2.8213,3.0055-1.3512,4.3006-4.8319,2.8778-7.7348l-15.175-30.9631c.3025-.4465.5822-.9059.8344-1.3808l27.7384,15.0421c2.9055,1.5756,6.6059.5839,8.2233-2.2036,1.6174-2.7876.5636-6.3574-2.3419-7.933Z"
       id="path6" />
    <path
       class="cls-2"
       d="m358.0956,360.3871c-11.6035.2798-23.207.5596-34.8106.8394-8.0541-5.6612-16.1082-11.3224-24.1624-16.9835,9.4148-8.691,18.8296-17.3821,28.2445-26.0731,7.1602.8724,14.3203,1.7448,21.4805,2.6171,3.0827,13.2,6.1653,26.4001,9.248,39.6001Z"
       id="path7" />
    <path
       class="cls-2"
       d="m362.9076,355.852l-9.6305-35.5583c2.0476-4.8502,1.3018-10.3359-1.7689-14.5261l14.3074-37.026-16.5683-6.0254-14.2805,36.9564c-3.874.8638-7.407,3.1233-9.7035,6.6058-.8812,1.3363-1.5161,2.7562-1.9191,4.2108l-26.6911,28.0366c-2.2397,2.3527-2.0614,6.0547.3965,8.2268h0c2.4578,2.1721,6.3013,2.0243,8.5411-.3284l21.0297-22.0898c.8542.9644,1.8585,1.8284,2.9807,2.5873l-11.9947,30.1333c-1.1876,2.9833.3821,6.3758,3.4881,7.5387,3.1059,1.1629,6.6189-.3266,7.8064-3.3099l12.6666-31.821c.5456-.0962,1.0849-.2171,1.6168-.3679l8.0241,29.627c.8405,3.1033,4.1605,4.9965,7.3778,4.2074,3.2173-.7893,5.162-3.9739,4.3215-7.0772Z"
       id="path8" />
    <path
       class="cls-5"
       d="m478.6268,115.0256c-7.2503-24.5711-31.2123-36.03-37.6085-38.7815-28.1844-12.1244-61.8038-4.5263-79.6618,13.2357-1.0139,1.0085-4.8915,4.9485-8.5776,11.1102-9.7449,16.2899-11.3448,36.7305-5.6351,53.0465,1.2696,3.6281,2.9368,7.1382,4.9404,10.4931-7.0641,1.1314-13.8477,2.3811-20.1601,3.5448-42.3764,7.8119-78.6409,14.4971-99.796,46.2827-2.093,3.1449-24.4874,37.8952-10.7865,71.3448,20.7121,50.5669,107.1445,57.2186,158.715,46.9955,19.7823-3.9216,64.3734-12.7611,85.8752-50.0147,17.4813-30.2878,9.9149-62.4026,9.5145-63.994-1.4551-5.7842-5.8797-22.5206-19.3053-36.159,19.6547-16.9607,29.2255-44.2636,22.4858-67.104Z"
       id="path9" />
    <ellipse
       cx="418.3905"
       cy="121.2931"
       rx="10.1409"
       ry="11.0426"
       transform="translate(273.6892 532.1753) rotate(-86.7662)"
       id="ellipse9" />
    <path
       class="cls-2"
       d="m518.9087,156.7361c-5.8967,5.2747-15.0012,5.3008-23.692,5.2218-15.3376-.1393-31.2733-.284-38.5353-10.5964-7.1037-10.0874-2.9907-25.7614,7.0569-30.8339,5.3483-2.7001,21.2047,3.7806,52.6994,16.852,1.5942.6616,5.0306,2.1373,6.6502,5.2311,2.3674,4.5222-.1729,10.5417-4.1791,14.1253Z"
       id="path10" />
    <ellipse
       cx="471.0805"
       cy="134.3259"
       rx="5.7388"
       ry="3.4548"
       transform="translate(-5.7706 22.1949) rotate(-2.6826)"
       id="ellipse10" />
    <path
       class="cls-4"
       d="m459.1653,51.7614c.5863,16.1114-10.7999,29.7491-19.707,34.2727-3.7273,1.8929-12.5354,4.9907-16.7335,3.5141-.399-.1403-1.857-.7091-3.9118-.8778-2.6278-.2157-4.6211.3551-5.1453.4854-4.7929,1.1915-14-2.8099-16.4385-4.0006-7.9106-3.8625-22.3014-16.0891-22.5222-33.3939-.274-21.4717,19.6641-37.6469,30.8092-38.0205,1.5682-.0526,7.0726.0699,11.4199.2327,5.4177.2029,10.8834.5376,12.318.6875,10.8468,1.1328,29.1638,16.5627,29.9112,37.1003Z"
       id="path11" />
    <path
       class="cls-3"
       d="m443.069,28.1554c-3.8518.2309-4.3242-1.1086-9.2412-1-8.882.1961-12.1121,4.6723-14.7539,3.2049-3.8624-2.1455-3.4132-15.2318,4.7384-22.1377,8.498-7.1993,20.7369-3.237,23.9951-2.2048,2.6393.8361,11.8169,3.7436,12.2964,8.8347.5573,5.9177-8.7405,12.8059-17.0348,13.303Z"
       id="path12" />
    <path
       class="cls-6"
       d="m 148.89892,288.55384 c 1.07158,-4.53892 0.89911,-9.52956 -0.49643,-13.66479 -2.84224,-8.422 -10.09855,-15.11556 -19.97009,-17.15935 -14.7185,-3.0472 -29.2881,5.6559 -32.5421,19.439 -1.0026,4.2466 -0.8103,8.4788 0.361,12.393 -4.2254,-0.4064 -10.3676,-1.4268 -17.0693,-4.3038 -9.6181,-4.1289 -11.2402,-7.5366 -14.8101,-6.9156 -9.7206,1.6908 -19.326,31.8234 -5.2573,46.6448 3.9895,4.2029 8.9375,6.1789 12.2853,7.1628 4.7165,1.8874 10.659,3.8354 17.6815,5.2004 6.0071,1.1676 11.4392,1.6433 16.0232,1.7775 1.6183,0.335 10.2622,1.9658 18.7551,-3.1074 5.3694,-3.2074 9.4321,-8.3329 10.9155,-14.6164 v 0 c 1.2485,-5.2883 0.4648,-10.5509 -1.8546,-15.0837 7.9736,-3.0788 13.97532,-9.28216 15.97832,-17.76646 z"
       id="path13"
       sodipodi:nodetypes="cscscccscscssscc" />
    <ellipse
       cx="127.5264"
       cy="278.4093"
       rx="5.1208"
       ry="5.9139"
       transform="translate(-171.3482 345.1079) rotate(-77.97)"
       id="ellipse13" />
    <path
       class="cls-2"
       d="m 160.58421,299.92765 c -2.75861,1.60881 -5.83755,1.33095 -8.85171,0.90039 -5.21455,-0.74487 -10.12,-0.79024 -12.0512,-4.92824 -1.889,-4.0478 0.3659,-9.927 4.0815,-11.5937 1.9778,-0.8872 7.0599,2.019 17.1433,7.8677 0.5104,0.296 1.6079,0.9531 1.9958,2.1794 0.5669,1.7925 -0.58098,4.5616 -2.31769,5.57445 z"
       id="path14"
       sodipodi:nodetypes="sscsscs" />
    <path
       class="cls-6"
       d="m90.9421,269.9233c-2.3997-13.9015-16.3791-23.3492-31.2241-21.102-14.8449,2.2472-24.9338,15.3382-22.5341,29.2397.7393,4.283,2.5809,8.141,5.2053,11.3667-4.0776,1.0794-10.1738,2.2501-17.5185,1.8922-10.5408-.5136-13.3841-3.1143-16.4502-1.3082-8.3486,4.9179-5.4127,36.1679,13.4571,45.0621,5.351,2.5221,10.7154,2.649,14.2063,2.4075,5.115.1246,11.3906-.1172,18.4385-1.2718,6.0288-.9876,11.2526-2.4187,15.5557-3.8741,1.6322-.2471,10.2879-1.7141,16.169-9.3451,3.7181-4.8245,5.4708-10.9772,4.3768-17.3146h0c-.9207-5.3337-3.7156-9.9432-7.6476-13.3468,6.1833-5.6028,9.4429-13.8485,7.9658-22.4056Z"
       id="path15" />
    <ellipse
       cx="67.0051"
       cy="268.3082"
       rx="5.9289"
       ry="5.0833"
       transform="translate(-1.9685 .4993) rotate(-.4207)"
       id="ellipse15" />
    <path
       class="cls-2"
       d="m106.1152,276.557c-1.4074,2.5155-4.3935,3.3716-7.2544,4.15-5.0489,1.3738-10.2946,2.8011-13.7115-.3702-3.3423-3.1021-3.5622-9.3307-.7719-12.1566,1.4852-1.5042,7.3396-.561,18.9877,1.3868.5896.0986,1.8655.3296,2.7071,1.3329,1.2301,1.4667.9992,3.948.043,5.657Z"
       id="path16" />
    <path
       class="cls-7"
       d="m62.8779,456.4326c-6.5322,0-11.4473-1.5771-14.6074-4.6885-3.1768-3.1279-4.7881-7.9219-4.7881-14.2471,0-.7754-.0156-1.7197-.0449-2.8291-.0322-1.1504-.0625-2.3945-.0928-3.7266l-.0928-3.9707c-.0322-1.3555-.0469-2.5947-.0469-3.7178,0-1.543-.0156-3.6865-.0459-6.4307-.0322-2.8184.0312-5.7656.1904-8.7588.1602-3.0332.4541-5.917.873-8.5713.4932-3.1318,1.2822-5.4854,2.4121-7.1934l.0654-.0957c2.7637-3.9258,8.5195-5.7549,18.1133-5.7549,5.0918,0,9.7227.6074,13.7656,1.8057,4.2705,1.2666,7.9404,3.3164,10.9082,6.0928,2.9824,2.7969,5.2695,6.4092,6.7998,10.7393,1.4668,4.1543,2.21,9.1621,2.21,14.8867,0,6.207-.8604,11.6582-2.5557,16.2041-1.7471,4.6758-4.2539,8.5801-7.4521,11.6064-3.1973,3.0283-7.0723,5.2686-11.5137,6.6553-4.2422,1.3232-8.9854,1.9941-14.0977,1.9941Zm6.2686-46.6182c-.1982,0-.8574.0166-1.0254.2266-.1523.1904-.5059.8057-.5059,2.4209v17.6973c0,1.1221.1133,1.8867.2383,2.3877.791-.0186,1.1748-.2832,1.4707-.5674.7734-.7432,1.4297-1.7393,1.9512-2.96.5967-1.3965,1.0293-3.0068,1.2871-4.7861.2783-1.9316.4199-3.8301.4199-5.6416,0-.6787-.0576-1.6973-.1699-3.0293-.0947-1.0889-.332-2.1768-.7061-3.2266-.2842-.7979-.7285-1.4805-1.3574-2.0879-.1104-.1064-.4512-.4336-1.6025-.4336Z"
       id="path17" />
    <path
       d="m64.8131,390.4479c4.7319,0,8.9421.548,12.6295,1.6405,3.6875,1.0942,6.7906,2.8208,9.3114,5.1797,2.5189,2.3605,4.4388,5.4102,5.7617,9.1505,1.321,3.7422,1.9816,8.2594,1.9816,13.5543,0,5.7551-.7689,10.6913-2.304,14.8051-1.537,4.1155-3.6875,7.4825-6.4535,10.1003-2.7661,2.6195-6.0842,4.5327-9.9563,5.7415-3.8721,1.2086-8.1741,1.8125-12.906,1.8125-5.4714,0-9.4032-1.1786-11.8-3.5391-2.3976-2.3597-3.5956-6.1578-3.5956-11.3959,0-.8053-.0155-1.7833-.0459-2.9353-.0321-1.1501-.0625-2.3872-.0928-3.7119-.0312-1.3231-.0615-2.6462-.0918-3.9711-.0312-1.323-.046-2.5317-.046-3.626,0-1.5536-.0156-3.712-.0459-6.4744-.0321-2.7631.0303-5.5968.1837-8.5037.1534-2.9059.4299-5.6252.8304-8.1578.3987-2.5317.9977-4.4028,1.7969-5.6115,1.9044-2.7047,6.8522-4.0579,14.8425-4.0579m2.9498,46.0997c1.7206,0,3.1647-.5609,4.3333-1.6836,1.1666-1.1218,2.1202-2.5464,2.8579-4.2729s1.2585-3.6543,1.5671-5.7843c.3069-2.1283.4612-4.1998.4612-6.2155,0-.8052-.0625-1.9279-.1847-3.3671-.124-1.4375-.4308-2.8483-.9222-4.2299-.4924-1.3816-1.276-2.5903-2.3508-3.6261-1.0758-1.0356-2.5345-1.5536-4.3783-1.5536s-3.2272.5756-4.1486,1.7266c-.9224,1.1519-1.3826,2.7924-1.3826,4.9207v17.6974c0,1.8994.26,3.4402.7836,4.6187.5209,1.1803,1.6434,1.7697,3.3641,1.7697m-2.9498-54.0997c-6.9271,0-16.6805.7725-21.3838,7.4521l-.0673.0956-.0646.0977c-1.4519,2.1958-2.4419,5.0676-3.0264,8.7795-.4406,2.7854-.7493,5.8086-.9167,8.9803-.1626,3.0817-.228,6.1158-.1943,9.0186.0305,2.7823.0454,4.8715.0454,6.3813,0,1.1757.0162,2.4592.0482,3.8149l.0918,3.9709c.0305,1.3331.0613,2.5836.0938,3.7463.0282,1.072.0427,1.9886.0427,2.712,0,7.4371,2.0133,13.1896,5.9839,17.0975,3.9325,3.8728,9.7913,5.8374,17.4117,5.8374,5.5199,0,10.6641-.7321,15.2897-2.1759,5.0289-1.5698,9.4275-4.1166,13.0735-7.5693,3.6437-3.4485,6.4863-7.86,8.447-13.1102,1.8646-4.9967,2.8096-10.9188,2.8096-17.6039,0-6.1788-.8202-11.6351-2.4379-16.2174-1.7495-4.9467-4.3851-9.0919-7.8352-12.325-3.4286-3.2084-7.6348-5.5662-12.5057-7.0116-4.4154-1.3082-9.4292-1.9711-14.9054-1.9711h0Z"
       id="path18" />
    <path
       class="cls-7"
       d="m123.8125,456.8643c-6.8984,0-12.209-1.1943-16.2354-3.6514-4-2.4385-6.9932-5.6748-8.8945-9.6182-1.7783-3.6914-2.8535-7.8779-3.1963-12.4463-.3125-4.1465-.4717-8.4004-.4717-12.6436,0-3.8008.0791-7.3936.2354-10.6777.1641-3.5059.6084-6.6719,1.3213-9.4082.8154-3.1221,2.1289-5.6631,3.9043-7.5566,1.4443-1.541,4.0908-3.3789,8.4951-3.3789,3.0234,0,5.4961.8311,7.3506,2.4717,1.5947,1.4111,2.7998,3.1787,3.582,5.2529.6846,1.8174,1.1084,3.7754,1.2607,5.8213.1299,1.7773.1953,3.4434.1953,4.958,0,3.0098-.0635,6.085-.1875,9.1406-.1211,2.9043-.1816,5.8691-.1816,8.8164,0,1.2832.0576,2.6738.1719,4.1328.0967,1.25.3262,2.4238.6836,3.4932.2754.8271.6484,1.4951,1.1055,1.9834.1045.1113.5049.1162.584.1162.7432,0,1.3232-.1289,1.5537-.3447.3125-.292.7617-.9287,1.1279-2.2988.4111-1.54.6611-3.5195.7422-5.8838.0898-2.6162.1357-5.6631.1357-9.0547,0-2.9004-.0898-5.8066-.2686-8.6406-.1885-3.0156-.2842-6.0918-.2842-9.1436,0-4.3926,1.9795-6.9775,3.6406-8.3721,2.209-1.8535,4.9658-2.793,8.1953-2.793,2.7305,0,5.0801.5596,6.9834,1.6621,1.9375,1.1221,3.458,2.6973,4.5186,4.6816.9316,1.7471,1.5586,3.7998,1.8662,6.1055.2676,2.0127.4033,4.252.4033,6.6582v8.374c0,3.082-.0625,6.2285-.1865,9.3516-.1309,3.249-.46,6.4033-.9785,9.3779-.542,3.1045-1.4023,6.0684-2.5596,8.8105-1.2402,2.9346-2.9473,5.5176-5.0742,7.6816-2.1826,2.2188-4.9453,3.9707-8.21,5.208-3.1758,1.2041-6.9863,1.8145-11.3281,1.8145Z"
       id="path19" />
    <path
       d="m138.3782,391.1387c2.0283,0,3.6874.375,4.9781,1.1227,1.2906.7484,2.2892,1.7842,2.9966,3.1072.7056,1.3248,1.1823,2.9069,1.4285,4.7487.2452,1.8427.3684,3.885.3684,6.1294v8.3738c0,3.0514-.0615,6.1156-.1837,9.1936-.124,3.0797-.4309,6.0295-.9224,8.8486-.4924,2.8208-1.2604,5.4688-2.3048,7.9427-1.0454,2.475-2.4584,4.6188-4.2405,6.4314-1.7831,1.8125-4.0421,3.2372-6.776,4.2729-2.7347,1.0365-6.0382,1.5544-9.9103,1.5544-6.0842,0-10.8014-1.0211-14.1508-3.0651-3.3503-2.0424-5.8077-4.6902-7.3749-7.942-1.5673-3.2509-2.5043-6.9199-2.811-11.007-.3087-4.0854-.4612-8.2009-.4612-12.3448,0-3.7404.0762-7.2373.2306-10.4891.1525-3.251.553-6.1147,1.1979-8.5897.6458-2.4741,1.6278-4.4165,2.9507-5.8274,1.3201-1.4091,3.1803-2.1154,5.577-2.1154,2.0284,0,3.5956.4904,4.7017,1.4675,1.1061.9799,1.9355,2.2014,2.4886,3.6691.553,1.4677.8901,3.0367,1.0142,4.7057.1222,1.6697.1847,3.2234.1847,4.6617,0,2.9928-.0625,5.9856-.1847,8.9777-.124,2.9937-.1847,5.9866-.1847,8.9785,0,1.3807.0607,2.8638.1847,4.4458.1222,1.5837.4153,3.0643.8755,4.4459.4612,1.3816,1.1207,2.5334,1.9824,3.453.8599.9214,2.0283,1.3816,3.5028,1.3816,1.8438,0,3.2731-.4749,4.2872-1.4246,1.0143-.9497,1.7657-2.3442,2.2581-4.1869.4915-1.8409.7836-4.1008.8765-6.7771.0918-2.6763.1377-5.7406.1377-9.1936,0-2.9921-.0918-5.9565-.2765-8.8917-.1837-2.9352-.2765-5.8988-.2765-8.8925,0-2.3013.7377-4.0708,2.213-5.3087,1.4744-1.2371,3.3485-1.8564,5.623-1.8564m0-8c-4.1359,0-7.8584,1.2891-10.7651,3.7279-1.5336,1.2867-3.2625,3.2852-4.2537,6.2153-1.0132-2.3822-2.485-4.438-4.3824-6.1189-1.801-1.5912-4.9911-3.4794-10.0065-3.4794-5.8374,0-9.4296,2.5264-11.4152,4.6459-2.2356,2.3842-3.8691,5.5061-4.8533,9.2765-.7838,3.0085-1.2709,6.451-1.4484,10.2354-.1588,3.3431-.2394,6.9999-.2394,10.8639,0,4.3419.1628,8.6982.4839,12.9476.3802,5.0665,1.5856,9.7373,3.5822,13.8784,2.2405,4.649,5.7455,8.4508,10.417,11.2986,4.6678,2.8486,10.6598,4.2343,18.3148,4.2343,4.8268,0,9.115-.6978,12.7456-2.0737,3.8077-1.4426,7.0527-3.5096,9.6437-6.1433,2.4849-2.5275,4.4718-5.531,5.907-8.9288,1.2745-3.0189,2.2218-6.2753,2.8162-9.6799.5491-3.1498.8972-6.4808,1.035-9.9025.1262-3.1807.1902-6.3806.1902-9.5155v-8.3738c0-2.5822-.1475-4.9995-.4384-7.1848-.3719-2.7831-1.1448-5.2894-2.2975-7.4539-1.4225-2.6603-3.454-4.765-6.0444-6.2672-2.5237-1.4618-5.5477-2.202-8.9913-2.202h0Z"
       id="path20" />
    <path
       class="cls-7"
       d="m175.4365,457.9863c-5.0566,0-9.4375-1.0527-13.0215-3.1289-3.5293-2.043-6.4258-4.8252-8.6094-8.2686-2.0928-3.2979-3.6064-7.1094-4.499-11.3281-.8535-4.0195-1.2861-8.2637-1.2861-12.6113,0-4.3428.4482-8.6465,1.333-12.792.9287-4.3447,2.5244-8.293,4.7451-11.7363,2.3076-3.5811,5.4248-6.5049,9.2646-8.6895,3.8857-2.209,8.6602-3.3291,14.1934-3.3291,3.1689,0,6.2227.3965,9.0771,1.1787,2.9697.8135,5.6191,2.0518,7.875,3.6797,2.3438,1.6904,4.2373,3.8115,5.625,6.3037,1.4375,2.5781,2.166,5.5713,2.166,8.8955,0,3.665-.7402,6.7344-2.2012,9.1221-1.7549,2.8623-4.9131,4.5566-9.3896,5.041-.5215.0615-1.0752.0947-1.6104.0947-2.2246,0-4.2568-.5596-6.0391-1.6611-1.8525-1.1445-4.0635-3.4961-4.0635-8.1943,0-.5557-.1279-.9346-.4424-1.3086-.0566-.0674-.1826-.2158-.8125-.2158-.8203,0-1.2949.1553-1.4658.2998-.4111.3486-.7471.918-1.002,1.6963-.3896,1.1807-.6514,2.6729-.7793,4.4365-.1455,1.9893-.2197,4.2588-.2197,6.7471,0,2.0645.0879,4.1104.2607,6.0801.1562,1.7822.4648,3.3779.9189,4.7451.3516,1.0625.8125,1.8809,1.3701,2.4336.1084.1084.3535.3516,1.1934.3516.3369,0,.5732-.0244.7285-.0498.1689-.4023.25-.8262.25-1.3027,0-2.2246.6074-4.1377,1.8047-5.6846,1.0127-1.3086,2.2666-2.3428,3.7246-3.0723,1.291-.6455,2.6377-1.0771,4.0029-1.2842,1.1729-.1758,2.1357-.2607,2.9492-.2607,1.9043,0,3.6504.3867,5.1885,1.1504,1.5117.7549,2.7832,1.7705,3.7871,3.0244.9746,1.2197,1.6973,2.6299,2.1494,4.1963.4111,1.4277.6182,2.9473.6182,4.5205,0,3.3838-.9248,6.4844-2.748,9.2148-1.6816,2.5186-3.916,4.6885-6.6416,6.4482-2.5986,1.6758-5.5342,2.9863-8.7246,3.8955-3.1719.9043-6.4258,1.3623-9.6699,1.3623Z"
       id="path21" />
    <path
       d="m177.5565,390.1029c2.8267,0,5.4999.345,8.0206,1.0358,2.5199.6908,4.7163,1.7128,6.5913,3.0651,1.874,1.3524,3.365,3.0212,4.4711,5.0067,1.1069,1.9855,1.6599,4.3031,1.6599,6.9492,0,2.9352-.5392,5.2811-1.6132,7.0361-1.0767,1.7566-3.2124,2.8053-6.4075,3.1511-.4042.0474-.7974.071-1.1793.071-1.4779,0-2.7898-.3542-3.9366-1.0638-1.4451-.8921-2.1671-2.4888-2.1671-4.7916,0-1.496-.4611-2.7906-1.3826-3.8849-.9222-1.0925-2.212-1.6398-3.8721-1.6398-1.7216,0-3.0737.4181-4.0558,1.2517-.9839.8345-1.7216,2.0001-2.213,3.4961-.4924,1.4978-.8148,3.2957-.9673,5.3956-.1544,2.1016-.2306,4.4458-.2306,7.036,0,2.1876.0918,4.3314.2765,6.4314.1837,2.1016.553,3.9856,1.1061,5.6544.553,1.6698,1.3365,3.0084,2.3508,4.014,1.0142,1.0082,2.3507,1.5115,4.0099,1.5115,2.0283,0,3.365-.5618,4.0107-1.6836.6449-1.1226.9673-2.3441.9673-3.6689,0-1.3231.3225-2.4027.9683-3.2372.6449-.8336,1.4285-1.4813,2.3508-1.9425.9214-.4602,1.8584-.7622,2.812-.9067.9517-.1427,1.7354-.2158,2.3508-.2158,1.2906,0,2.427.2451,3.4109.7338.9821.4895,1.7977,1.1372,2.4426,1.9425.6449.8069,1.1207,1.7411,1.4286,2.8053.3068,1.0658.4611,2.2014.4611,3.41,0,2.5902-.6908,4.9207-2.0742,6.993-1.3826,2.0715-3.2117,3.8419-5.4852,5.3096-2.2745,1.4667-4.8247,2.604-7.6514,3.4092-2.8276.806-5.6855,1.2087-8.5737,1.2087-4.3645,0-8.0354-.8629-11.0164-2.5895-2.9811-1.7266-5.3925-4.0432-7.2362-6.9501-1.8438-2.905-3.1666-6.2438-3.964-10.0134-.8-3.7688-1.1989-7.6967-1.1989-11.7838s.4153-8.0718,1.2449-11.9568c.8295-3.8849,2.2267-7.3518,4.1945-10.4031,1.9659-3.0497,4.5933-5.51,7.882-7.3811,3.287-1.8694,7.3593-2.8053,12.2144-2.8053m0-8c-6.2357,0-11.6758,1.2958-16.1693,3.8513-4.4059,2.5067-7.989,5.8711-10.651,10.0005-2.4838,3.8514-4.2653,8.2483-5.2942,13.0673-.943,4.4163-1.4211,9.0012-1.4211,13.6272,0,4.629.462,9.1526,1.3733,13.4451.9901,4.6813,2.6846,8.9357,5.0352,12.639,2.5309,3.9904,5.8895,7.2162,9.9812,9.5859,4.2007,2.4331,9.2561,3.6667,15.0258,3.6667,3.6172,0,7.2396-.5098,10.7668-1.5153,3.568-1.0164,6.8635-2.4899,9.7937-4.3793,3.192-2.0605,5.8165-4.6141,7.804-7.592,2.2692-3.3993,3.42-7.2465,3.42-11.434,0-1.9485-.2601-3.8403-.7732-5.6228-.6025-2.0831-1.5663-3.9595-2.8672-5.5872-1.2952-1.6173-2.8969-2.9349-4.7689-3.9258,2.3162-1.3602,3.7802-3.0598,4.6956-4.5533,1.8539-3.0293,2.7924-6.8016,2.7924-11.2167,0-4.0154-.8992-7.6641-2.6725-10.8448-1.6733-3.0037-3.9539-5.5609-6.777-7.5983-2.6465-1.9087-5.7271-3.3528-9.1578-4.2932-3.1973-.8762-6.6072-1.3204-10.1356-1.3204h0Zm.7964,43.3812c-.0522-1.0765-.0785-2.1685-.0785-3.2668,0-.7854.0076-1.5469.0227-2.2823.9229,1.0265,1.8853,1.7462,2.6635,2.2266.2778.1719.5601.3342.8463.4866-1.2905.7643-2.4464,1.7135-3.454,2.8361h0Z"
       id="path22" />
    <path
       class="cls-7"
       d="m242.5488,456.4326c-2.2754,0-4.498-.7832-6.6055-2.3281-1.6758-1.2275-3.2666-2.749-4.7295-4.5205-1.3564-1.6396-2.6641-3.4453-3.8848-5.3623-.6602-1.0342-1.29-2.0273-1.8887-2.9766-.0215.5625-.0557,1.1299-.1035,1.6992-.0762,1.4844-.2812,2.9277-.6084,4.293-.3867,1.6035-1.0244,3.0801-1.8975,4.3906-.9717,1.4551-2.2432,2.624-3.7812,3.4805-1.583.8789-3.4766,1.3242-5.6318,1.3242-4.4727,0-7.0918-2.0742-8.501-3.8135-1.6094-1.9834-2.7949-4.3721-3.5225-7.0977-.6572-2.4551-1.043-5.0303-1.1465-7.6514-.0938-2.3623-.1416-4.3477-.1416-5.8975,0-1.5361-.0156-3.2539-.0449-5.1611-.0322-1.9453-.0469-3.9375-.0469-5.9756,0-1.9922-.0156-3.9434-.0449-5.8516-.0332-1.9482-.0469-3.7119-.0469-5.2852,0-1.7607.0811-3.7617.2402-5.9453.1797-2.458.6748-4.8223,1.4717-7.0264.8984-2.4805,2.3096-4.6123,4.1963-6.3389,2.165-1.9844,5.0596-2.9912,8.6006-2.9912,2.2871,0,4.166.3701,5.7461,1.1309,1.6875.8135,3.0273,1.9824,3.9834,3.4746.8438,1.3164,1.4111,2.8271,1.6846,4.4863.2188,1.3291.3291,2.7529.3291,4.2314v.0977c.4521-.624.9219-1.2656,1.4082-1.9199,1.3467-1.8145,2.7812-3.5332,4.2646-5.1074,1.5801-1.6758,3.2314-3.1016,4.9082-4.2373,2.1113-1.4307,4.3086-2.1562,6.5303-2.1562,1.9297,0,3.7012.4541,5.2627,1.3506,1.376.792,2.584,1.8174,3.5938,3.0508,1.0254,1.2539,1.8086,2.7119,2.3281,4.3369.4932,1.542.7432,3.1426.7432,4.7578,0,2.1504-.5605,4.293-1.667,6.3701-.9199,1.7217-2.0547,3.417-3.376,5.0439-1.2754,1.5713-2.6875,3.0859-4.1963,4.499l-3.8262,3.582c-.6768.6338-1.291,1.2129-1.8418,1.7383,1.1836.9014,2.4648,1.8965,3.7998,2.9521,1.9199,1.5195,3.7334,3.1709,5.3916,4.9082,1.7305,1.8154,3.1934,3.7002,4.3506,5.6045,1.3955,2.2979,2.1035,4.6807,2.1035,7.085,0,3.9482-1.1729,7.2373-3.4863,9.7744-2.4131,2.6426-5.749,3.9814-9.917,3.9814Z"
       id="path23" />
    <path
       d="m243.2864,391.3976c1.2283,0,2.3187.2736,3.2722.8198.9526.548,1.7822,1.2526,2.4895,2.1154.7056.8638,1.2448,1.8711,1.6132,3.0212.3684,1.152.553,2.3313.553,3.54,0,1.4968-.4005,2.9928-1.1979,4.4888-.8002,1.4978-1.7839,2.9653-2.9507,4.4028-1.1676,1.4392-2.4426,2.8062-3.8252,4.101-1.3835,1.2947-2.6595,2.4895-3.8262,3.582-1.1686,1.0944-2.1523,2.0294-2.9498,2.8063-.7992.7767-1.1987,1.3961-1.1987,1.8555,0,.462.1387.8784.4152,1.2526.2765.3743.599.7054.9674.9928,1.5359,1.1519,3.1949,2.4319,4.978,3.8411,1.7822,1.4108,3.4413,2.9222,4.9781,4.5327,1.536,1.6121,2.812,3.2518,3.8262,4.9207,1.0142,1.6698,1.5212,3.3387,1.5212,5.0067,0,2.9353-.8157,5.2958-2.4426,7.0791-1.6296,1.785-3.9502,2.6763-6.9606,2.6763-1.4147,0-2.8276-.5178-4.2405-1.5536-1.4147-1.0366-2.7513-2.3167-4.0107-3.8419-1.2604-1.5244-2.4584-3.1796-3.5947-4.9637-1.1382-1.7833-2.1826-3.4385-3.1344-4.9637-.9535-1.5243-1.7977-2.8062-2.5354-3.8419s-1.322-1.5536-1.7518-1.5536c-1.2908,0-1.9357,1.0649-1.9357,3.1941,0,1.0358.0304,2.2307.0919,3.5822.0605,1.3533.0303,2.7494-.0919,4.1869-.0615,1.2672-.2306,2.4758-.5071,3.626-.2765,1.152-.7229,2.1877-1.3365,3.1082-.6156.9214-1.4148,1.6552-2.3969,2.2014-.9838.5471-2.213.8198-3.6874.8198-2.337,0-4.1339-.7767-5.3933-2.3313-1.2605-1.5536-2.1819-3.423-2.7651-5.6106-.5852-2.1868-.9224-4.4467-1.0143-6.7771-.0928-2.3313-.1387-4.2438-.1387-5.7406,0-1.5544-.0156-3.2939-.0459-5.2235-.0312-1.927-.0459-3.8978-.0459-5.9135,0-2.0138-.0156-3.9847-.046-5.9135-.0321-1.9277-.0459-3.6689-.0459-5.2225,0-1.6689.0763-3.553.2296-5.6545.1534-2.1007.5677-4.0863,1.2448-5.9573.6761-1.8694,1.7197-3.4531,3.1345-4.7478,1.4128-1.2947,3.3796-1.9425,5.9004-1.9425,1.6591,0,2.9957.2461,4.0099.7338,1.0142.4895,1.7979,1.1656,2.3508,2.0286.553.8636.9214,1.8564,1.1061,2.9791.1846,1.1217.2765,2.3167.2765,3.582,0,1.152-.0459,2.5334-.1378,4.1439-.0928,1.6122-.1387,2.9653-.1387,4.0579,0,.345.0459.806.1387,1.3807.0919.5763.3831.8636.8755.8636.429,0,1.0288-.4886,1.7977-1.4675.7681-.9781,1.6591-2.2014,2.6733-3.6691,1.0142-1.4677,2.1505-3.0497,3.4109-4.7487,1.2594-1.6964,2.5814-3.2802,3.964-4.7478,1.3834-1.4675,2.7963-2.6899,4.2404-3.6689,1.4442-.9781,2.8727-1.4677,4.2874-1.4677m0-8c-3.0355,0-5.9873.9568-8.7736,2.8439-1.9235,1.3041-3.7983,2.92-5.5753,4.8052-.1562.1658-.3118.3329-.4669.5016-.2776-.5886-.5914-1.1564-.9408-1.702-1.3619-2.1254-3.2491-3.7797-5.6107-4.9196-2.1431-1.0305-4.5887-1.5291-7.4873-1.5291-5.696,0-9.2917,2.1993-11.3052,4.0443-2.3656,2.1648-4.1342,4.8323-5.2528,7.9249-.922,2.5481-1.4941,5.2721-1.7004,8.0956-.1665,2.2821-.2509,4.3804-.2509,6.2373,0,1.6805.0159,3.4824.047,5.3558.0298,1.8882.0449,3.8353.0449,5.7802,0,2.0881.0157,4.1213.047,6.0432.0297,1.8947.0448,3.6099.0448,5.0938,0,1.6027.0488,3.6411.145,6.0587.1149,2.9131.5455,5.783,1.2798,8.5271.8707,3.2657,2.3116,6.1559,4.2809,8.5829,2.7627,3.4103,6.8857,5.2909,11.6057,5.2909,2.8456,0,5.3944-.6151,7.5758-1.8284,2.0991-1.1676,3.8352-2.7651,5.1603-4.7485.5226-.7837.9795-1.6094,1.3687-2.4723.202.2537.4052.5042.6095.7513,1.671,2.0237,3.505,3.7736,5.4478,5.1973,2.806,2.057,5.8242,3.1006,8.9691,3.1006,6.6503,0,10.6687-2.8727,12.8688-5.2825,2.967-3.2522,4.5344-7.5646,4.5344-12.4729,0-3.1459-.9028-6.2277-2.6836-9.1595-1.3064-2.1498-2.9452-4.2642-4.8719-6.2864-1.7927-1.8787-3.7444-3.6558-5.8048-5.2869-.0457-.036-.0912-.072-.1367-.108l2.2518-2.1082c1.6433-1.5391,3.1808-3.1876,4.5717-4.9021,1.4816-1.8254,2.7585-3.7347,3.7942-5.6733,1.4224-2.6685,2.1417-5.4448,2.1417-8.2584,0-2.0299-.314-4.0408-.9332-5.9769-.6742-2.1049-1.6957-4.0031-3.0372-5.6454-1.3282-1.6204-2.9054-2.9587-4.6963-3.9889-2.1875-1.2533-4.6265-1.8853-7.2611-1.8853h0Z"
       id="path24" />
    <path
       class="cls-7"
       d="m291.96,456.4326c-6.5332,0-11.4473-1.5781-14.6064-4.6895-3.1777-3.127-4.7891-7.9199-4.7891-14.2461,0-.7754-.0156-1.7197-.0449-2.8291-.0322-1.1504-.0625-2.3945-.0928-3.7266l-.0918-3.9707c-.0322-1.3555-.0469-2.5947-.0469-3.7178,0-1.543-.0156-3.6865-.0459-6.4307-.0322-2.8125.0312-5.7598.1895-8.7578.1602-3.0342.4541-5.918.873-8.5723.4932-3.1289,1.2812-5.4824,2.4111-7.1914l.0664-.0977c2.7637-3.9258,8.5195-5.7549,18.1133-5.7549,5.0918,0,9.7236.6074,13.7666,1.8057,4.2705,1.2666,7.9395,3.3164,10.9072,6.0928,2.9814,2.7949,5.2686,6.4072,6.7998,10.7393,1.4668,4.1543,2.21,9.1621,2.21,14.8867,0,6.207-.8604,11.6582-2.5557,16.2041-1.7471,4.6758-4.2539,8.5801-7.4521,11.6064-3.1982,3.0293-7.0723,5.2686-11.5127,6.6553-4.2422,1.3232-8.9854,1.9941-14.0986,1.9941Zm6.2686-46.6182c-.1982,0-.8574.0166-1.0254.2266-.1514.1895-.5059.8057-.5059,2.4209v17.6973c0,1.123.1133,1.8867.2383,2.3877.792-.0186,1.1768-.2832,1.4736-.5684.7705-.7412,1.4268-1.7383,1.9482-2.959.5967-1.3936,1.0293-3.0039,1.2871-4.7861.2783-1.9316.4199-3.8301.4199-5.6416,0-.6787-.0576-1.6973-.1699-3.0293-.0947-1.0889-.332-2.1768-.7051-3.2285-.2842-.7949-.7285-1.4785-1.3584-2.0859-.1104-.1064-.4512-.4336-1.6025-.4336Z"
       id="path25" />
    <path
       d="m293.8954,390.4479c4.7319,0,8.9421.548,12.6295,1.6405,3.6875,1.0942,6.7906,2.8208,9.3114,5.1797,2.5189,2.3605,4.4388,5.4102,5.7617,9.1505,1.321,3.7422,1.9816,8.2594,1.9816,13.5543,0,5.7551-.7689,10.6913-2.304,14.8051-1.537,4.1155-3.6875,7.4825-6.4535,10.1003-2.7661,2.6195-6.0842,4.5327-9.9563,5.7415-3.8721,1.2086-8.1741,1.8125-12.906,1.8125-5.4714,0-9.4032-1.1786-11.8-3.5391-2.3976-2.3597-3.5956-6.1578-3.5956-11.3959,0-.8053-.0155-1.7833-.0459-2.9353-.0321-1.1501-.0625-2.3872-.0928-3.7119-.0312-1.3231-.0615-2.6462-.0918-3.9711-.0312-1.323-.046-2.5317-.046-3.626,0-1.5536-.0156-3.712-.0459-6.4744-.0321-2.7631.0303-5.5968.1837-8.5037.1534-2.9059.4299-5.6252.8304-8.1578.3987-2.5317.9977-4.4028,1.7969-5.6115,1.9044-2.7047,6.8522-4.0579,14.8425-4.0579m2.9498,46.0997c1.7206,0,3.1647-.5609,4.3333-1.6836,1.1666-1.1218,2.1202-2.5464,2.8579-4.2729s1.2584-3.6543,1.5671-5.7843c.3069-2.1283.4612-4.1998.4612-6.2155,0-.8052-.0625-1.9279-.1847-3.3671-.124-1.4375-.4308-2.8483-.9222-4.2299-.4924-1.3816-1.276-2.5903-2.3508-3.6261-1.0758-1.0356-2.5345-1.5536-4.3783-1.5536s-3.2272.5756-4.1486,1.7266c-.9224,1.1519-1.3826,2.7924-1.3826,4.9207v17.6974c0,1.8994.26,3.4402.7836,4.6187.5209,1.1803,1.6434,1.7697,3.3641,1.7697m-2.9498-54.0997c-6.9271,0-16.6805.7725-21.3838,7.4521l-.0673.0956-.0646.0977c-1.4519,2.1958-2.4419,5.0676-3.0264,8.7795-.4406,2.7854-.7493,5.8086-.9167,8.9803-.1626,3.0817-.228,6.1158-.1943,9.0186.0305,2.7823.0454,4.8715.0454,6.3813,0,1.1757.0162,2.4592.0482,3.8149l.0918,3.9709c.0305,1.3331.0613,2.5836.0938,3.7463.0282,1.072.0427,1.9886.0427,2.712,0,7.4371,2.0133,13.1896,5.9839,17.0975,3.9325,3.8728,9.7913,5.8374,17.4117,5.8374,5.5199,0,10.6641-.7321,15.2897-2.1759,5.0289-1.5698,9.4275-4.1166,13.0735-7.5693,3.6437-3.4485,6.4863-7.86,8.447-13.1102,1.8646-4.9967,2.8096-10.9188,2.8096-17.6039,0-6.1788-.8202-11.6351-2.4379-16.2174-1.7495-4.9467-4.3851-9.0919-7.8352-12.325-3.4286-3.2084-7.6348-5.5662-12.5057-7.0116-4.4154-1.3082-9.4292-1.9711-14.9054-1.9711h0Z"
       id="path26" />
    <path
       class="cls-7"
       d="m352.8945,456.8643c-6.8984,0-12.209-1.1943-16.2354-3.6514-4-2.4385-6.9932-5.6758-8.8936-9.6191-1.7783-3.6885-2.8545-7.876-3.1973-12.4453-.3125-4.1465-.4717-8.4004-.4717-12.6436,0-3.8008.0791-7.3936.2354-10.6777.1641-3.5078.6094-6.6738,1.3232-9.4102.8125-3.1162,2.125-5.6582,3.9014-7.5537,1.4453-1.542,4.0918-3.3799,8.4961-3.3799,3.0225,0,5.4951.8311,7.3506,2.4697,1.5986,1.417,2.8027,3.1836,3.583,5.2568.6836,1.8154,1.1074,3.7734,1.2598,5.8193.1299,1.7773.1953,3.4434.1953,4.958,0,3.0098-.0635,6.085-.1875,9.1406-.1211,2.9043-.1816,5.8691-.1816,8.8164,0,1.2832.0576,2.6738.1719,4.1328.0967,1.2471.3262,2.4209.6836,3.4951.2754.8252.6484,1.4932,1.1055,1.9814.1045.1113.5059.1162.585.1162.7422,0,1.3223-.1289,1.5527-.3447.3125-.292.7617-.9287,1.1279-2.2988.4111-1.543.6621-3.5225.7432-5.8838.0898-2.6162.1357-5.6631.1357-9.0547,0-2.9004-.0898-5.8066-.2686-8.6406-.1895-3.0098-.2852-6.0859-.2852-9.1436,0-4.3936,1.9805-6.9785,3.6426-8.373,2.2061-1.8525,4.9639-2.792,8.1934-2.792,2.7305,0,5.0801.5596,6.9834,1.6621,1.9365,1.1221,3.457,2.6963,4.5186,4.6797.9316,1.752,1.5586,3.8037,1.8662,6.1074.2686,2.0088.4043,4.249.4043,6.6582v8.374c0,3.0908-.0635,6.2373-.1875,9.3535-.1309,3.2471-.46,6.4014-.9785,9.376-.542,3.1045-1.4023,6.0684-2.5596,8.8105-1.2412,2.9355-2.9473,5.5195-5.0732,7.6816-2.1836,2.2188-4.9453,3.9707-8.2119,5.208-3.1729,1.2041-6.9844,1.8145-11.3271,1.8145Z"
       id="path27" />
    <path
       d="m367.4604,391.1387c2.0283,0,3.6874.375,4.9781,1.1227,1.2906.7484,2.2892,1.7842,2.9966,3.1072.7056,1.3248,1.1823,2.9069,1.4285,4.7487.2452,1.8427.3684,3.885.3684,6.1294v8.3738c0,3.0514-.0615,6.1156-.1837,9.1936-.124,3.0797-.4309,6.0295-.9224,8.8486-.4924,2.8208-1.2604,5.4688-2.3048,7.9427-1.0454,2.475-2.4584,4.6188-4.2405,6.4314-1.7831,1.8125-4.0421,3.2372-6.776,4.2729-2.7347,1.0365-6.0382,1.5544-9.9103,1.5544-6.0842,0-10.8014-1.0211-14.1508-3.0651-3.3503-2.0424-5.8077-4.6902-7.3749-7.942-1.5673-3.2509-2.5043-6.9199-2.811-11.007-.3087-4.0854-.4612-8.2009-.4612-12.3448,0-3.7404.0762-7.2373.2306-10.4891.1525-3.251.553-6.1147,1.1979-8.5897.6458-2.4741,1.6278-4.4165,2.9507-5.8274,1.3201-1.4091,3.1803-2.1154,5.577-2.1154,2.0284,0,3.5956.4904,4.7017,1.4675,1.1061.9799,1.9355,2.2014,2.4886,3.6691.553,1.4677.8901,3.0367,1.0142,4.7057.1222,1.6697.1847,3.2234.1847,4.6617,0,2.9928-.0625,5.9856-.1847,8.9777-.124,2.9937-.1847,5.9866-.1847,8.9785,0,1.3807.0607,2.8638.1847,4.4458.1222,1.5837.4153,3.0643.8755,4.4459.4612,1.3816,1.1207,2.5334,1.9824,3.453.8599.9214,2.0283,1.3816,3.5028,1.3816,1.8438,0,3.2731-.4749,4.2872-1.4246,1.0143-.9497,1.7657-2.3442,2.2581-4.1869.4915-1.8409.7836-4.1008.8765-6.7771.0918-2.6763.1377-5.7406.1377-9.1936,0-2.9921-.0918-5.9565-.2765-8.8917-.1837-2.9352-.2765-5.8988-.2765-8.8925,0-2.3013.7377-4.0708,2.213-5.3087,1.4744-1.2371,3.3485-1.8564,5.623-1.8564m0-8c-4.1359,0-7.8584,1.2891-10.7651,3.7279-1.5336,1.2867-3.2625,3.2852-4.2537,6.2153-1.0132-2.3822-2.485-4.438-4.3824-6.1189-1.801-1.5912-4.9911-3.4794-10.0065-3.4794-5.8374,0-9.4296,2.5264-11.4152,4.6459-2.2356,2.3842-3.8691,5.5061-4.8533,9.2765-.7838,3.0085-1.2709,6.451-1.4484,10.2354-.1588,3.3431-.2394,6.9999-.2394,10.8639,0,4.3419.1628,8.6982.4839,12.9476.3802,5.0665,1.5856,9.7373,3.5822,13.8784,2.2405,4.649,5.7455,8.4508,10.417,11.2986,4.6678,2.8486,10.6598,4.2343,18.3148,4.2343,4.8268,0,9.115-.6978,12.7456-2.0737,3.8077-1.4426,7.0527-3.5096,9.6437-6.1433,2.4849-2.5275,4.4718-5.531,5.907-8.9288,1.2745-3.0189,2.2218-6.2753,2.8162-9.6799.5491-3.1498.8972-6.4808,1.035-9.9025.1262-3.1807.1902-6.3806.1902-9.5155v-8.3738c0-2.5822-.1475-4.9995-.4384-7.1848-.3719-2.7831-1.1448-5.2894-2.2975-7.4539-1.4225-2.6603-3.454-4.765-6.0444-6.2672-2.5237-1.4618-5.5477-2.202-8.9913-2.202h0Z"
       id="path28" />
    <path
       class="cls-7"
       d="m404.5186,457.9863c-5.0557,0-9.4365-1.0527-13.0215-3.1279-3.5293-2.0449-6.4268-4.8271-8.6094-8.2695-2.0928-3.2979-3.6064-7.1094-4.499-11.3281-.8525-4.0166-1.2852-8.2607-1.2852-12.6113,0-4.3457.4482-8.6494,1.332-12.792.9287-4.3438,2.5244-8.292,4.7461-11.7363,2.3086-3.582,5.4258-6.5059,9.2656-8.6895,3.8828-2.209,8.6582-3.3291,14.1914-3.3291,3.1689,0,6.2227.3965,9.0771,1.1787,2.9688.8125,5.6182,2.0508,7.875,3.6787,2.3438,1.6904,4.2363,3.8115,5.625,6.3047,1.4365,2.5752,2.166,5.5693,2.166,8.8955,0,3.667-.7412,6.7373-2.2021,9.123-1.751,2.8604-4.9102,4.5557-9.3877,5.04-.5215.0615-1.0752.0947-1.6104.0947-2.2256,0-4.2578-.5596-6.04-1.6611-1.8525-1.1445-4.0635-3.4961-4.0635-8.1943,0-.5566-.1279-.9346-.4414-1.3066-.0586-.0703-.1836-.2178-.8135-.2178-1.0322,0-1.3838.2305-1.4668.3018-.4102.3467-.7461.917-1.001,1.6943-.3896,1.1836-.6514,2.6758-.7793,4.4365-.1455,1.9893-.2197,4.2588-.2197,6.7471,0,2.0645.0879,4.1104.2607,6.0801.1562,1.7812.4658,3.3779.9189,4.7471.3516,1.0605.8125,1.8789,1.3711,2.4326.1064.1064.3525.3506,1.1924.3506.3369,0,.5732-.0244.7295-.0498.1689-.4023.249-.8252.249-1.3027,0-2.2246.6074-4.1377,1.8047-5.6846,1.0137-1.3096,2.2676-2.3438,3.7275-3.0723,1.2871-.6445,2.6328-1.0771,3.999-1.2842,1.1748-.1758,2.1377-.2607,2.9502-.2607,1.9062,0,3.6523.3867,5.1904,1.1504,1.5088.7529,2.7803,1.7695,3.7852,3.0244.9746,1.2197,1.6973,2.6299,2.1494,4.1963.4111,1.4277.6182,2.9473.6182,4.5205,0,3.3838-.9248,6.4844-2.748,9.2148-1.6797,2.5186-3.915,4.6885-6.6426,6.4492-2.5977,1.6748-5.5332,2.9854-8.7236,3.8945-3.1719.9043-6.4258,1.3623-9.6699,1.3623Z"
       id="path29" />
    <path
       d="m406.6387,390.1029c2.8267,0,5.5.345,8.0208,1.0358,2.5198.6908,4.7163,1.7128,6.5913,3.0651,1.874,1.3524,3.365,3.0212,4.4709,5.0067,1.1069,1.9855,1.6602,4.3031,1.6602,6.9492,0,2.9352-.5393,5.2811-1.6133,7.0361-1.0767,1.7566-3.2124,2.8053-6.4075,3.1511-.4041.0474-.7974.071-1.1794.071-1.4778,0-2.7898-.3542-3.9365-1.0638-1.4451-.8921-2.167-2.4888-2.167-4.7916,0-1.496-.4612-2.7906-1.3826-3.8849-.9224-1.0925-2.2122-1.6398-3.8721-1.6398-1.7217,0-3.074.4181-4.0559,1.2517-.9839.8345-1.7214,2.0001-2.2129,3.4961-.4924,1.4978-.8149,3.2957-.9675,5.3956-.1543,2.1016-.2305,4.4458-.2305,7.036,0,2.1876.0918,4.3314.2764,6.4314.1838,2.1016.5532,3.9856,1.1062,5.6544.553,1.6698,1.3367,3.0084,2.3508,4.014,1.0142,1.0082,2.3508,1.5115,4.0098,1.5115,2.0283,0,3.365-.5618,4.0107-1.6836.645-1.1226.9675-2.3441.9675-3.6689,0-1.3231.3223-2.4027.9683-3.2372.6448-.8336,1.4285-1.4813,2.3508-1.9425.9214-.4602,1.8584-.7622,2.8118-.9067.9519-.1427,1.7354-.2158,2.3508-.2158,1.2908,0,2.4272.2451,3.4109.7338.9822.4895,1.7979,1.1372,2.4429,1.9425.6448.8069,1.1206,1.7411,1.4285,2.8053.3069,1.0658.4612,2.2014.4612,3.41,0,2.5902-.6909,4.9207-2.0745,6.993-1.3826,2.0715-3.2114,3.8419-5.4851,5.3096-2.2747,1.4667-4.8247,2.604-7.6514,3.4092-2.8276.806-5.6855,1.2087-8.5737,1.2087-4.3645,0-8.0354-.8629-11.0164-2.5895-2.9811-1.7266-5.3925-4.0432-7.2362-6.9501-1.8438-2.905-3.1666-6.2438-3.964-10.0134-.8-3.7688-1.1989-7.6967-1.1989-11.7838s.4153-8.0718,1.2449-11.9568c.8295-3.8849,2.2267-7.3518,4.1945-10.4031,1.9659-3.0497,4.5933-5.51,7.882-7.3811,3.287-1.8694,7.3593-2.8053,12.2142-2.8053m0-8c-6.2356,0-11.6757,1.2958-16.1692,3.8513-4.4059,2.5067-7.989,5.8711-10.651,10.0005-2.4838,3.8514-4.2653,8.2483-5.2942,13.0673-.943,4.4163-1.4211,9.0012-1.4211,13.6272,0,4.629.462,9.1526,1.3733,13.4451.9901,4.6813,2.6846,8.9357,5.0352,12.639,2.5309,3.9904,5.8895,7.2162,9.9812,9.5859,4.2007,2.4331,9.2562,3.6667,15.0258,3.6667,3.6172,0,7.2397-.5098,10.7668-1.5153,3.5676-1.0162,6.8633-2.4897,9.7935-4.3792,3.1919-2.0603,5.8164-4.6139,7.804-7.592,2.2695-3.3993,3.4204-7.2466,3.4204-11.4341,0-1.949-.2603-3.8411-.7734-5.6237-.6023-2.082-1.5659-3.9581-2.8665-5.5858-1.2961-1.618-2.8977-2.9355-4.7695-3.9263,2.3167-1.3604,3.78-3.0597,4.6956-4.5533,1.854-3.0295,2.7925-6.8018,2.7925-11.2167,0-4.015-.8992-7.6638-2.6729-10.8448-1.6729-3.0034-3.9534-5.5608-6.7766-7.5983-2.6465-1.9087-5.7271-3.3527-9.1577-4.2932-3.1975-.8762-6.6074-1.3204-10.136-1.3204h0Zm.7964,43.3812c-.052-1.0765-.0784-2.1685-.0784-3.2668,0-.7854.0076-1.5469.0227-2.2825.9229,1.0266,1.8853,1.7463,2.6633,2.2267.2778.1719.5603.3342.8464.4867-1.2905.7643-2.4465,1.7135-3.4541,2.8359h0Z"
       id="path30" />
    <path
       class="cls-7"
       d="m471.6309,456.4326c-2.2744,0-4.4961-.7832-6.6045-2.3271-1.6738-1.2266-3.2646-2.7471-4.7295-4.5205-1.3535-1.6357-2.6602-3.4404-3.8848-5.3623-.6611-1.0352-1.291-2.0273-1.8896-2.9775-.0215.5625-.0557,1.1299-.1035,1.6992-.0762,1.4844-.2812,2.9277-.6084,4.293-.3838,1.5986-1.0225,3.0771-1.8975,4.3906-.9717,1.4551-2.2432,2.624-3.7812,3.4805-1.583.8789-3.4766,1.3242-5.6318,1.3242-4.4727,0-7.0918-2.0742-8.501-3.8135-1.6104-1.9844-2.7959-4.373-3.5225-7.0986-.6572-2.4521-1.043-5.0273-1.1465-7.6504-.0938-2.3623-.1416-4.3477-.1416-5.8975,0-1.5361-.0156-3.2539-.0449-5.1611-.0322-1.9453-.0469-3.9375-.0469-5.9756,0-1.9922-.0156-3.9434-.0449-5.8516-.0332-1.9482-.0469-3.7119-.0469-5.2852,0-1.7607.0811-3.7617.2402-5.9453.1797-2.46.6748-4.8242,1.4736-7.0283.8945-2.4746,2.3057-4.6074,4.1934-6.3359,2.166-1.9854,5.0605-2.9922,8.6016-2.9922,2.2861,0,4.165.3701,5.7451,1.1299,1.6885.8154,3.0273,1.9824,3.9834,3.4736.8457,1.3213,1.4121,2.8311,1.6855,4.4883.2188,1.3291.3291,2.7529.3291,4.2314v.0986c.4541-.6279.9238-1.2686,1.4082-1.9209,1.3516-1.8203,2.7861-3.5381,4.2646-5.1074,1.5781-1.6738,3.2285-3.0986,4.9072-4.2363,2.1123-1.4316,4.3096-2.1572,6.5322-2.1572,1.9297,0,3.7002.4541,5.2617,1.3506,1.373.7891,2.5811,1.8145,3.5928,3.0488,1.0283,1.2578,1.8096,2.7158,2.3291,4.3389.4932,1.5391.7441,3.1406.7441,4.7578,0,2.1514-.5615,4.2949-1.6689,6.3711-.915,1.7139-2.0498,3.4092-3.373,5.041-1.2793,1.5752-2.6914,3.0889-4.1982,4.501l-3.8262,3.582c-.6768.6338-1.291,1.2129-1.8418,1.7383,1.1797.8984,2.4609,1.8936,3.8008,2.9512,1.9219,1.5225,3.7344,3.1729,5.3916,4.9102,1.7324,1.8184,3.1953,3.7031,4.3506,5.6055,1.3945,2.2959,2.1025,4.6787,2.1025,7.083,0,3.9502-1.1729,7.2383-3.4873,9.7754-2.4121,2.6416-5.748,3.9805-9.916,3.9805Z"
       id="path31" />
    <path
       d="m472.3687,391.3976c1.2283,0,2.3186.2736,3.2722.8198.9526.548,1.7822,1.2526,2.4895,2.1154.7056.8638,1.2449,1.8711,1.6133,3.0212.3682,1.152.553,2.3313.553,3.54,0,1.4968-.4006,2.9928-1.198,4.4888-.8,1.4978-1.7839,2.9653-2.9507,4.4028-1.1675,1.4392-2.4426,2.8062-3.8252,4.101-1.3835,1.2947-2.6594,2.4895-3.8262,3.582-1.1685,1.0944-2.1523,2.0294-2.9497,2.8063-.7993.7767-1.199,1.3961-1.199,1.8555,0,.462.1387.8784.4153,1.2526.2766.3743.5989.7054.9673.9928,1.5361,1.1519,3.1951,2.4319,4.9783,3.8411,1.782,1.4108,3.4412,2.9222,4.978,4.5327,1.5359,1.6121,2.812,3.2518,3.8262,4.9207,1.0142,1.6698,1.5212,3.3387,1.5212,5.0067,0,2.9353-.8157,5.2958-2.4426,7.0791-1.6296,1.785-3.9502,2.6763-6.9604,2.6763-1.4148,0-2.8276-.5178-4.2405-1.5536-1.4148-1.0366-2.7515-2.3167-4.011-3.8419-1.2603-1.5244-2.4583-3.1796-3.5945-4.9637-1.1382-1.7833-2.1829-3.4385-3.1345-4.9637-.9536-1.5243-1.7979-2.8062-2.5354-3.8419-.7378-1.0358-1.322-1.5536-1.752-1.5536-1.2905,0-1.9355,1.0649-1.9355,3.1941,0,1.0358.0303,2.2307.0918,3.5822.0608,1.3533.0305,2.7494-.0918,4.1869-.0615,1.2672-.2305,2.4758-.5071,3.626-.2766,1.152-.7229,2.1877-1.3367,3.1082-.6155.9214-1.4146,1.6552-2.3967,2.2014-.9839.5471-2.2129.8198-3.6875.8198-2.3369,0-4.1338-.7767-5.3933-2.3313-1.2603-1.5536-2.1816-3.423-2.7651-5.6106-.5852-2.1868-.9221-4.4467-1.0142-6.7771-.0928-2.3313-.1387-4.2438-.1387-5.7406,0-1.5544-.0156-3.2939-.0459-5.2235-.0312-1.927-.0459-3.8978-.0459-5.9135,0-2.0138-.0156-3.9847-.0459-5.9135-.0322-1.9277-.0459-3.6689-.0459-5.2225,0-1.6689.0762-3.553.2295-5.6545.1536-2.1007.5679-4.0863,1.2449-5.9573.676-1.8694,1.7197-3.4531,3.1343-4.7478,1.4128-1.2947,3.3799-1.9425,5.9006-1.9425,1.6589,0,2.9956.2461,4.0098.7338,1.0142.4895,1.7979,1.1656,2.3508,2.0286.553.8636.9214,1.8564,1.106,2.9791.1848,1.1217.2766,2.3167.2766,3.582,0,1.152-.0459,2.5334-.1379,4.1439-.0928,1.6122-.1387,2.9653-.1387,4.0579,0,.345.0459.806.1387,1.3807.092.5763.3833.8636.8755.8636.4292,0,1.0291-.4886,1.7979-1.4675.7681-.9781,1.6592-2.2014,2.6733-3.6691s2.1504-3.0497,3.4109-4.7487c1.2595-1.6964,2.5813-3.2802,3.9639-4.7478,1.3835-1.4675,2.7964-2.6899,4.2405-3.6689,1.4441-.9781,2.8726-1.4677,4.2874-1.4677m0-8c-3.0356,0-5.9875.9569-8.7737,2.8441-1.9231,1.3036-3.7979,2.9196-5.5752,4.8046-.156.1659-.3118.3331-.4668.5018-.2778-.5884-.5916-1.1562-.9409-1.7019-1.3621-2.1254-3.249-3.7797-5.6108-4.9196-2.1428-1.0305-4.5886-1.5291-7.4871-1.5291-5.6963,0-9.292,2.1993-11.3054,4.0443-2.366,2.1655-4.1345,4.8331-5.2527,7.9254-.9216,2.5472-1.4939,5.2711-1.7004,8.0945-.1665,2.2815-.2507,4.3798-.2507,6.2379,0,1.6881.0159,3.4902.0471,5.3562.0295,1.8899.0447,3.8373.0447,5.7798,0,2.0881.0159,4.1213.0469,6.0432.0298,1.8947.0449,3.6099.0449,5.0938,0,1.6027.0488,3.6411.145,6.0587.115,2.9143.5457,5.7841,1.2798,8.5271.8711,3.266,2.3118,6.1556,4.2803,8.5823,2.7637,3.411,6.8865,5.2915,11.6062,5.2915,2.8452,0,5.394-.6151,7.5754-1.8282,2.0996-1.1677,3.8359-2.7655,5.1611-4.7494.5222-.7832.979-1.6085,1.3682-2.4716.2019.2535.405.504.6094.751,1.6716,2.0244,3.5056,3.7743,5.4485,5.1978,2.8059,2.0569,5.8237,3.1005,8.9688,3.1005,6.6501,0,10.6687-2.8727,12.8687-5.2825,2.967-3.2522,4.5344-7.5646,4.5344-12.4729,0-3.1459-.9028-6.2277-2.6836-9.1595-1.3062-2.1493-2.9448-4.2637-4.8718-6.2861-1.7922-1.8782-3.7437-3.6553-5.8044-5.2867-.0457-.0361-.0916-.0724-.1372-.1084l2.2517-2.1082c1.6443-1.5397,3.1816-3.1884,4.572-4.9025,1.4817-1.8256,2.7588-3.735,3.7942-5.6735,1.4221-2.6682,2.1416-5.4445,2.1416-8.2579,0-2.0286-.3137-4.0389-.9326-5.9755-.6746-2.106-1.6963-4.0043-3.0381-5.6469-1.3281-1.6204-2.9053-2.9587-4.6963-3.9889-2.1877-1.2534-4.6265-1.8853-7.261-1.8853h0Z"
       id="path32" />
    <path
       class="cls-1"
       d="m296.9736,510.5c-3.1064,0-5.7969-.6475-7.998-1.9229-2.166-1.2529-3.9453-2.9619-5.2881-5.0781-1.2842-2.0234-2.2129-4.3633-2.7617-6.9521-.5234-2.4648-.7881-5.0664-.7881-7.7334,0-2.665.2744-5.3027.8164-7.8418.5713-2.667,1.5508-5.0898,2.9121-7.2021,1.4209-2.2012,3.335-3.9971,5.6914-5.3369,2.3848-1.3574,5.3164-2.0449,8.7139-2.0449,1.9492,0,3.8242.2432,5.5732.7236,1.8174.4971,3.4453,1.2568,4.835,2.2588,1.4434,1.042,2.6074,2.3457,3.46,3.8779.8828,1.583,1.3311,3.4238,1.3311,5.4707,0,2.2568-.4561,4.1455-1.3555,5.6133-1.0801,1.7646-3.0273,2.8115-5.7871,3.1084-.3232.0381-.6621.0586-.9912.0586-1.3711,0-2.624-.3447-3.7236-1.0254-1.1445-.7061-2.5117-2.1582-2.5117-5.0596,0-.4062-.123-.6074-.2568-.7656-.0312-.0381-.0986-.1172-.46-.1172-.4883,0-.7676.0898-.8672.1738-.2412.2051-.4424.5459-.5957,1.0137-.2363.7178-.3955,1.6279-.4746,2.7051-.0889,1.208-.1338,2.5957-.1338,4.126,0,1.2578.0537,2.5088.1592,3.7197.0957,1.0869.2842,2.0615.5605,2.8926.2129.6416.4912,1.1367.8281,1.4717.0605.0596.2002.1982.6934.1982.1836,0,.3174-.0117.4092-.0254.0928-.2314.1377-.4766.1377-.752,0-1.3701.374-2.5508,1.1133-3.5088.6318-.8135,1.4033-1.4492,2.2998-1.8975.8047-.4004,1.6328-.665,2.4678-.791.7178-.1084,1.3105-.1611,1.8125-.1611,1.1748,0,2.252.2393,3.2012.7119.9248.459,1.7109,1.0859,2.333,1.8623.6006.7529,1.0459,1.6211,1.3252,2.585.2539.8828.3818,1.8174.3818,2.7852,0,2.0801-.5693,3.9883-1.6914,5.6689-1.0303,1.5469-2.4043,2.8799-4.0801,3.9629-1.5986,1.0312-3.4014,1.8359-5.3584,2.3916-1.9453.5547-3.9414.8359-5.9326.8359Z"
       id="path33" />
    <path
       d="m298.2719,468.8873c1.7307,0,3.3677.2117,4.911.6349,1.5425.4224,2.8873,1.0487,4.0356,1.8762,1.1473.8285,2.0596,1.8496,2.7367,3.0652.6779,1.2155,1.016,2.6349,1.016,4.2548,0,1.7971-.3298,3.2338-.9875,4.3082-.6587,1.0745-1.9668,1.717-3.9226,1.9287-.2474.0291-.4883.0435-.7222.0435-.9048,0-1.7083-.2167-2.4104-.6508-.8846-.5463-1.3265-1.5244-1.3265-2.9336,0-.9161-.282-1.7092-.8461-2.3785-.5649-.6693-1.355-1.0048-2.3711-1.0048-1.0536,0-1.8813.2563-2.483.7665-.6027.5118-1.0537,1.225-1.355,2.1411-.3014.9163-.4989,2.0173-.5925,3.3035-.0946,1.286-.1406,2.7218-.1406,4.3073,0,1.3395.056,2.6522.1691,3.9375.113,1.2869.339,2.4406.677,3.4625.339,1.022.8186,1.8409,1.4396,2.4578s1.4395.9248,2.4556.9248c1.2411,0,2.0596-.3441,2.4546-1.0306.395-.6874.5925-1.4358.5925-2.2469,0-.8096.1975-1.4702.5925-1.9821.3959-.5101.8755-.9067,1.4395-1.1888.5651-.2814,1.1382-.4663,1.7216-.5549.5834-.0878,1.0629-.1324,1.4396-.1324.79,0,1.4854.1505,2.088.4498.6017.2994,1.1006.696,1.4956,1.189.395.4938.6862,1.0658.8755,1.7179.1874.6521.282,1.348.282,2.0879,0,1.5854-.4235,3.0126-1.2705,4.2806-.8461,1.2689-1.9658,2.3519-3.3577,3.251-1.3926.8981-2.9543,1.5948-4.6851,2.0878s-3.4807.7399-5.2491.7399c-2.6724,0-4.9203-.5282-6.7446-1.5854-1.8253-1.0573-3.3016-2.475-4.4307-4.2549-1.129-1.7791-1.9384-3.823-2.427-6.1311-.4896-2.3071-.734-4.7125-.734-7.215s.2544-4.9414.7625-7.3199c.5081-2.3787,1.3633-4.5009,2.5676-6.3694,1.2043-1.8668,2.8129-3.373,4.8265-4.5189,2.0118-1.1442,4.505-1.718,7.4778-1.718m0-5c-3.8348,0-7.1824.798-9.9496,2.3717-2.7113,1.543-4.9169,3.6134-6.5563,6.1547-1.5282,2.3711-2.6233,5.074-3.2559,8.0355-.5791,2.7112-.8727,5.5254-.8727,8.3644,0,2.8407.2836,5.6174.8429,8.2529.6097,2.8799,1.6517,5.4957,3.0966,7.7723,1.5582,2.4567,3.6263,4.4427,6.1461,5.9023,2.5861,1.4987,5.6987,2.2588,9.2507,2.2588,2.2227,0,4.4495-.3132,6.6188-.9312,2.1951-.6251,4.2222-1.5317,6.0253-2.6945,1.9685-1.2715,3.585-2.8452,4.8079-4.6792,1.3997-2.0953,2.1105-4.47,2.1105-7.0544,0-1.2014-.1603-2.3684-.4764-3.4686-.3761-1.2958-.9727-2.4556-1.7767-3.4607-.7644-.954-1.7007-1.7391-2.7893-2.3408,1.3417-.8259,2.2053-1.8378,2.7527-2.7308,1.1451-1.8706,1.7249-4.1984,1.7249-6.9214,0-2.4771-.5549-4.7279-1.6492-6.6902-1.0308-1.8505-2.4363-3.4269-4.1764-4.6833-1.635-1.1783-3.5321-2.0673-5.6422-2.6451-1.9653-.5388-4.0625-.8124-6.2316-.8124h0Zm.5785,26.413c-.0244-.5775-.0367-1.1625-.0367-1.7509,0-.3909.0031-.7717.009-1.1418.5181.5386,1.0447.9266,1.4788,1.1947.1213.075.2439.147.3679.2161-.6689.4142-1.2766.9094-1.819,1.4819h0Z"
       id="path34" />
    <path
       class="cls-1"
       d="m326.6055,509.6006c-1.9521,0-3.7383-.0645-5.3105-.1924-1.918-.1553-3.6064-.6797-5.0166-1.5596-1.5137-.9473-2.6777-2.3643-3.46-4.2129-.7217-1.6943-1.0732-3.8984-1.0732-6.7344v-17.9189c0-1.0479.0723-2.1875.2148-3.3867.1602-1.3525.5-2.6299,1.0098-3.7969.5742-1.3203,1.4277-2.4414,2.5332-3.3291,1.2422-.9961,2.8311-1.501,4.7246-1.501,1.627,0,2.9775.3848,4.0156,1.1426.9443.6934,1.6748,1.585,2.1729,2.6533.4404.9473.7148,1.9902.8164,3.1025.0811.8906.123,1.7588.123,2.5781,0,1.459-.0088,2.7939-.0273,4.0039-.0215,1.2148-.0488,2.4082-.0869,3.584-.0371,1.1465-.0654,2.3232-.083,3.5234-.0195,1.2061-.0273,2.5234-.0273,3.9531,0,.3438.0166.7734.0508,1.29.0186.293.0498.5801.0928.8584.71-.4326,1.6367-.9238,2.8164-1.4932.8906-.415,1.7578-.6182,2.6104-.6182,1.1562,0,2.2148.3281,3.1465.9746.7588.5264,1.4141,1.1904,1.9434,1.9746.499.7363.8838,1.5557,1.1445,2.4326.2568.8623.3867,1.7246.3867,2.5615,0,3.0127-1.2705,5.5947-3.6738,7.4688-2.2441,1.752-5.2871,2.6416-9.043,2.6416Z"
       id="path35" />
    <path
       d="m320.2274,469.4689c1.0913,0,1.9374.2202,2.54.6606.6017.4414,1.0629,1.0049,1.3826,1.6913.3197.6874.5172,1.4453.5925,2.2728.0753.8285.113,1.6122.113,2.3519,0,1.4453-.0093,2.7666-.0276,3.9641-.0203,1.1984-.0477,2.3787-.0854,3.5417-.0377,1.1622-.0662,2.3519-.0845,3.5675-.0193,1.2156-.0276,2.5464-.0276,3.9907,0,.3879.0183.8715.056,1.453.0367.5815.113,1.1364.226,1.6654.113.5282.3004.9868.5641,1.3739.2627.3879.621.5815,1.072.5815.5273,0,1.1199-.2117,1.7786-.634.6577-.4232,1.6085-.9333,2.8505-1.533.5265-.2461,1.0344-.37,1.5232-.37.6393,0,1.2135.1764,1.7216.5282.5079.3528.9407.7932,1.298,1.3214.3574.5291.6302,1.1097.8185,1.7446.1884.634.283,1.2509.283,1.8495,0,2.2556-.903,4.088-2.71,5.4971-1.806,1.41-4.3085,2.1138-7.5062,2.1138-1.8823,0-3.5846-.0612-5.1077-.1851-1.524-.1229-2.8221-.5187-3.895-1.1888-1.0721-.6693-1.9008-1.6913-2.4832-3.0659-.5842-1.3739-.8745-3.2939-.8745-5.7604v-17.9183c0-.9514.0652-1.9821.1975-3.0918.1313-1.1097.4032-2.1404.8175-3.0918s1.0161-1.7446,1.807-2.3787c.79-.6339,1.8428-.9514,3.1602-.9514m0-5c-2.4767,0-4.5927.6903-6.2893,2.0516-1.4238,1.1415-2.522,2.5826-3.2621,4.2821-.6068,1.3937-1.0101,2.9078-1.1986,4.5005-.1539,1.2905-.2322,2.5299-.2322,3.6794v17.9183c0,3.1779.4165,5.7021,1.2732,7.7169.9857,2.3265,2.4792,4.1288,4.4366,5.3507,1.7513,1.094,3.8177,1.7439,6.1409,1.9313,1.6404.1335,3.4952.2013,5.5096.2013,4.326,0,7.8867-1.0674,10.5831-3.1726,3.0302-2.3629,4.6331-5.6272,4.6331-9.4382,0-1.0776-.1649-2.179-.49-3.2734-.3315-1.1182-.8258-2.1687-1.4684-3.1198-.704-1.0408-1.5745-1.9246-2.5887-2.629-1.345-.9313-2.9246-1.4215-4.5739-1.4215-1.0269,0-2.0552.1995-3.0651.5938.0044-.7139.0115-1.3947.0217-2.042.0179-1.1901.0457-2.3507.0824-3.4847.0386-1.1886.0668-2.3948.0874-3.6194.0188-1.2286.0283-2.5754.0283-4.0486,0-.886-.0449-1.8296-.1335-2.8046-.1274-1.3995-.4768-2.7212-1.0383-3.9288-.6782-1.4559-1.6732-2.671-2.9586-3.6141-1.4818-1.0829-3.329-1.6292-5.4977-1.6292h0Z"
       id="path36" />
    <path
       class="cls-1"
       d="m347.375,509.5488c-.7383,0-1.6328-.0176-2.6826-.0547-1.2412-.043-2.4502-.252-3.5908-.6221-1.2979-.4219-2.418-1.0967-3.334-2.0059-1.125-1.1152-1.6963-2.6191-1.6963-4.4688,0-1.3447.1699-2.3457.5342-3.1484.4111-.917,1.0098-1.6211,1.7725-2.082.5986-.3662,1.2686-.6045,1.9824-.7061-.002-2.5283-.0488-5.3867-.1396-8.5-.082-2.7529-.1289-5.6221-.1396-8.5459-.6494-.0303-1.2607-.1719-1.8203-.4209-.7861-.3447-1.4414-.9346-1.9375-1.749-.4736-.7754-.7041-1.7637-.7041-3.0186,0-2.707,1.2607-4.2002,2.3193-4.9766,1.1396-.835,2.4756-1.4307,3.9727-1.7695,1.2734-.2881,2.583-.4346,3.8955-.4346l.249.002c1.1914.0186,2.1387.0264,2.8438.0264.6738,0,1.5371.0273,2.6387.083,1.209.0615,2.4014.25,3.5449.5596,1.3115.3525,2.4775.9395,3.4648,1.7412,1.3057,1.0635,1.9951,2.5654,1.9951,4.3447,0,1.8721-.9492,3.4277-2.6729,4.3809-.7275.4033-1.4932.7266-2.29.9668.0098,1.957.0371,3.8291.0801,5.585.0566,2.3145.085,4.8066.085,7.4082,0,1.0625-.0205,2.0234-.0576,2.8848-.0283.584-.0439,1.1611-.0508,1.7314.749.042,1.4561.2334,2.0977.5693.7686.3984,1.4004,1.0273,1.8691,1.8643.4443.7988.6572,1.8086.6572,3.0977,0,2.4766-1.167,3.9355-2.1465,4.7236-1.0791.8691-2.3682,1.5068-3.832,1.8955-1.3125.3477-2.6611.5439-4.0098.585-1.1982.0361-2.1631.0537-2.8975.0537Z"
       id="path37" />
    <path
       d="m345.7994,469.5465c.0739,0,.1477.0005.2217.0016,1.2034.0181,2.1635.0266,2.8781.0266.6394,0,1.4763.0266,2.5116.0791,1.0344.0533,2.0413.2117,3.0197.4757.9783.2642,1.8253.6874,2.54,1.2689s1.073,1.3833,1.073,2.4044c0,.9515-.4612,1.6836-1.3835,2.1937-.9224.511-1.9098.8551-2.9626,1.0305-.1506.0353-.2921.0714-.4235.1058-.1323.0353-.1975.1411-.1975.3175,0,2.6074.0284,5.0565.0845,7.3466.056,2.2909.0846,4.7393.0846,7.3467,0,1.022-.0193,1.9476-.056,2.7751-.0386.8276-.057,1.6475-.057,2.4569,0,.5996.113,1.0229.339,1.2689.226.2469.5081.4052.847.4757.338.0714.7137.1144,1.1281.1324s.7909.1145,1.129.2908c.339.1764.621.4672.8469.8715.2261.4061.3381,1.0306.3381,1.8762,0,1.1984-.4043,2.124-1.2136,2.7753-.8093.6521-1.7775,1.1278-2.9065,1.4271-1.129.2994-2.2765.4672-3.4431.5024s-2.1074.0525-2.822.0525-1.5801-.0172-2.5962-.0525c-1.016-.0353-1.9851-.203-2.9065-.5024-.9224-.2993-1.7032-.7665-2.3425-1.4005-.6404-.6349-.9591-1.533-.9591-2.696,0-.9514.1029-1.656.3104-2.1136.2058-.4576.4695-.7837.79-.9781.3188-.1935.668-.3174,1.0446-.3699.3748-.0525.7239-.1403,1.0436-.264.3197-.123.5834-.3252.79-.6083.2067-.2812.3105-.7571.3105-1.4271,0-2.6428-.0479-5.5574-.1406-8.7472-.0946-3.189-.1415-6.4744-.1415-9.8577,0-.4225-.1129-.7037-.339-.8457-.225-.1403-.4988-.2194-.8175-.2374-.3207-.0172-.678-.0266-1.073-.0266s-.7533-.0697-1.0721-.2117c-.3206-.1403-.5925-.3958-.8185-.7656-.226-.3707-.339-.9429-.339-1.7179,0-1.3386.4327-2.3262,1.2981-2.9602s1.8813-1.0831,3.0481-1.348c1.094-.2479,2.2062-.3715,3.3344-.3715m0-5h-.0001c-1.4961,0-2.9897.1666-4.4393.4951-1.8348.4166-3.4822,1.1536-4.8981,2.1912-2.1558,1.5795-3.343,4.0631-3.343,6.9934,0,1.7262.3499,3.1394,1.0696,4.3202.7617,1.2468,1.8271,2.1942,3.0837,2.744.1057.0471.213.0917.3218.1337.0214,2.2539.0641,4.4677.1277,6.613.0684,2.3513.1117,4.5569.1294,6.582-.2645.1219-.5225.2593-.7737.4116-1.1838.7181-2.1371,1.8254-2.7561,3.2018-.5099,1.1245-.7504,2.4523-.7504,4.1646,0,3.1646,1.3263,5.1437,2.4388,6.2467,1.197,1.1873,2.6505,2.0641,4.3195,2.6057,1.3596.4419,2.7991.6923,4.2762.7435,1.0605.0369,1.9924.0555,2.7698.0555.7712,0,1.7716-.0184,2.9731-.0548,1.5414-.0466,3.0802-.2711,4.5739-.6672,1.8041-.4783,3.4064-1.2745,4.7617-2.3666,1.983-1.5958,3.0765-3.9647,3.0765-6.6687,0-1.7272-.3171-3.1365-.9695-4.3082-.7035-1.2588-1.7075-2.2504-2.9075-2.8749-.2234-.1165-.4519-.2212-.6849-.3142.0311-.823.0468-1.7102.0468-2.6503,0-2.6204-.0289-5.1333-.0861-7.469-.0299-1.2192-.0518-2.4916-.0656-3.8058.3354-.153.6654-.3193.9891-.4987,2.5159-1.3915,3.9606-3.7858,3.9606-6.5674,0-2.5208-1.036-4.7521-2.9174-6.2828-1.2592-1.0244-2.7368-1.7706-4.3922-2.2177-1.3143-.3546-2.6819-.5706-4.0656-.642-1.139-.0577-2.0435-.0857-2.7692-.0857-.6959,0-1.631-.0084-2.803-.026l-.2968-.0022h0Z"
       id="path38" />
    <path
       class="cls-1"
       d="m374.1846,510.5c-3.1064,0-5.7969-.6475-7.998-1.9229-2.167-1.2549-3.9463-2.9629-5.2881-5.0781-1.2842-2.0244-2.2139-4.3643-2.7617-6.9531-.5225-2.4609-.7881-5.0635-.7881-7.7324,0-2.667.2754-5.3057.8184-7.8428.5684-2.6621,1.5479-5.085,2.9102-7.2002,1.4209-2.2021,3.335-3.998,5.6914-5.3379,2.3848-1.3574,5.3174-2.0449,8.7148-2.0449,1.9482,0,3.8232.2432,5.5723.7236,1.8174.4971,3.4453,1.2568,4.835,2.2588,1.4434,1.042,2.6074,2.3457,3.46,3.8779.8838,1.584,1.332,3.4248,1.332,5.4707,0,2.2559-.4561,4.1445-1.3564,5.6133-1.0801,1.7646-3.0273,2.8105-5.7852,3.1084-.3252.0381-.6631.0586-.9922.0586-1.3721,0-2.625-.3447-3.7246-1.0254-1.1436-.7061-2.5107-2.1582-2.5107-5.0596,0-.4053-.124-.6074-.2578-.7656-.0303-.0361-.0986-.1172-.46-.1172-.4873,0-.7666.0889-.8643.1729-.2432.2061-.4443.5479-.5996,1.0166-.2354.7158-.3945,1.626-.4736,2.7031-.0889,1.208-.1338,2.5957-.1338,4.126,0,1.2578.0537,2.5088.1592,3.7197.0957,1.084.2842,2.0586.5605,2.8945.2129.6396.4912,1.1348.8281,1.4697.0605.0596.2002.1982.6934.1982.1836,0,.3174-.0117.4092-.0254.0938-.2324.1387-.4775.1387-.752,0-1.3711.374-2.5518,1.1123-3.5088.6318-.8135,1.4033-1.4492,2.2998-1.8975.8047-.4004,1.6328-.665,2.4678-.791.7197-.1084,1.3115-.1611,1.8125-.1611,1.1748,0,2.252.2393,3.2012.7119.9238.458,1.71,1.085,2.333,1.8623.6035.7559,1.0479,1.625,1.3262,2.5879.2529.8799.3809,1.8145.3809,2.7822,0,2.082-.5693,3.9902-1.6914,5.6699-1.0303,1.5459-2.4043,2.8789-4.0801,3.9619-1.5986,1.0312-3.4014,1.8359-5.3584,2.3916-1.9453.5547-3.9414.8359-5.9326.8359Z"
       id="path39" />
    <path
       d="m375.4829,468.8873c1.7307,0,3.3678.2117,4.9111.6349,1.5424.4224,2.8873,1.0487,4.0355,1.8762,1.1475.8285,2.0597,1.8496,2.7367,3.0652.678,1.2155,1.016,2.6349,1.016,4.2548,0,1.7971-.3297,3.2338-.9875,4.3082-.6587,1.0745-1.9668,1.717-3.9226,1.9287-.2474.0291-.4883.0435-.7222.0435-.9047,0-1.7081-.2167-2.4104-.6508-.8846-.5463-1.3265-1.5244-1.3265-2.9336,0-.9161-.282-1.7092-.8461-2.3785-.5649-.6693-1.355-1.0048-2.371-1.0048-1.0537,0-1.8813.2563-2.4832.7665-.6025.5118-1.0536,1.225-1.355,2.1411-.3013.9163-.4988,2.0173-.5925,3.3035-.0946,1.286-.1405,2.7218-.1405,4.3073,0,1.3395.056,2.6522.1691,3.9375.1129,1.2869.3389,2.4406.677,3.4625.339,1.022.8185,1.8409,1.4395,2.4578.6211.6168,1.4396.9248,2.4556.9248,1.2411,0,2.0596-.3441,2.4546-1.0306.395-.6874.5925-1.4358.5925-2.2469,0-.8096.1975-1.4702.5925-1.9821.396-.5101.8755-.9067,1.4396-1.1888.5649-.2814,1.1382-.4663,1.7216-.5549.5833-.0878,1.0629-.1324,1.4395-.1324.79,0,1.4855.1505,2.0881.4498.6017.2994,1.1005.696,1.4955,1.189.395.4938.6863,1.0658.8755,1.7179.1874.6521.282,1.348.282,2.0879,0,1.5854-.4235,3.0126-1.2704,4.2806-.8461,1.2689-1.9659,2.3519-3.3577,3.251-1.3927.8981-2.9543,1.5948-4.6851,2.0878-1.7308.4929-3.4808.7399-5.2491.7399-2.6724,0-4.9203-.5282-6.7448-1.5854-1.8253-1.0573-3.3016-2.475-4.4305-4.2549-1.129-1.7791-1.9384-3.823-2.4271-6.1311-.4896-2.3071-.734-4.7125-.734-7.215s.2545-4.9414.7625-7.3199c.5081-2.3787,1.3633-4.5009,2.5676-6.3694,1.2043-1.8668,2.8129-3.373,4.8265-4.5189,2.0118-1.1442,4.5051-1.718,7.4778-1.718m0-5c-3.8348,0-7.1824.798-9.9496,2.3717-2.7113,1.543-4.9169,3.6134-6.5563,6.1547-1.5282,2.3711-2.6233,5.074-3.2559,8.0355-.5791,2.712-.8727,5.5261-.8727,8.3644,0,2.8407.2836,5.6174.8429,8.2529.61,2.8801,1.652,5.4958,3.0967,7.7723,1.558,2.4564,3.6261,4.4426,6.146,5.9023,2.5863,1.4987,5.699,2.2588,9.2509,2.2588,2.2224,0,4.4492-.3132,6.6187-.931,2.1948-.6251,4.222-1.5317,6.0253-2.6945,1.9688-1.2719,3.5853-2.8455,4.808-4.6793,1.3997-2.0956,2.1104-4.4701,2.1104-7.0544,0-1.2014-.1603-2.3684-.4764-3.4686-.3757-1.295-.9723-2.4551-1.7767-3.4607-.7645-.954-1.7007-1.7391-2.7892-2.3408,1.3417-.8259,2.2052-1.8378,2.7526-2.7308,1.145-1.8701,1.7249-4.198,1.7249-6.9214,0-2.4774-.5549-4.7284-1.6494-6.6904-1.0303-1.8501-2.436-3.4268-4.1764-4.6833-1.6344-1.1779-3.5314-2.0669-5.6418-2.6449-1.9653-.5388-4.0625-.8124-6.2317-.8124h0Zm.5786,26.4128c-.0244-.5776-.0367-1.1624-.0367-1.7507,0-.3909.0031-.7717.009-1.1417.5181.5386,1.0446.9265,1.4786,1.1946.1215.075.244.147.3679.2161-.6687.4139-1.2764.9093-1.8188,1.4818h0Z"
       id="path40" />
    <path
       class="cls-1"
       d="m415.2744,509.5488c-1.4053,0-2.7764-.4834-4.0752-1.4365-1.0293-.7529-2.0078-1.6875-2.9053-2.7773-.8311-1.0049-1.6328-2.1113-2.3809-3.2852-.3721-.584-.7285-1.1455-1.0684-1.6846-.0146.3057-.0342.6143-.0605.9238-.04.8369-.166,1.7383-.3711,2.5898-.2354.9844-.6279,1.8945-1.168,2.7051-.6016.9004-1.3867,1.6211-2.335,2.1475-.9717.542-2.1406.8174-3.4717.8174-2.7598,0-4.376-1.2803-5.2451-2.3555-.9902-1.2207-1.7188-2.6895-2.165-4.3633-.4033-1.5098-.6406-3.0908-.7031-4.6963-.0576-1.4248-.0869-2.6416-.0869-3.6113,0-.9395-.0098-1.9932-.0283-3.1592-.0195-1.1904-.0283-2.4121-.0283-3.6592,0-1.2207-.0098-2.415-.0273-3.584-.0205-1.1904-.0293-2.2705-.0293-3.2344,0-1.0762.0498-2.3018.1475-3.6436.1094-1.5068.4141-2.959.9053-4.3154.5488-1.5225,1.418-2.8359,2.5811-3.9014,1.3379-1.2246,3.1211-1.8447,5.3008-1.8447,1.4092,0,2.5674.2275,3.54.6973,1.042.5029,1.8682,1.2236,2.459,2.1445.5215.8135.8711,1.7441,1.04,2.7666.1299.791.1973,1.6318.2021,2.502.248-.3418.5049-.6914.7705-1.0488.8232-1.1113,1.7041-2.165,2.6143-3.1318.9668-1.0254,1.9805-1.9014,3.0137-2.6006,1.2988-.8818,2.6543-1.3291,4.0264-1.3291,1.1885,0,2.2803.2803,3.2451.832.8516.4893,1.5947,1.1211,2.2168,1.8809.6299.7705,1.1113,1.667,1.4336,2.668.3047.9531.459,1.9385.459,2.9326,0,1.3271-.3467,2.6484-1.0293,3.9268-.5586,1.0469-1.2549,2.0869-2.0684,3.0918-.791.9736-1.6572,1.9023-2.5771,2.7617l-2.3428,2.1934c-.3955.3711-.7559.7119-1.082,1.0225.7109.542,1.4746,1.1357,2.2793,1.7705,1.1787.9336,2.29,1.9463,3.3066,3.0107,1.0635,1.1162,1.9619,2.2734,2.6709,3.4424.8584,1.4121,1.2939,2.8799,1.2939,4.3623,0,2.4326-.7236,4.458-2.1504,6.0195-1.4863,1.6279-3.541,2.4531-6.1064,2.4531Z"
       id="path41" />
    <path
       d="m415.7261,469.6805c.7522,0,1.4192.1677,2.0034.5023.5825.3347,1.0906.7656,1.5242,1.2948.4316.5282.7615,1.1449.9875,1.8495.2258.7054.3389,1.4272.3389,2.167,0,.9171-.2454,1.8333-.7339,2.7485-.4897.9171-1.0923,1.8152-1.8062,2.696-.7156.881-1.4956,1.7172-2.3425,2.5103-.8469.7932-1.6279,1.5244-2.3425,2.1937s-1.3174,1.2422-1.8062,1.7179c-.4895.4757-.7339.8542-.7339,1.1365s.0854.5376.2544.7656c.1692.2296.3667.4326.5925.6082.9397.7054,1.9558,1.4891,3.0481,2.3519,1.0903.8638,2.1064,1.7885,3.0481,2.7753.9397.9867,1.7214,1.9906,2.3416,3.0126.6211,1.022.9316,2.0439.9316,3.0652,0,1.797-.499,3.2423-1.4956,4.334-.9978,1.0925-2.418,1.6388-4.2617,1.6388-.8652,0-1.7307-.3175-2.5959-.9515-.8665-.6339-1.6848-1.4176-2.4556-2.3519-.7717-.9333-1.5049-1.9468-2.2012-3.0393-.6963-1.0917-1.3357-2.105-1.9189-3.0393-.5833-.9325-1.1006-1.717-1.5515-2.3519-.4521-.634-.8103-.9514-1.073-.9514-.79,0-1.1851.653-1.1851,1.9562,0,.634.0183,1.3661.0559,2.1929.0378.8284.0193,1.6835-.0559,2.5636-.0378.7759-.1416,1.5157-.3105,2.2203-.1689.7053-.4429,1.3394-.8186,1.9028-.3765.5635-.8652,1.0134-1.467,1.3472-.6025.3356-1.355.5024-2.2581.5024-1.4302,0-2.5308-.4757-3.3015-1.4272-.7717-.9514-1.3357-2.0956-1.6931-3.4349-.3583-1.3395-.5649-2.7228-.621-4.1499-.057-1.4264-.0845-2.598-.0845-3.5142,0-.9515-.0101-2.0173-.0286-3.1976-.0193-1.1803-.0284-2.3872-.0284-3.6208,0-1.2328-.0092-2.4397-.0276-3.6208-.0201-1.1803-.0284-2.2461-.0284-3.1976,0-1.0211.0469-2.1747.1405-3.4617.0938-1.286.3483-2.5016.7626-3.6466.4133-1.145,1.0527-2.1145,1.9189-2.9077.8654-.7922,2.0687-1.1888,3.6122-1.1888,1.0159,0,1.8345.1505,2.4556.449.6208.3003,1.1006.7141,1.4385,1.2423.3391.5282.5649,1.1364.678,1.8237.113.6865.1692,1.4186.1692,2.1927,0,.7054-.0286,1.5511-.0847,2.5378-.0569.9867-.0845,1.8152-.0845,2.4835,0,.2117.0276.4938.0845.8457.0562.3527.2344.5291.5366.5291.2627,0,.6292-.2994,1.1006-.899.4692-.5988,1.0159-1.348,1.636-2.2461.6211-.8981,1.3174-1.8677,2.0891-2.9069.7708-1.0392,1.5801-2.0087,2.427-2.9067.8459-.899,1.7114-1.6475,2.5959-2.2471.8838-.5988,1.7583-.8981,2.6248-.8981m0-5c-1.8801,0-3.7068.5917-5.4292,1.7587-1.187.8046-2.3416,1.8003-3.4329,2.9601-.0608.0645-.1213.1292-.1819.1943-.1565-.3179-.3301-.6257-.521-.923-.8372-1.3088-2.0059-2.3346-3.469-3.0424-1.3308-.6395-2.8425-.9478-4.6326-.9478-3.5182,0-5.7422,1.36-6.9884,2.5009-1.4647,1.3413-2.5566,2.9891-3.2457,4.8979-.5673,1.5681-.9198,3.245-1.0464,4.9808-.1019,1.4023-.1537,2.6891-.1537,3.8252,0,.9769.0085,2.0712.0292,3.283.0179,1.1484.0269,2.3293.0269,3.5355,0,1.2615.0094,2.4956.0291,3.7025.0179,1.1479.028,2.1876.028,3.116,0,.9955.0298,2.245.0885,3.7139.0702,1.7881.335,3.553.7867,5.2422.5376,2.0143,1.426,3.7959,2.6401,5.2927,1.7112,2.1125,4.2635,3.2775,7.1847,3.2775,1.7612,0,3.3396-.3816,4.6909-1.1343,1.2927-.7168,2.3691-1.7068,3.1917-2.9377.2927-.4388.552-.8988.7771-1.3776.0898.1118.1802.2227.271.3323,1.0278,1.246,2.1584,2.3245,3.3564,3.2012,1.7341,1.2706,3.6021,1.9161,5.5483,1.9161,4.1077,0,6.5925-1.7766,7.9536-3.267,1.8345-2.0094,2.8037-4.6738,2.8037-7.7058,0-1.9458-.5581-3.8508-1.6589-5.662-.7991-1.3169-1.8069-2.6179-2.9937-3.864-1.0957-1.1484-2.2913-2.2374-3.5564-3.2404l.0808-.0757,1.2124-1.1355c1.0061-.9421,1.9502-1.9541,2.8057-3.0072.916-1.1302,1.7007-2.3042,2.3357-3.4932.8782-1.6455,1.3232-3.3623,1.3232-5.1038,0-1.2535-.1941-2.4955-.5769-3.6913-.418-1.3025-1.0493-2.4752-1.8779-3.4891-.8203-1.0011-1.7961-1.8292-2.9048-2.4662-1.354-.7755-2.8643-1.167-4.4944-1.167h0Z"
       id="path42" />
    <path
       class="cls-1"
       d="m436.5527,509.707c-2.4014,0-4.5195-.3379-6.2969-1.0049-1.8203-.6807-3.375-1.6387-4.6182-2.8477-1.2168-1.1807-2.1943-2.5762-2.9053-4.1445-.6582-1.4512-1.1631-3.0283-1.498-4.6836-.3252-1.5869-.5312-3.2627-.6123-4.9766-.0771-1.623-.1162-3.2285-.1162-4.7695,0-2.3164.1504-4.6143.4453-6.832.3145-2.3486.8945-4.4688,1.7256-6.3027.8926-1.9717,2.1182-3.5957,3.6416-4.8252,1.6738-1.3496,3.7686-2.0342,6.2275-2.0342h7.3369c.9336,0,1.8906.0488,2.8457.1445,1.125.1152,2.1807.3848,3.1426.8018,1.1523.498,2.1016,1.2617,2.8203,2.2686.7588,1.0684,1.1416,2.4268,1.1416,4.042,0,1.3594-.3115,2.54-.9268,3.5078-.5752.9102-1.3389,1.6387-2.2686,2.1602-.4521.2549-.9375.4658-1.4512.6328,1.0752.4082,1.8301,1.0303,2.335,1.5879,1.1436,1.2656,1.7471,2.8506,1.7471,4.585,0,1.7461-.7158,3.2939-2.0703,4.4746-1.2744,1.1104-2.8428,1.6729-4.6621,1.6729h-6.0674c.0117.3271.0332.665.0625,1.0088.0312.3652.1064.6709.2305.9385.0625.1367.1514.2402.2891.3389h0c.0049,0,.1494.0605.5176.0605.7334,0,1.3633-.0879,1.8721-.2617.5156-.1777.9736-.4229,1.3984-.751.7314-.5283,1.3252-.8672,1.8818-1.0859.6475-.2559,1.4023-.3857,2.2422-.3857,1.916,0,3.5488.7539,4.7227,2.1797,1.0713,1.3008,1.6143,3.1152,1.6143,5.3936,0,1.9346-.7188,3.6582-2.0781,4.9863-1.124,1.0977-2.501,1.9658-4.0938,2.5801-1.4385.5557-2.9746.958-4.5635,1.1973-1.5576.2314-2.8682.3438-4.0117.3438Z"
       id="path43" />
    <path
       d="m439.8826,469.7864c.8655,0,1.73.0447,2.5962.1316.8652.0886,1.6655.2908,2.3984.6082.7341.3175,1.3267.7932,1.7786,1.4272.4512.6339.677,1.4977.677,2.5894,0,.8817-.179,1.6044-.5364,2.167-.3574.5643-.8186,1.0048-1.3826,1.3214-.564.3174-1.2043.5376-1.9189.6606-.7148.1239-1.4304.1849-2.1453.1849-.564,0-1.0627-.0258-1.4954-.0791-.4329-.0525-.8665-.123-1.2981-.2108-.4326-.0878-.8662-.1592-1.2981-.2117-.4326-.0532-.9314-.0791-1.4956-.0791-.2637,0-.4895.0878-.677.2642-.1892.1763-.3389.3879-.4519.6339-.113.2469-.1975.5024-.2537.7666-.0569.264-.0854.4851-.0854.6606v.8723c0,.2993.0469.5729.1416.819.0938.2468.2444.4413.4509.5815.2068.141.5173.2115.9316.2115.7146,0,1.3357-.0172,1.863-.0533.5264-.0343,1.0344-.061,1.5239-.0791.4878-.0172.9958-.0344,1.5242-.0525.5264-.0181,1.1465-.0266,1.8621-.0266,1.3164,0,2.3425.4052,3.0764,1.2156.7332.8112,1.1006,1.7798,1.1006,2.9067,0,1.0228-.405,1.8857-1.2136,2.5903-.8101.7053-1.8162,1.0573-3.0195,1.0573h-7.281c-.6028,0-.9692.203-1.1006.6073-.1323.406-.1975.819-.1975,1.2422,0,.5996.0276,1.2251.0845,1.8762.0559.653.2068,1.2423.4509,1.7705.2444.5291.6118.9695,1.1006,1.3213.4888.3528,1.1475.5291,1.9761.5291,1.0161,0,1.9089-.1324,2.6807-.3966.7708-.264,1.4761-.6426,2.1165-1.1364.4888-.3518.9124-.5988,1.2705-.7399.3564-.1401.7983-.2115,1.3264-.2115,1.1658,0,2.0964.4232,2.7937,1.2688.6953.8457,1.0437,2.1138,1.0437,3.8049,0,1.2689-.4419,2.3348-1.3257,3.1976-.8848.8646-1.9668,1.5425-3.2456,2.0354-1.2798.4938-2.6245.8456-4.0356,1.0573-1.4109.2108-2.6245.3165-3.6406.3165-2.1072,0-3.9143-.2812-5.418-.8456-1.5059-.5626-2.7571-1.3291-3.7537-2.2986-.9978-.9688-1.7876-2.0964-2.3711-3.3834-.5833-1.2853-1.0251-2.6686-1.3257-4.149-.302-1.4796-.4895-3.0127-.5649-4.5981-.0752-1.5854-.1128-3.1356-.1128-4.6514,0-2.2195.1414-4.3865.4233-6.501.282-2.1138.79-3.9813,1.5242-5.6021.7339-1.6207,1.7114-2.9249,2.9351-3.9116,1.2217-.9858,2.7742-1.4796,4.6565-1.4796h7.3372m0-5h-7.3372c-3.0449,0-5.668.8708-7.7964,2.5885-1.8293,1.4751-3.2935,3.4067-4.3499,5.7402-.9324,2.058-1.5801,4.4144-1.9255,7.0034-.3101,2.325-.4673,4.7345-.4673,7.1621,0,1.5869.0398,3.2316.1184,4.8882.0876,1.8398.3098,3.6434.6604,5.3612.3728,1.8374.9355,3.5939,1.6714,5.2153.8401,1.8527,1.998,3.5034,3.4414,4.9047,1.4883,1.4479,3.3354,2.5912,5.4866,3.3949,2.0518.7701,4.4658,1.1619,7.168,1.1619,1.2744,0,2.7068-.1215,4.3796-.3715,1.7703-.2655,3.4841-.7155,5.0964-1.3374,1.9099-.7362,3.5725-1.7876,4.9404-3.1243,1.8516-1.8076,2.8311-4.1505,2.8311-6.7737,0-2.8712-.7339-5.2197-2.1814-6.9803-.4746-.5756-1.0088-1.0763-1.592-1.4976,1.1331-1.4628,1.7422-3.2264,1.7422-5.1056,0-2.2241-.7317-4.2714-2.1208-5.9471.5178-.4965.9766-1.0591,1.3726-1.6843.8694-1.3688,1.3123-2.9999,1.3123-4.8423,0-2.1471-.5396-3.9938-1.6035-5.4886-.988-1.3865-2.2886-2.4343-3.8672-3.1171-1.1958-.5179-2.4998-.8523-3.8738-.993-1.0457-.1049-2.0872-.1576-3.1057-.1576h0Z"
       id="path44" />
    <path
       class="cls-1"
       d="m475.8916,510.1299c-1.5615,0-3.0811-.335-4.5166-.9961-1.2822-.5889-2.5088-1.3438-3.6406-2.2422-1.0928-.8633-2.1016-1.8271-2.9922-2.8623-.2734-.3164-.5371-.627-.791-.9307-.1162.5859-.2705,1.1514-.4619,1.6924-.4688,1.3135-1.2246,2.4248-2.25,3.3066-1.1572.9971-2.7227,1.5029-4.6504,1.5029-1.873,0-3.4189-.4189-4.5967-1.2451-1.1289-.7939-1.9746-1.8184-2.5166-3.0479-.4639-1.0498-.7607-2.2275-.8789-3.4971-.0977-1.0488-.168-2.0801-.207-3.0664-.0732-.9404-.1133-2-.1133-3.0596v-2.959c0-.8174.0078-2.0088.0273-3.5732l.0566-4.7822c.0195-1.6748.0576-3.2373.1152-4.6445.0801-2.0205.166-2.7549.2246-3.1318.1475-1.2559.6338-2.5459,1.4307-3.749.7666-1.1572,1.8115-2.1777,3.1055-3.0312,1.2324-.8115,2.7363-1.4629,4.4707-1.9365,1.7002-.4629,3.6582-.6963,5.8242-.6963,1.5859,0,3.3916.1514,5.3682.4502,2.1357.3242,4.167.9902,6.042,1.9795,1.9727,1.04,3.6582,2.5195,5.0107,4.3975,1.4365,1.9941,2.165,4.5752,2.165,7.6709,0,2.3389-.3945,4.3535-1.1738,5.9893-.7666,1.6123-1.7656,2.9541-2.9678,3.9902-1.1465.9893-2.4033,1.7578-3.7344,2.2832-.123.0479-.2461.0957-.3691.1416.3125.1572.6328.3193.959.4873,1.2754.6562,2.457,1.3652,3.5146,2.1084,1.1436.8037,2.127,1.6846,2.9209,2.6182,1.0527,1.2402,1.584,2.6025,1.584,4.0518,0,1.9443-.6963,3.6387-2.0146,4.8984-1.2832,1.2314-2.9941,1.8828-4.9443,1.8828Zm-11.5537-25.7793c.1572-.0352.3057-.0859.4482-.1533.3867-.1807.7168-.4072,1.0098-.6914.2617-.2549.4639-.5449.6162-.8887.1387-.3125.207-.6201.207-.9385,0-.5918-.1641-1.0156-.5479-1.417-.2324-.2412-.6123-.5225-1.4678-.5225-.1055,0-.1924.0098-.2656.0254v4.5859Z"
       id="path45" />
    <path
       d="m463.5313,469.6805c1.467,0,3.1326.1411,4.9946.4224,1.863.2831,3.613.8551,5.2493,1.7179,1.637.8638,3.0195,2.0802,4.1484,3.6476,1.1292,1.5682,1.6931,3.6381,1.6931,6.2102,0,1.9734-.3105,3.6122-.9304,4.9155-.6211,1.3042-1.4028,2.3606-2.3425,3.1709-.9409.8113-1.9478,1.4272-3.0198,1.8505-1.073.4224-2.0798.7399-3.0195.9506-.9417.2117-1.7214.3622-2.3425.45s-.9314.203-.9314.3433c0,.141.3289.3699.9875.6873.6584.3167,1.4771.7054,2.4553,1.1622.9785.4585,2.0505.9877,3.2173,1.5863,1.1658.5996,2.2388,1.2415,3.217,1.9287.9783.6874,1.7969,1.4186,2.4556,2.1937.6577.775.9875,1.5854.9875,2.431,0,1.2689-.4143,2.2996-1.2422,3.0918-.8276.7932-1.8997,1.1898-3.217,1.1898-1.2043,0-2.3618-.2563-3.4705-.7665-1.1108-.5101-2.1543-1.1537-3.1328-1.9296-.9792-.7743-1.8628-1.6199-2.6528-2.537-.79-.9153-1.4866-1.761-2.0881-2.5369-.6028-.7743-1.1106-1.4177-1.5242-1.9287-.4143-.511-.6963-.7665-.8469-.7665-.1882,0-.3013.0972-.3381.2908-.0376.1935-.0569.3433-.0569.449,0,.9868-.0276,2.0173-.0845,3.0918-.0562,1.0753-.2454,2.0612-.564,2.9602-.3208.8981-.8286,1.6473-1.5242,2.2461-.6963.5996-1.7031.8982-3.0195.8982-1.355,0-2.4087-.2642-3.1611-.7924-.7532-.5291-1.3071-1.1975-1.6646-2.0087-.3582-.8104-.5842-1.718-.678-2.7219s-.1597-1.9821-.1975-2.9335c-.0752-.9858-.1121-1.9725-.1121-2.9602v-2.9592c0-.8104.0083-1.9907.0276-3.5417.0183-1.5502.0376-3.1442.0569-4.7831.0186-1.6388.0562-3.1622.113-4.5723.0562-1.4082.1213-2.3596.1975-2.8534.113-.9515.4602-1.8677,1.0437-2.7485.5833-.881,1.3833-1.656,2.3984-2.3262,1.0161-.6685,2.2673-1.2062,3.7537-1.6122,1.4863-.4043,3.208-.6073,5.1646-.6073m.2261,17.2301c.7524,0,1.4478-.1488,2.0881-.449.6394-.2986,1.2034-.6874,1.6929-1.1631.4888-.4757.8755-1.0306,1.1575-1.6647.2822-.6339.4236-1.286.4236-1.9553,0-1.2328-.4153-2.2814-1.2419-3.1451-.8286-.8628-1.9192-1.2947-3.2742-1.2947-.7146,0-1.354.1849-1.9189.5549-.564.3699-.8462.9247-.8462,1.6646v6.0786c0,.4938.2058.8456.6211,1.0573.4133.2108.8462.3165,1.2981.3165m-.2261-22.2301c-2.3887,0-4.5679.2633-6.4768.7826-1.9924.5442-3.7366,1.3041-5.1895,2.2598-1.5833,1.0453-2.8662,2.3031-3.8196,3.743-.9978,1.5067-1.6133,3.1327-1.8291,4.8331-.0706.4845-.1589,1.3236-.239,3.3298-.0583,1.4468-.0977,3.0339-.1167,4.7148l-.031,2.6128-.0259,2.1678c-.0195,1.5752-.0278,2.7761-.0278,3.6008v2.9592c0,1.0848.0403,2.1775.1196,3.2491.0417,1.0067.1128,2.0524.2117,3.1094.1436,1.5376.5078,2.9769,1.083,4.2782.7258,1.6475,1.8584,3.0215,3.3638,4.079,1.6084,1.129,3.6384,1.7009,6.0352,1.7009,2.5432,0,4.657-.7097,6.2822-2.1095.7739-.6661,1.4316-1.4291,1.968-2.2816.4338.3966.8838.7793,1.3477,1.1462,1.2844,1.0182,2.6816,1.8781,4.1475,2.5513,1.7622.8108,3.6331,1.2227,5.5571,1.2227,2.6069,0,4.9155-.8922,6.6768-2.5801,1.8193-1.741,2.7825-4.0592,2.7825-6.7015,0-2.03-.7522-3.9894-2.1753-5.6663-.9319-1.0966-2.0728-2.1217-3.3933-3.0496-.2659-.1868-.5383-.3712-.8171-.5532.2178-.1696.4324-.3456.6438-.5277,1.4661-1.2643,2.6743-2.8818,3.5916-4.8079.9402-1.9766,1.4163-4.3529,1.4163-7.0653,0-3.6306-.8867-6.703-2.6355-9.1317-1.5801-2.1937-3.5557-3.9257-5.8726-5.1482-2.1235-1.1198-4.4216-1.8728-6.8315-2.239-2.1064-.3181-4.0381-.4791-5.7458-.4791h0Z"
       id="path46" />
  </g>
</svg>
