<?xml version="1.0" encoding="UTF-8"?>
<svg id="Layer_2" data-name="Layer 2" xmlns="http://www.w3.org/2000/svg" viewBox="0 0 106 104.69">
  <g id="Layer_2-2" data-name="Layer 2">
    <path d="m92.61,40.59h-4.96c-.36-1.07-.77-2.12-1.23-3.14,2.32-1.71,3.83-4.45,3.83-7.55v-4.74c0-5.19-4.2-9.39-9.39-9.39h-5.39c-2.88,0-5.46,1.3-7.18,3.34-1.14-.53-2.32-.99-3.52-1.4v-4.31c0-5.19-4.2-9.39-9.39-9.39h-5.39c-5.19,0-9.39,4.2-9.39,9.39v4.53c-1.13.41-2.24.87-3.31,1.38-1.64-1.39-3.76-2.24-6.08-2.24h-5.39c-5.19,0-9.39,4.2-9.39,9.39v4.74c0,2.68,1.13,5.09,2.93,6.8-.36.85-.68,1.71-.98,2.59h-4.96c-5.19,0-9.39,4.2-9.39,9.39v4.74c0,5.19,4.2,9.39,9.39,9.39h4.96c.25.73.51,1.45.81,2.16-2.08,1.72-3.4,4.32-3.4,7.23v4.74c0,5.19,4.2,9.39,9.39,9.39h5.39c2.43,0,4.64-.93,6.31-2.45,1.21.6,2.46,1.13,3.74,1.59v4.53c0,5.19,4.2,9.39,9.39,9.39h5.39c5.19,0,9.39-4.2,9.39-9.39v-4.31c1.04-.35,2.06-.75,3.06-1.19,1.72,1.92,4.21,3.13,6.99,3.13h5.39c5.19,0,9.39-4.2,9.39-9.39v-4.74c0-2.88-1.3-5.46-3.34-7.18.53-1.14.99-2.32,1.4-3.52h4.96c5.19,0,9.39-4.2,9.39-9.39v-4.74c0-5.19-4.2-9.39-9.39-9.39Zm-39.61,28.09c-9.02,0-16.33-7.31-16.33-16.33s7.31-16.33,16.33-16.33,16.33,7.31,16.33,16.33-7.31,16.33-16.33,16.33Z" style="fill: #29abe2; stroke: #000; stroke-miterlimit: 10; stroke-width: 8px;"/>
  </g>
</svg>