<?xml version="1.0" encoding="UTF-8"?>
<svg id="Layer_2" data-name="Layer 2" xmlns="http://www.w3.org/2000/svg" viewBox="0 0 125.69 64.41">
  <g id="Layer_2-2" data-name="Layer 2">
    <path d="m105.21,8.37c-1.7,0-3.34.26-4.88.73l-30.16-5c-4.02-.67-7.81,2.05-8.48,6.07h0c-.67,4.02,2.05,7.81,6.07,8.48l21.21,3.52c-.14.88-.24,1.77-.24,2.68,0,.43.03.84.06,1.26l-16.24,8.13c-3-4.11-7.83-6.79-13.31-6.79-7.45,0-13.74,4.95-15.78,11.73l-33.33-5.75c-2.85-.49-5.56,1.42-6.05,4.27-.49,2.85,1.42,5.56,4.27,6.05l35.54,6.13c2.39,6.15,8.35,10.52,15.35,10.52,8.95,0,16.21-7.14,16.46-16.03l17.2-8.61c3.02,3.4,7.41,5.56,12.32,5.56,9.1,0,16.48-7.38,16.48-16.48s-7.38-16.48-16.48-16.48Z" style="fill: #1a1a1a; stroke: #000; stroke-miterlimit: 10; stroke-width: 8px;"/>
  </g>
</svg>