<?xml version="1.0" encoding="UTF-8" standalone="no"?>
<svg
   width="124.91328"
   height="119.01011"
   version="1.1"
   viewBox="0 0 124.91328 119.01011"
   id="svg1170"
   xmlns="http://www.w3.org/2000/svg"
   xmlns:svg="http://www.w3.org/2000/svg">
  <defs
     id="defs536" />
  <g
     transform="translate(1399.9536,-2741.9612)"
     id="g1172">
    <g
       transform="translate(-1323.5,146.79)"
       fill="#e6e6e6"
       stroke="#000000"
       stroke-width="10.667"
       id="g1171">
      <g
         id="g1173"
         transform="matrix(0.60411731,0,0,0.60301027,-28.153277,1032.3717)"
         style="stroke-width:17.6734">
        <path
           d="m -65.875,2600.5 c -2.9031,0 -5.2402,2.3371 -5.2402,5.2402 v 89.412 c 0,2.9031 2.3371,5.2402 5.2402,5.2402 h 21.783 c 2.9031,0 5.2402,-2.3371 5.2402,-5.2402 v -62.389 h 76.025 c 2.9031,0 5.2402,-2.3371 5.2402,-5.2402 v -21.783 c 0,-2.9031 -2.3371,-5.2402 -5.2402,-5.2402 z"
           id="path1170"
           style="stroke-width:17.6734" />
        <path
           d="m 112.74111,2780.1862 c 2.9031,0 5.2402,-2.3371 5.2402,-5.2402 v -89.412 c 0,-2.9031 -2.3372,-5.2402 -5.2402,-5.2402 H 90.958104 c -2.9031,0 -5.2402,2.3371 -5.2402,5.2402 v 62.389 H 9.6929039 c -2.9031,0 -5.2402003,2.3371 -5.2402003,5.2402 v 21.783 c 0,2.9031 2.3372003,5.2402 5.2402003,5.2402 z"
           id="path1171"
           style="stroke-width:17.6734" />
      </g>
    </g>
  </g>
</svg>
