<?xml version="1.0" encoding="UTF-8"?>
<svg id="Layer_2" data-name="Layer 2" xmlns="http://www.w3.org/2000/svg" viewBox="0 0 122 90.86">
  <g id="Layer_2-2" data-name="Layer 2">
    <g>
      <path d="m77,86.86h-31.99c-5.47,0-9.39-5.29-7.79-10.52,2.59-8.49,5.19-16.99,7.78-25.48h32c2.59,8.49,5.19,16.99,7.78,25.48,1.6,5.23-2.32,10.52-7.79,10.52Z" style="fill: #fbb03b; stroke: #000; stroke-miterlimit: 10; stroke-width: 8px;"/>
      <path d="m35.43,4h51.14c6.86,0,12.43,5.57,12.43,12.43v10.29c0,20.97-17.03,38-38,38h0c-20.97,0-38-17.03-38-38v-10.29c0-6.86,5.57-12.43,12.43-12.43Z" style="fill: #fbb03b; stroke: #000; stroke-miterlimit: 10; stroke-width: 8px;"/>
      <circle cx="99.5" cy="35.36" r="18.5" style="fill: #fbb03b; stroke: #000; stroke-miterlimit: 10; stroke-width: 8px;"/>
      <circle cx="22.5" cy="34.36" r="18.5" style="fill: #fbb03b; stroke: #000; stroke-miterlimit: 10; stroke-width: 8px;"/>
    </g>
  </g>
</svg>