<?xml version="1.0" encoding="UTF-8"?>
<svg id="Layer_2" data-name="Layer 2" xmlns="http://www.w3.org/2000/svg" viewBox="0 0 78.91 73.13">
  <g id="Layer_2-2" data-name="Layer 2">
    <g>
      <g>
        <path d="m45.5,69.13c-.72,0-1.44-.02-2.17-.06-20.83-1.06-38.08-18.2-39.26-39.02-.46-8.16,1.43-16.17,5.49-23.17,1.05-1.81,2.92-2.89,5.01-2.89,1.32,0,2.57.45,3.6,1.29l.08.06c2.17,1.77,2.69,4.91,1.23,7.47-3.11,5.46-4.41,11.68-3.75,18.01,1.46,14.02,12.71,25.21,26.74,26.59,1.01.1,2.03.15,3.03.15,7.24,0,14.24-2.62,19.69-7.39,1.13-.99,2.56-1.54,4.02-1.54,1.32,0,2.56.44,3.59,1.28,1.33,1.09,2.08,2.63,2.11,4.35.03,1.73-.7,3.38-2.01,4.53-7.57,6.66-17.3,10.33-27.4,10.33h0Z" style="fill: #ccc;"/>
        <path d="m14.57,8c.4,0,.76.13,1.07.39l.07.06c.78.64.7,1.69.29,2.39-3.53,6.19-5,13.24-4.26,20.4,1.66,15.9,14.41,28.59,30.33,30.16,1.14.11,2.29.17,3.42.17,8.21,0,16.14-2.97,22.32-8.38.4-.35.9-.55,1.39-.55.4,0,.75.13,1.06.37.52.42.64.95.64,1.32,0,.32-.07.94-.65,1.45-6.84,6.02-15.63,9.34-24.76,9.34-.65,0-1.31-.02-1.97-.05-9.16-.46-17.84-4.33-24.43-10.89-6.6-6.56-10.52-15.21-11.04-24.36-.42-7.38,1.29-14.61,4.95-20.94.48-.83,1.31-.9,1.55-.9h0M14.57,0c-3.35,0-6.64,1.72-8.47,4.89C1.81,12.29-.45,21.01.08,30.29c1.31,23.01,20.04,41.62,43.05,42.79.79.04,1.59.06,2.37.06,11.51,0,22.03-4.28,30.04-11.33,4.56-4.01,4.49-11.13-.22-14.97-1.79-1.46-3.95-2.18-6.12-2.18-2.37,0-4.75.86-6.65,2.52-4.56,3.98-10.52,6.4-17.05,6.4-.87,0-1.75-.04-2.64-.13-12.1-1.2-21.9-10.93-23.16-23.03-.59-5.71.66-11.08,3.25-15.61,2.4-4.2,1.56-9.49-2.18-12.55l-.07-.06C18.88.71,16.71,0,14.57,0h0Z"/>
      </g>
      <g>
        <circle cx="21" cy="54.13" r="12" style="fill: #ccc;"/>
        <path d="m21,46.13c4.41,0,8,3.59,8,8s-3.59,8-8,8-8-3.59-8-8,3.59-8,8-8m0-8c-8.84,0-16,7.16-16,16s7.16,16,16,16,16-7.16,16-16-7.16-16-16-16h0Z"/>
      </g>
    </g>
  </g>
</svg>