<?xml version="1.0" encoding="UTF-8"?>
<svg id="Layer_2" data-name="Layer 2" xmlns="http://www.w3.org/2000/svg" viewBox="0 0 106.06 91.53">
  <g id="Layer_2-2" data-name="Layer 2">
    <g>
      <path d="m88.12,28.91c0-13.76-11.15-24.91-24.91-24.91s-24.91,11.15-24.91,24.91c0,4.24,1.06,8.23,2.93,11.72-3.85.45-9.54.68-16.12-.73-9.44-2.03-11.6-4.96-14.65-3.66C2.15,39.76-.07,70.33,15.58,81.67c4.44,3.21,9.27,4.12,12.46,4.4,4.6.87,10.31,1.55,16.85,1.47,5.6-.07,10.54-.69,14.65-1.47,1.51,0,9.56-.15,16.06-6.65,4.11-4.11,6.65-9.79,6.65-16.06h0c0-5.28-1.81-10.13-4.83-13.99,6.46-4.5,10.69-11.98,10.69-20.45Z" style="fill: #fbb03b; stroke: #000; stroke-miterlimit: 10; stroke-width: 8px;"/>
      <ellipse cx="66.75" cy="23.86" rx="4.97" ry="5.42" transform="translate(33.35 86.38) rotate(-81.55)"/>
      <path d="m100.79,37.52c-1.66,2.22-4.49,2.61-7.2,2.94-4.77.59-9.73,1.2-12.33-2.36-2.54-3.48-1.76-9.52,1.2-11.84,1.58-1.23,6.72.53,16.93,4.11.52.18,1.63.59,2.24,1.68.88,1.59.29,3.95-.84,5.46Z" style="fill: #f15a24; stroke: #000; stroke-miterlimit: 10; stroke-width: 8px;"/>
    </g>
  </g>
</svg>