<?xml version="1.0" encoding="UTF-8"?>
<svg id="Layer_2" data-name="Layer 2" xmlns="http://www.w3.org/2000/svg" viewBox="0 0 120 120">
  <g id="Layer_2-2" data-name="Layer 2">
    <rect width="120" height="120" style="fill: none;"/>
    <rect x="44" y="50" width="43" height="57" rx="21.5" ry="21.5" style="fill: #e6e6e6; stroke: #000; stroke-miterlimit: 10; stroke-width: 8px;"/>
    <circle cx="66" cy="31" r="19" style="fill: #e6e6e6; stroke: #000; stroke-miterlimit: 10; stroke-width: 8px;"/>
    <g>
      <g>
        <path d="m27.58,94.99c-1.38,0-2.56-.37-3.51-1.11-.81-.62-1.44-1.43-1.86-2.38-.32-.75-.54-1.55-.64-2.38,0-.09-.02-.17-.03-.26h-.01c-.92-.02-1.8-.13-2.62-.32-1.15-.27-2.16-.81-2.99-1.6-.71-.69-1.57-1.96-1.57-4.13,0-1.37.4-2.66,1.18-3.83,1-1.51,2.57-2.34,4.41-2.34.52,0,1.02,0,1.51.02,0-1.41.47-2.78,1.35-3.94,1.09-1.44,2.87-2.17,5.3-2.17.56,0,1.13.06,1.71.19.66.15,1.28.38,1.85.69.71.39,1.31.92,1.78,1.57.58.8.88,1.76.88,2.77,0,.31,0,.61,0,.88.14,0,.28,0,.42,0,2.22,0,3.55.92,4.28,1.69,1.01,1.09,1.51,2.6,1.51,4.62,0,1.25-.27,2.33-.8,3.23-.55.93-1.34,1.66-2.34,2.16-.81.41-1.76.66-2.82.76-.11,0-.22.02-.33.03-.05.66-.19,1.3-.41,1.92-.4,1.13-1.12,2.08-2.13,2.81-1.04.75-2.39,1.12-4.1,1.12Z" style="fill: #e6e6e6;"/>
        <path d="m28.11,73.56c.35,0,.71.04,1.08.12.37.08.71.21,1.03.38.32.18.58.41.79.7.21.29.31.62.31,1.01,0,.51,0,.97-.02,1.37-.02.4-.02.84-.02,1.32,0,.32.1.56.29.72.19.16.46.27.79.34.34.07.71.1,1.13.12.42.02.83.02,1.25.02.93,0,1.62.25,2.09.74.46.5.7,1.35.7,2.57,0,.71-.13,1.27-.38,1.7-.26.43-.62.77-1.1,1.01-.48.24-1.06.39-1.75.46-.69.06-1.45.1-2.28.1-.51,0-.77.18-.77.53,0,.45,0,.98.02,1.58.02.61-.07,1.18-.26,1.73-.19.54-.54,1-1.06,1.37s-1.3.55-2.35.55c-.7,0-1.26-.16-1.68-.48-.42-.32-.73-.72-.94-1.2-.21-.48-.34-.99-.41-1.54s-.1-1.04-.1-1.49c0-.58-.1-.92-.31-1.03-.21-.11-.41-.18-.6-.22-.58-.1-1.22-.15-1.94-.17-.72-.02-1.39-.1-2.02-.24-.62-.14-1.15-.42-1.58-.84-.43-.42-.65-1.07-.65-1.97,0-.77.22-1.49.67-2.16.45-.67,1.09-1.01,1.92-1.01.54,0,1.07,0,1.58.02.51.02,1.04.02,1.58.02.67,0,1.06-.26,1.18-.77.11-.51.17-1.26.17-2.26,0-.77.25-1.48.74-2.14.5-.66,1.46-.98,2.9-.98m0-6c-4.25,0-6.53,1.83-7.69,3.36-.65.86-1.15,1.8-1.48,2.79-2.42.28-4.54,1.57-5.91,3.63-1.09,1.64-1.68,3.54-1.68,5.48,0,3.22,1.35,5.2,2.49,6.29,1.2,1.16,2.72,1.98,4.4,2.36.27.06.54.12.82.16.11.36.25.71.39,1.05.62,1.43,1.56,2.63,2.79,3.58,1,.78,2.76,1.72,5.33,1.72,2.33,0,4.31-.57,5.86-1.68,1.5-1.08,2.61-2.55,3.21-4.24.03-.1.07-.2.1-.29.7-.18,1.36-.43,1.97-.73,1.5-.75,2.74-1.9,3.58-3.32.81-1.36,1.22-2.97,1.22-4.76,0-2.78-.78-5.02-2.31-6.66-.83-.89-2.15-1.9-4.1-2.38-.23-.96-.65-1.87-1.23-2.68-.74-1.02-1.66-1.83-2.76-2.44-.82-.45-1.71-.78-2.63-.99-.82-.18-1.6-.26-2.37-.26h0Z"/>
      </g>
      <g>
        <path d="m45.92,100.57c-.99,0-1.93-.06-2.79-.17-1.1-.14-2.09-.45-2.95-.92-1.02-.56-1.83-1.35-2.41-2.36-.57-.98-.86-2.17-.86-3.54,0-.49.04-1.03.12-1.65.1-.75.3-1.48.6-2.18.34-.8.81-1.5,1.4-2.09.63-.63,1.39-1.04,2.25-1.24,0-.51.03-2.06.03-2.06,0,0,.09-5.37.1-5.59-.94-.14-1.81-.57-2.54-1.26-.58-.56-1.08-1.24-1.48-2.03-.35-.71-.62-1.46-.78-2.23-.16-.74-.23-1.39-.23-1.99,0-1.49.43-2.94,1.29-4.33.72-1.17,1.64-2.24,2.73-3.16,1.06-.9,2.24-1.64,3.51-2.21,1.39-.62,2.74-.93,4.03-.93,1.85,0,3.39.43,4.58,1.28,1.15.82,2.01,1.95,2.56,3.37.45,1.16.72,2.52.8,4.05.07,1.27.1,2.68.1,4.19,0,2.72-.03,5.33-.1,7.74-.05,1.78-.08,3.7-.09,5.71,1.25.44,2.24,1.41,2.78,2.78.45,1.13.67,2.52.67,4.23,0,1.54-.37,2.83-1.11,3.84-.73,1-1.76,1.72-3.05,2.14-.95.31-2.06.49-3.38.55-1.09.05-2.35.08-3.76.08h-2.02Z" style="fill: #e6e6e6;"/>
        <path d="m47.93,63.64c1.22,0,2.16.24,2.83.72.67.48,1.18,1.15,1.51,2.02s.54,1.9.6,3.12c.06,1.22.1,2.56.1,4.03,0,2.72-.03,5.27-.1,7.66-.06,2.38-.1,4.94-.1,7.66,0,.38.14.62.41.72.27.1.6.14.98.14.77,0,1.3.38,1.61,1.15.3.77.46,1.81.46,3.12,0,.9-.18,1.58-.53,2.06-.35.48-.87.83-1.56,1.06-.69.22-1.55.36-2.59.41s-2.25.07-3.62.07h-2.02c-.86,0-1.66-.05-2.4-.14-.74-.1-1.37-.29-1.9-.58s-.94-.7-1.25-1.22c-.3-.53-.46-1.21-.46-2.04,0-.35.03-.77.1-1.25.06-.48.19-.94.38-1.39.19-.45.45-.83.77-1.15s.74-.48,1.25-.48h.43c.42,0,.76-.05,1.03-.14.27-.1.41-.38.41-.86,0-1.22,0-2.3.02-3.26.02-.96.03-1.89.05-2.78.02-.9.03-1.82.05-2.78.02-.96.02-2.05.02-3.26,0-.1,0-.29.02-.6.02-.3-.02-.46-.12-.46s-.37.11-.82.34c-.45.22-.93.34-1.44.34-.42,0-.79-.16-1.13-.48s-.62-.72-.86-1.2c-.24-.48-.42-.98-.53-1.51-.11-.53-.17-.98-.17-1.37,0-.93.28-1.85.84-2.76.56-.91,1.26-1.73,2.11-2.45.85-.72,1.78-1.3,2.78-1.75s1.94-.67,2.81-.67m0-6c-1.71,0-3.47.4-5.25,1.19-1.53.68-2.95,1.58-4.23,2.66-1.33,1.13-2.45,2.43-3.34,3.88-1.14,1.86-1.73,3.85-1.73,5.9,0,.81.1,1.67.3,2.62.22,1.02.56,2.02,1.03,2.95.55,1.1,1.25,2.06,2.09,2.86.48.46,1.01.85,1.57,1.17l-.02,1.3-.04,2.18v.12c-.5.31-.97.68-1.4,1.1-.86.86-1.55,1.88-2.04,3.03-.4.94-.68,1.93-.82,2.95-.1.75-.15,1.42-.15,2.05,0,1.9.42,3.59,1.26,5.04.84,1.47,2.08,2.68,3.57,3.49,1.18.64,2.52,1.06,3.99,1.26,1,.13,2.06.19,3.18.19h2.02c1.45,0,2.77-.03,3.9-.08,1.6-.07,2.96-.3,4.18-.7,1.87-.6,3.44-1.72,4.54-3.21,1.12-1.53,1.69-3.42,1.69-5.61s-.29-3.84-.88-5.33c-.56-1.41-1.45-2.57-2.56-3.41.02-1.35.04-2.65.07-3.89.07-2.44.1-5.07.1-7.82,0-1.56-.03-3.02-.1-4.34-.1-1.85-.43-3.53-1-4.98-.77-1.97-1.98-3.56-3.62-4.73-1.7-1.21-3.83-1.83-6.31-1.83h0Z"/>
      </g>
    </g>
  </g>
</svg>