<?xml version="1.0" encoding="UTF-8" standalone="no"?>
<svg
   id="Layer_2"
   data-name="Layer 2"
   viewBox="0 0 140 140"
   version="1.1"
   sodipodi:docname="1.svg"
   inkscape:version="1.3.2 (091e20e, 2023-11-25, custom)"
   xmlns:inkscape="http://www.inkscape.org/namespaces/inkscape"
   xmlns:sodipodi="http://sodipodi.sourceforge.net/DTD/sodipodi-0.dtd"
   xmlns="http://www.w3.org/2000/svg"
   xmlns:svg="http://www.w3.org/2000/svg">
  <defs
     id="defs5" />
  <sodipodi:namedview
     id="namedview5"
     pagecolor="#ffffff"
     bordercolor="#000000"
     borderopacity="0.25"
     inkscape:showpageshadow="2"
     inkscape:pageopacity="0.0"
     inkscape:pagecheckerboard="0"
     inkscape:deskcolor="#d1d1d1"
     inkscape:zoom="2.775"
     inkscape:cx="66.486486"
     inkscape:cy="37.657658"
     inkscape:window-width="1920"
     inkscape:window-height="991"
     inkscape:window-x="-9"
     inkscape:window-y="-9"
     inkscape:window-maximized="1"
     inkscape:current-layer="g2" />
  <g
     id="Layer_2-2"
     data-name="Layer 2">
    <g
       id="g5">
      <g
         id="g2">
        <path
           d="m 102.36369,50.59673 c -1.34,-12.98 -12.940007,-22.42 -25.910007,-21.08 -12.98,1.34 -22.42,12.94 -21.08,25.91 0.41,4 1.8,7.66 3.9,10.77 -3.59,0.79 -8.93,1.57 -15.27,0.87 -9.1,-1 -11.43,-3.55 -14.18,-2.03 -7.49,4.13 -6.62,33.18 9.25,42.35 4.5,2.6 9.14,2.99 12.18,2.94 4.42,0.37 9.87,0.46 16.04,-0.25 5.27,-0.61 9.88,-1.67 13.68,-2.8 1.43,-0.15 9,-1.07 14.5,-7.83 3.480004,-4.28 5.330007,-9.88 4.720007,-15.79 v 0 c -0.510003,-4.98 -2.690003,-9.38 -5.910007,-12.73 5.650004,-4.87 8.920007,-12.34 8.100007,-20.32 z"
           style="fill:#fbb03b;stroke:#000000;stroke-width:8px;stroke-miterlimit:10"
           id="path1" />
        <ellipse
           cx="-44.18475"
           cy="83.777565"
           rx="4.71"
           ry="5.1399999"
           transform="rotate(-87.43)"
           id="ellipse1" />
        <path
           d="m 115.15368,57.48673 c -1.35,2.26 -3.99,2.9 -6.5,3.48 -4.45,1.02 -9.069993,2.08 -11.859993,-1.03 -2.730004,-3.04 -2.590004,-8.81 -0.02,-11.28 1.37,-1.32 6.390003,-0.15 16.369993,2.23 0.51,0.12 1.6,0.4 2.27,1.37 0.99,1.42 0.66,3.7 -0.26,5.23 z"
           style="fill:#f15a24;stroke:#000000;stroke-width:8px;stroke-miterlimit:10"
           id="path2"
           sodipodi:nodetypes="cccccccc" />
      </g>
      <g
         id="g4"
         transform="translate(21.263683,25.38673)">
        <path
           d="m 78.44,91.62 c -3.23,0 -6.37,-2.12 -8,-5.39 l -1.43,-2.88 -1.68,1.71 c -1.18,1.2 -2.72,1.86 -4.34,1.86 -1.81,0 -3.54,-0.82 -4.74,-2.25 -1.26,-1.51 -1.79,-3.52 -1.43,-5.52 l 3.87,-21.93 c 0.55,-3.11 3.14,-5.37 6.16,-5.37 1.19,0 2.36,0.36 3.37,1.03 l 17.65,11.79 c 2.39,1.6 3.44,4.59 2.62,7.44 -0.79,2.75 -3.07,4.57 -5.82,4.65 l -1.15,0.03 1.16,2.33 c 2.29,4.59 0.95,9.75 -3.04,11.74 -0.99,0.5 -2.07,0.75 -3.2,0.75 v 0 z"
           style="fill:#e6e6e6"
           id="path3" />
        <path
           d="m 66.83,55.86 c 0.39,0 0.78,0.11 1.14,0.36 5.88,3.93 11.77,7.86 17.65,11.79 1.96,1.31 1.18,4.7 -1.09,4.77 -2.47,0.07 -4.93,0.14 -7.4,0.22 l 3.95,7.94 c 1.27,2.55 0.71,5.4 -1.24,6.37 -0.45,0.22 -0.92,0.33 -1.41,0.33 -1.66,0 -3.44,-1.21 -4.42,-3.17 l -3.93,-7.89 c -1.87,1.9 -3.74,3.8 -5.61,5.7 -0.45,0.46 -0.98,0.66 -1.49,0.66 -1.31,0 -2.54,-1.34 -2.23,-3.07 l 3.87,-21.93 c 0.22,-1.26 1.19,-2.06 2.22,-2.06 m 0,-8 c -4.96,0 -9.21,3.65 -10.1,8.67 l -3.87,21.93 c -0.56,3.17 0.28,6.37 2.31,8.78 1.96,2.34 4.81,3.68 7.8,3.68 1.71,0 3.37,-0.44 4.84,-1.26 2.48,3.67 6.48,5.96 10.62,5.96 1.75,0 3.43,-0.39 4.98,-1.17 3.17,-1.58 5.4,-4.58 6.11,-8.23 0.42,-2.16 0.28,-4.44 -0.38,-6.61 2.45,-1.28 4.35,-3.56 5.16,-6.4 1.3,-4.53 -0.4,-9.3 -4.25,-11.87 l -8.19,-5.47 -9.46,-6.31 c -1.67,-1.11 -3.6,-1.7 -5.59,-1.7 v 0 z"
           id="path4" />
      </g>
    </g>
  </g>
</svg>
