<?xml version="1.0" encoding="UTF-8"?>
<svg id="Layer_2" data-name="Layer 2" xmlns="http://www.w3.org/2000/svg" viewBox="0 0 146 108.28">
  <g id="Layer_2-2" data-name="Layer 2">
    <g>
      <g>
        <path d="m117.08,20.65c-.47-9.65-8.68-17.1-18.33-16.63-9.65.47-17.1,8.68-16.63,18.33.14,2.97,1.03,5.74,2.46,8.13-2.69.44-6.67.81-11.33.04-6.69-1.1-8.31-3.08-10.41-2.07-5.71,2.76-6.22,24.28,5.15,31.7,3.23,2.1,6.64,2.57,8.89,2.66,3.26.45,7.28.74,11.87.45,3.93-.24,7.37-.84,10.23-1.53,1.06-.05,6.7-.43,11.04-5.22,2.74-3.02,4.33-7.1,4.12-11.5h0c-.18-3.7-1.61-7.05-3.86-9.65,4.38-3.38,7.09-8.77,6.8-14.71Z" style="fill: #fbb03b; stroke: #000; stroke-miterlimit: 10; stroke-width: 8px;"/>
        <ellipse cx="101.92" cy="17.83" rx="3.49" ry="3.81" transform="translate(74.12 117.5) rotate(-84.34)"/>
        <path d="m126.27,26.26c-1.09,1.62-3.06,1.99-4.95,2.31-3.33.58-6.79,1.17-8.73-1.23-1.9-2.36-1.56-6.62.44-8.35,1.06-.92,4.73.14,12.02,2.3.37.11,1.17.36,1.63,1.1.67,1.09.34,2.76-.4,3.86Z" style="fill: #f15a24; stroke: #000; stroke-miterlimit: 10; stroke-width: 8px;"/>
      </g>
      <path d="m104.4,60.37h-37.4V21.79c0-8.52-6.91-15.43-15.43-15.43H19.43c-8.52,0-15.43,6.91-15.43,15.43v58.79c0,6.51,5.28,11.79,11.79,11.79h88.62c5.3,0,9.6-4.3,9.6-9.6v-12.81c0-5.3-4.3-9.6-9.6-9.6Z" style="fill: #333; stroke: #000; stroke-miterlimit: 10; stroke-width: 8px;"/>
      <path d="m130.15,75h-9.06v-4.88c0-4.23-3.43-7.67-7.67-7.67s-7.67,3.43-7.67,7.67v10.45h-2.09c-4.23,0-7.67,3.43-7.67,7.67s3.43,7.67,7.67,7.67h2.93c1.84,4.88,6.54,8.36,12.06,8.36h11.5c6.54,0,11.85-5.3,11.85-11.85v-5.58c0-6.54-5.3-11.85-11.85-11.85Z" style="fill: #e6e6e6; stroke: #000; stroke-miterlimit: 10; stroke-width: 8px;"/>
      <rect x="8" y="22.37" width="55" height="10" style="fill: #4d4d4d;"/>
      <rect x="8" y="54.37" width="55" height="10" style="fill: #4d4d4d;"/>
    </g>
  </g>
</svg>