<?xml version="1.0" encoding="UTF-8"?>
<svg id="Layer_2" data-name="Layer 2" xmlns="http://www.w3.org/2000/svg" viewBox="0 0 126 99.27">
  <g id="Layer_2-2" data-name="Layer 2">
    <g>
      <g>
        <path d="m110.2,35.35c-.09-9.64-7.98-17.39-17.62-17.3s-17.39,7.98-17.3,17.62c.03,2.97.8,5.76,2.13,8.2-2.7.34-6.68.54-11.3-.41-6.63-1.37-8.16-3.4-10.29-2.47-5.8,2.52-7.16,23.96,3.89,31.81,3.13,2.22,6.52,2.83,8.76,3,3.23.58,7.23,1.02,11.82.92,3.92-.09,7.38-.55,10.26-1.12,1.06,0,6.7-.17,11.21-4.77,2.85-2.91,4.6-6.9,4.56-11.3h0c-.03-3.7-1.33-7.09-3.47-9.77,4.5-3.2,7.41-8.46,7.36-14.4Z" style="fill: #fbb03b; stroke: #000; stroke-miterlimit: 10; stroke-width: 8px;"/>
        <ellipse cx="95.19" cy="31.95" rx="3.48" ry="3.8" transform="translate(50.43 121.83) rotate(-82.08)"/>
        <path d="m119.13,41.31c-1.15,1.57-3.13,1.86-5.03,2.11-3.34.44-6.82.9-8.65-1.57-1.8-2.42-1.3-6.66.76-8.3,1.1-.88,4.71.33,11.9,2.77.36.12,1.15.4,1.58,1.16.63,1.11.23,2.77-.56,3.83Z" style="fill: #f15a24; stroke: #000; stroke-miterlimit: 10; stroke-width: 8px;"/>
      </g>
      <path d="m111.18,68.55h-8.27v-4.45c0-3.87-3.13-7-7-7s-7,3.13-7,7v9.55h-1.91c-3.87,0-7,3.13-7,7s3.13,7,7,7h2.67c1.68,4.46,5.97,7.64,11.01,7.64h10.5c5.97,0,10.82-4.84,10.82-10.82v-5.09c0-5.97-4.84-10.82-10.82-10.82Z" style="fill: #e6e6e6; stroke: #000; stroke-miterlimit: 10; stroke-width: 8px;"/>
      <path d="m21.36,4h8.28c9.58,0,17.36,7.78,17.36,17.36v59.15c0,4.13-3.36,7.49-7.49,7.49H11.49c-4.13,0-7.49-3.36-7.49-7.49V21.36c0-9.58,7.78-17.36,17.36-17.36Z" style="fill: #333; stroke: #000; stroke-miterlimit: 10; stroke-width: 8px;"/>
      <path d="m54.5,26h0c9.58,0,17.36,7.78,17.36,17.36v37.15c0,4.13-3.36,7.49-7.49,7.49h-19.74c-4.13,0-7.49-3.36-7.49-7.49v-37.15c0-9.58,7.78-17.36,17.36-17.36Z" style="fill: #333; stroke: #000; stroke-miterlimit: 10; stroke-width: 8px;"/>
    </g>
  </g>
</svg>