<?xml version="1.0" encoding="UTF-8"?>
<svg id="Layer_2" data-name="Layer 2" xmlns="http://www.w3.org/2000/svg" viewBox="0 0 141.83 147.27">
  <g id="Layer_2-2" data-name="Layer 2">
    <g>
      <g>
        <g>
          <path d="m118.81,63.26c0-18.78-15.22-34-34-34s-34,15.22-34,34c0,5.79,1.45,11.23,4,16-5.26.61-13.02.93-22-1-12.88-2.78-15.84-6.77-20-5-11.34,4.81-14.37,46.53,7,62,6.06,4.39,12.65,5.62,17,6,6.28,1.18,14.07,2.12,23,2,7.64-.1,14.39-.94,20-2,2.06,0,13.05-.21,21.92-9.08,5.61-5.61,9.08-13.36,9.08-21.92h0c0-7.2-2.46-13.83-6.59-19.09,8.81-6.14,14.59-16.35,14.59-27.91Z" style="fill: #e6e6e6; stroke: #000; stroke-miterlimit: 10; stroke-width: 8px;"/>
          <ellipse cx="89.65" cy="56.36" rx="6.78" ry="7.4" transform="translate(20.73 136.76) rotate(-81.55)"/>
          <path d="m136.1,75.01c-2.27,3.03-6.13,3.56-9.83,4.02-6.52.8-13.29,1.64-16.82-3.22-3.46-4.75-2.41-12.99,1.64-16.16,2.15-1.68,9.17.72,23.11,5.61.71.25,2.23.81,3.05,2.29,1.2,2.18.39,5.4-1.15,7.46Z" style="fill: #f15a24; stroke: #000; stroke-miterlimit: 10; stroke-width: 8px;"/>
        </g>
        <g>
          <path d="m101.82,142.3c-3.23,0-6.37-2.12-8-5.39l-1.43-2.88-1.68,1.71c-1.18,1.2-2.72,1.86-4.34,1.86-1.81,0-3.54-.82-4.74-2.25-1.26-1.51-1.79-3.52-1.43-5.52l3.87-21.93c.55-3.11,3.14-5.37,6.16-5.37,1.19,0,2.36.36,3.37,1.03l17.65,11.79c2.39,1.6,3.44,4.59,2.62,7.44-.79,2.75-3.07,4.57-5.82,4.65l-1.15.03,1.16,2.33c2.29,4.59.95,9.75-3.04,11.74-.99.5-2.07.75-3.2.75h0Z" style="fill: #e6e6e6;"/>
          <path d="m90.21,106.54c.39,0,.78.11,1.14.36,5.88,3.93,11.77,7.86,17.65,11.79,1.96,1.31,1.18,4.7-1.09,4.77-2.47.07-4.93.14-7.4.21l3.95,7.94c1.27,2.55.71,5.4-1.24,6.37-.45.22-.92.33-1.41.33-1.66,0-3.44-1.21-4.42-3.17l-3.93-7.89c-1.87,1.9-3.74,3.8-5.61,5.7-.45.46-.98.66-1.49.66-1.31,0-2.54-1.34-2.23-3.07l3.87-21.93c.22-1.26,1.19-2.06,2.22-2.06m0-8c-4.96,0-9.21,3.65-10.1,8.67l-3.87,21.93c-.56,3.17.28,6.37,2.31,8.78,1.96,2.34,4.81,3.68,7.8,3.68,1.71,0,3.37-.44,4.84-1.26,2.48,3.67,6.48,5.96,10.62,5.96,1.75,0,3.43-.39,4.98-1.17,5.32-2.65,7.59-8.86,5.74-14.84,2.44-1.28,4.34-3.56,5.16-6.4,1.3-4.53-.4-9.3-4.25-11.87l-17.65-11.79c-1.67-1.11-3.6-1.7-5.59-1.7h0Z"/>
        </g>
      </g>
      <path d="m110.06,41.3h-50.85c-4.46,0-8.07-3.61-8.07-8.07V8.74c0-2.12,2.65-3.1,4.02-1.47l10.83,12.8c.92,1.09,2.6,1.07,3.5-.03,4.16-5.07,8.32-10.14,12.48-15.21.96-1.17,2.77-1.1,3.63.14,3.61,5.15,7.21,10.31,10.82,15.46.81,1.16,2.48,1.31,3.48.3,4.78-4.78,9.56-9.56,14.33-14.33,1.44-1.44,3.89-.42,3.89,1.61v25.21c0,4.46-3.61,8.07-8.07,8.07Z" style="fill: #fbb03b; stroke: #000; stroke-miterlimit: 10; stroke-width: 8px;"/>
    </g>
  </g>
</svg>