<?xml version="1.0" encoding="UTF-8"?>
<svg id="Layer_2" data-name="Layer 2" xmlns="http://www.w3.org/2000/svg" viewBox="0 0 136 122">
  <g id="Layer_2-2" data-name="Layer 2">
    <g>
      <g>
        <circle cx="61" cy="61" r="57" style="fill: #29abe2; stroke: #000; stroke-miterlimit: 10; stroke-width: 8px;"/>
        <circle cx="86" cy="75" r="11" style="fill: #8cc63f; stroke: #000; stroke-miterlimit: 10; stroke-width: 8px;"/>
        <path d="m20.16,23.25c1.64,16.7,15.71,29.75,32.84,29.75,18.23,0,33-14.77,33-33,0-3.04-.42-5.99-1.19-8.79-7.25-3.34-15.31-5.21-23.81-5.21-16.02,0-30.48,6.62-40.84,17.25Z" style="fill: #8cc63f; stroke: #000; stroke-miterlimit: 10; stroke-width: 8px;"/>
        <path d="m22,66c-5.87,0-11.41,1.41-16.3,3.91,3.89,24.81,23.8,44.3,48.8,47.59,2.24-4.69,3.5-9.95,3.5-15.49,0-19.88-16.12-36-36-36Z" style="fill: #8cc63f; stroke: #000; stroke-miterlimit: 10; stroke-width: 8px;"/>
      </g>
      <g>
        <path d="m85.19,46.32c-.53-10.83-9.74-19.19-20.57-18.66-10.83.53-19.19,9.74-18.66,20.57.16,3.34,1.15,6.44,2.76,9.12-3.02.5-7.49.91-12.72.04-7.51-1.24-9.33-3.46-11.68-2.32-6.41,3.09-6.98,27.25,5.78,35.57,3.62,2.36,7.45,2.89,9.98,2.98,3.66.51,8.17.83,13.33.51,4.41-.27,8.27-.95,11.48-1.72,1.19-.06,7.52-.49,12.39-5.85,3.08-3.39,4.86-7.96,4.62-12.9h0c-.2-4.16-1.81-7.91-4.34-10.83,4.91-3.79,7.96-9.84,7.63-16.51Z" style="fill: #fbb03b; stroke: #000; stroke-miterlimit: 10; stroke-width: 8px;"/>
        <ellipse cx="68.17" cy="43.16" rx="3.92" ry="4.28" transform="translate(18.51 106.74) rotate(-84.34)"/>
        <path d="m95.5,52.61c-1.22,1.81-3.44,2.23-5.56,2.59-3.74.65-7.62,1.32-9.8-1.38-2.13-2.64-1.75-7.43.49-9.37,1.19-1.03,5.31.16,13.49,2.59.41.12,1.31.4,1.83,1.24.76,1.22.38,3.1-.45,4.33Z" style="fill: #f15a24; stroke: #000; stroke-miterlimit: 10; stroke-width: 8px;"/>
      </g>
      <path d="m120.15,88.64h-9.06v-4.88c0-4.23-3.43-7.67-7.67-7.67s-7.67,3.43-7.67,7.67v10.45h-2.09c-4.23,0-7.67,3.43-7.67,7.67s3.43,7.67,7.67,7.67h2.93c1.84,4.88,6.54,8.36,12.06,8.36h11.5c6.54,0,11.85-5.3,11.85-11.85v-5.58c0-6.54-5.3-11.85-11.85-11.85Z" style="fill: #e6e6e6; stroke: #000; stroke-miterlimit: 10; stroke-width: 8px;"/>
    </g>
  </g>
</svg>