<?xml version="1.0" encoding="UTF-8"?>
<svg id="Layer_2" data-name="Layer 2" xmlns="http://www.w3.org/2000/svg" viewBox="0 0 135.83 122.02">
  <g id="Layer_2-2" data-name="Layer 2">
    <g>
      <path d="m131.25,43.3c-.82-1.49-2.35-2.05-3.05-2.29-3.58-1.25-6.69-2.34-9.4-3.24-.13-18.67-15.3-33.76-33.99-33.76s-34,15.22-34,34c0,5.79,1.45,11.23,4,16-5.26.61-13.02.93-22-1-12.88-2.78-15.84-6.77-20-5-11.34,4.81-14.37,46.53,7,62,6.06,4.39,12.65,5.62,17,6,6.28,1.18,14.07,2.12,23,2,7.64-.1,14.39-.94,20-2,2.06,0,13.05-.21,21.92-9.08,5.61-5.61,9.08-13.36,9.08-21.92h0c0-7.2-2.46-13.83-6.59-19.09,3.97-2.77,7.32-6.37,9.81-10.54,2.03-.07,4.15-.33,6.25-.59,3.69-.45,7.56-.99,9.83-4.02,1.54-2.06,2.36-5.28,1.15-7.46Z" style="fill: #29abe2; stroke: #000; stroke-miterlimit: 10; stroke-width: 8px;"/>
      <path d="m45.13,63.04c0-2.32-.31-4.58-.88-6.72-2.94-.2-6.1-.6-9.44-1.32-12.88-2.78-15.84-6.77-20-5-6.97,2.96-10.79,19.88-7.74,36.08,3.61,1.89,7.71,2.97,12.06,2.97,14.36,0,26-11.64,26-26Z" style="fill: #8cc63f; stroke: #000; stroke-miterlimit: 10; stroke-width: 8px;"/>
      <circle cx="75.13" cy="91.04" r="15" style="fill: #8cc63f; stroke: #000; stroke-miterlimit: 10; stroke-width: 8px;"/>
      <path d="m127.2,41.01c-3.58-1.25-6.69-2.34-9.4-3.24-.13-18.67-15.3-33.76-33.99-33.76-1.74,0-3.45.13-5.12.38-2.28,4.91-3.56,10.39-3.56,16.16,0,20.24,15.62,36.81,35.45,38.37.88-1.13,1.7-2.31,2.44-3.55,2.03-.07,4.15-.33,6.25-.59,3.69-.45,7.56-.99,9.83-4.02,1.54-2.06,2.36-5.28,1.15-7.46-.82-1.49-2.35-2.05-3.05-2.29Z" style="fill: #8cc63f; stroke: #000; stroke-miterlimit: 10; stroke-width: 8px;"/>
      <path d="m111.97,88.74h-9.06v-4.88c0-4.23-3.43-7.67-7.67-7.67s-7.67,3.43-7.67,7.67v10.45h-2.09c-4.23,0-7.67,3.43-7.67,7.67s3.43,7.67,7.67,7.67h2.93c1.84,4.88,6.54,8.36,12.06,8.36h11.5c6.54,0,11.85-5.3,11.85-11.85v-5.58c0-6.54-5.3-11.85-11.85-11.85Z" style="fill: #e6e6e6; stroke: #000; stroke-miterlimit: 10; stroke-width: 8px;"/>
    </g>
  </g>
</svg>