<?xml version="1.0" encoding="UTF-8" standalone="no"?>
<svg
   id="Layer_2"
   data-name="Layer 2"
   viewBox="0 0 140 140"
   version="1.1"
   sodipodi:docname="2.svg"
   inkscape:version="1.3.2 (091e20e, 2023-11-25, custom)"
   width="140"
   height="140"
   xmlns:inkscape="http://www.inkscape.org/namespaces/inkscape"
   xmlns:sodipodi="http://sodipodi.sourceforge.net/DTD/sodipodi-0.dtd"
   xmlns="http://www.w3.org/2000/svg"
   xmlns:svg="http://www.w3.org/2000/svg">
  <defs
     id="defs5" />
  <sodipodi:namedview
     id="namedview5"
     pagecolor="#ffffff"
     bordercolor="#000000"
     borderopacity="0.25"
     inkscape:showpageshadow="2"
     inkscape:pageopacity="0.0"
     inkscape:pagecheckerboard="0"
     inkscape:deskcolor="#d1d1d1"
     inkscape:zoom="2.3359778"
     inkscape:cx="22.902615"
     inkscape:cy="52.440568"
     inkscape:window-width="1920"
     inkscape:window-height="991"
     inkscape:window-x="-9"
     inkscape:window-y="-9"
     inkscape:window-maximized="1"
     inkscape:current-layer="g2" />
  <g
     id="Layer_2-2"
     data-name="Layer 2">
    <g
       id="g5">
      <g
         id="g2">
        <path
           d="m 122.86094,51.708518 c 0,-12.85 -10.41,-23.26 -23.259994,-23.26 -12.85,0 -23.26,10.41 -23.26,23.26 0,3.96 0.99,7.68 2.74,10.95 -3.6,0.42 -8.91,0.64 -15.05,-0.68 -8.81,-1.9 -10.83,-4.63 -13.68,-3.42 -7.76,3.29 -9.83,31.83 4.79,42.420002 4.15,3 8.65,3.85 11.63,4.1 4.3,0.81 9.62,1.45 15.74,1.37 5.23,-0.07 9.84,-0.64 13.68,-1.37 1.41,0 8.929994,-0.14 14.999994,-6.210002 3.84,-3.84 6.21,-9.14 6.21,-15 v 0 c 0,-4.93 -1.69,-9.46 -4.51,-13.06 6.03,-4.2 9.98,-11.18 9.98,-19.09 z"
           style="fill:#fbb03b;stroke:#000000;stroke-width:8px;stroke-miterlimit:10"
           id="path1" />
        <ellipse
           cx="-31.362644"
           cy="108.69128"
           rx="4.6399999"
           ry="5.0700002"
           transform="rotate(-81.55)"
           id="ellipse1" />
        <path
           d="m 134.69094,59.748518 c -1.55,2.07 -4.2,2.44 -6.72,2.75 -4.46,0.55 -9.09,1.12 -11.51,-2.2 -2.37,-3.25 -1.65,-8.89 1.12,-11.05 1.47,-1.15 6.27,0.5 15.81,3.84 0.48,0.17 1.53,0.55 2.09,1.57 0.82,1.49 0.27,3.68 -0.79,5.09 z"
           style="fill:#f15a24;stroke:#000000;stroke-width:8px;stroke-miterlimit:10"
           id="path2"
           sodipodi:nodetypes="cccccccc" />
      </g>
      <g
         id="g4"
         transform="translate(0.55094522,23.208518)">
        <path
           d="M 78.6,23.81 C 76.69,11.11 64.85,2.35 52.14,4.26 39.43,6.17 30.68,18.01 32.59,30.72 c 0.59,3.91 2.12,7.45 4.33,10.42 -3.49,0.95 -8.71,1.96 -14.98,1.56 -9,-0.57 -11.4,-2.97 -14.04,-1.35 -7.18,4.41 -4.99,32.94 11.04,41.24 4.55,2.35 9.13,2.52 12.11,2.33 4.37,0.16 9.73,0 15.76,-0.98 5.16,-0.84 9.64,-2.1 13.33,-3.39 1.4,-0.21 8.81,-1.47 13.91,-8.37 3.23,-4.37 4.79,-9.96 3.92,-15.75 v 0 C 77.24,51.56 74.9,47.32 71.57,44.18 76.91,39.13 79.78,31.64 78.6,23.82 Z"
           style="fill:#fbb03b;stroke:#000000;stroke-width:8px;stroke-miterlimit:10"
           id="path3" />
        <ellipse
           cx="58.169998"
           cy="22.110001"
           rx="5.0700002"
           ry="4.6399999"
           transform="rotate(-0.1,57.275765,22.968306)"
           id="ellipse3" />
        <path
           d="m 91.5,30 c -1.23,2.28 -3.79,3.03 -6.24,3.72 -4.33,1.21 -8.82,2.46 -11.71,-0.47 -2.82,-2.86 -2.95,-8.55 -0.54,-11.1 1.28,-1.36 6.28,-0.44 16.21,1.45 0.5,0.1 1.59,0.32 2.3,1.24 1.04,1.35 0.81,3.61 -0.02,5.16 z"
           style="fill:#f15a24;stroke:#000000;stroke-width:8px;stroke-miterlimit:10"
           id="path4" />
      </g>
      <path
         d="m 116.60094,88.018518 h -8.27 v -4.45 c 0,-3.87 -3.13,-7 -7,-7 -3.869994,0 -6.999994,3.13 -6.999994,7 v 9.55 h -1.91 c -3.87,0 -7,3.13 -7,7.000002 0,3.87 3.13,7 7,7 h 2.67 c 1.68,4.46 5.969994,7.64 11.009994,7.64 h 10.5 c 5.97,0 10.82,-4.84 10.82,-10.82 v -5.090002 c 0,-5.97 -4.84,-10.82 -10.82,-10.82 z"
         style="fill:#e6e6e6;stroke:#000000;stroke-width:8px;stroke-miterlimit:10"
         id="path5" />
    </g>
  </g>
</svg>
