<?xml version="1.0" encoding="UTF-8"?>
<svg id="Layer_2" data-name="Layer 2" xmlns="http://www.w3.org/2000/svg" viewBox="0 0 196.54 159.82">
  <g id="Layer_2-2" data-name="Layer 2">
    <g>
      <path d="m173.96,150.93c-6.04,6.03-20.21-8.8-43.3-5.65-14.92,2.04-14.58,8.99-28.24,10.36-17.92,1.8-21.26-9.88-48.01-16-21.45-4.91-33.23-.58-37.66-8.47-3.29-5.87,2.41-9.68,2.82-21.65.77-22.66-18.94-30.23-15.06-46.13,2.79-11.46,13.96-11.33,16.95-24.48,2.78-12.28-8.51-18.66-4.71-26.36C21.38,3.14,41.04,3.95,44.04,4.07c13.75.56,16.01,6.04,29.18,6.59,13.57.57,14.58-5.1,27.3-5.65,18.64-.81,20.93,11.17,43.3,15.06,21.9,3.81,34.51-5.1,39.54,1.88,4.3,5.96-4.86,12.55-4.71,28.24.21,20.96,17.5,27.24,13.18,41.42-3.71,12.16-15.21,11.18-19.77,24.48-5.56,16.21,7.61,29.11,1.88,34.83Z" style="fill: #1a1a1a; stroke: #000; stroke-miterlimit: 10; stroke-width: 8px;"/>
      <circle cx="59.04" cy="91.96" r="30.5" style="fill: #333;"/>
      <circle cx="119.04" cy="64.96" r="14.5" style="fill: #333;"/>
      <circle cx="138.04" cy="119.96" r="6.5" style="fill: #333;"/>
      <circle cx="56.04" cy="30.96" r="14.5" style="fill: #333;"/>
      <circle cx="48.04" cy="83.96" r="17.5" style="fill: #006837; stroke: #000; stroke-miterlimit: 10; stroke-width: 8px;"/>
      <circle cx="119.04" cy="125.96" r="7.5" style="fill: #f15a24; stroke: #000; stroke-miterlimit: 10; stroke-width: 8px;"/>
      <circle cx="41.04" cy="120.96" r="6.5" style="fill: #e6e6e6; stroke: #000; stroke-miterlimit: 10; stroke-width: 8px;"/>
      <path d="m97.64,42.11c-.48-.87-1.23-1.13-1.58-1.25-1.92-.63-3.56-1.17-4.97-1.59-1.78-7.9-9.19-13.42-17.45-12.61-8.94.88-15.48,8.84-14.6,17.78.27,2.75,1.22,5.28,2.65,7.43-2.47.54-6.16,1.05-10.52.55-6.26-.72-7.86-2.48-9.76-1.44-5.17,2.82-4.66,22.83,6.24,29.19,3.09,1.8,6.28,2.08,8.38,2.06,3.05.27,6.8.35,11.05-.13,3.63-.4,6.81-1.12,9.43-1.89.98-.1,6.2-.71,10.01-5.35,2.41-2.93,3.7-6.79,3.3-10.86-.34-3.43-1.82-6.47-4.03-8.78,1.57-1.34,2.87-2.98,3.84-4.81,1.11-.12,2.28-.44,3.43-.75,1.73-.47,3.55-.99,4.46-2.96.62-1.34.83-3.35.13-4.61Z" style="fill: #f7931e; stroke: #000; stroke-miterlimit: 10; stroke-width: 8px;"/>
      <path d="m155.25,103.3c.56-.53.61-1.15.63-1.43.1-1.57.18-2.91.23-4.05,5.6-2.87,8.31-9.53,6.09-15.59-2.4-6.56-9.67-9.92-16.23-7.52-2.02.74-3.74,1.94-5.08,3.44-.89-1.76-1.99-4.43-2.47-7.81-.68-4.85.34-6.4-.81-7.62-3.13-3.34-18.09.94-20.75,10.38-.76,2.68-.34,5.14.08,6.7.39,2.34,1.06,5.18,2.25,8.29,1.01,2.66,2.17,4.9,3.26,6.73.26.72,1.74,4.53,5.98,6.49,2.68,1.24,5.83,1.46,8.82.36,2.52-.92,4.51-2.63,5.82-4.74,1.32.92,2.8,1.58,4.37,1.95.31.81.77,1.63,1.23,2.43.69,1.21,1.44,2.48,3.09,2.78,1.13.21,2.68-.03,3.5-.8Z" style="fill: #f7931e; stroke: #000; stroke-miterlimit: 10; stroke-width: 8px;"/>
      <path d="m72.66,127.72c.43.47.94.52,1.18.54,1.29.1,2.4.19,3.34.24,2.3,4.65,7.75,6.97,12.78,5.22,5.44-1.9,8.31-7.85,6.41-13.29-.59-1.68-1.56-3.11-2.78-4.23,1.46-.71,3.68-1.59,6.47-1.94,4.01-.5,5.27.36,6.3-.57,2.8-2.54-.55-14.93-8.3-17.25-2.2-.66-4.23-.35-5.53-.02-1.94.29-4.29.81-6.87,1.75-2.2.8-4.07,1.73-5.59,2.6-.6.21-3.76,1.38-5.43,4.85-1.06,2.19-1.28,4.79-.41,7.27.73,2.09,2.11,3.76,3.84,4.86-.78,1.07-1.34,2.29-1.67,3.58-.67.25-1.35.62-2.02.98-1.01.55-2.06,1.15-2.33,2.52-.18.93-.01,2.21.62,2.89Z" style="fill: #f7931e; stroke: #000; stroke-miterlimit: 10; stroke-width: 8px;"/>
      <circle cx="154.04" cy="42.96" r="11.5" style="fill: #2e3192; stroke: #000; stroke-miterlimit: 10; stroke-width: 8px;"/>
      <circle cx="125.04" cy="30.96" r="6.5" style="fill: #e6e6e6; stroke: #000; stroke-miterlimit: 10; stroke-width: 8px;"/>
      <circle cx="38.04" cy="21.96" r="6.5" style="fill: #f7931e; stroke: #000; stroke-miterlimit: 10; stroke-width: 8px;"/>
      <path d="m155.2,123.91h-9.06v-4.88c0-4.23-3.43-7.67-7.67-7.67s-7.67,3.43-7.67,7.67v10.45h-2.09c-4.23,0-7.67,3.43-7.67,7.67s3.43,7.67,7.67,7.67h2.93c1.84,4.88,6.54,8.36,12.06,8.36h11.5c6.54,0,11.85-5.3,11.85-11.85v-5.58c0-6.54-5.3-11.85-11.85-11.85Z" style="fill: #e6e6e6; stroke: #000; stroke-miterlimit: 10; stroke-width: 8px;"/>
    </g>
  </g>
</svg>