<?xml version="1.0" encoding="UTF-8"?>
<svg id="Layer_2" data-name="Layer 2" xmlns="http://www.w3.org/2000/svg" viewBox="0 0 135.83 125.47">
  <g id="Layer_2-2" data-name="Layer 2">
    <path d="m131.25,43.3c-.82-1.49-2.35-2.05-3.05-2.29-3.58-1.25-6.69-2.34-9.4-3.24-.13-18.67-15.3-33.76-33.99-33.76s-34,15.22-34,34c0,5.79,1.45,11.23,4,16-5.26.61-13.02.93-22-1-12.88-2.78-15.84-6.77-20-5-11.34,4.81-14.37,46.53,7,62,6.06,4.39,12.65,5.62,17,6,6.28,1.18,14.07,2.12,23,2,7.64-.1,14.39-.94,20-2,2.06,0,13.05-.21,21.92-9.08,5.61-5.61,9.08-13.36,9.08-21.92h0c0-7.2-2.46-13.83-6.59-19.09,3.97-2.77,7.32-6.37,9.81-10.54,2.03-.07,4.15-.33,6.25-.59,3.69-.45,7.56-.99,9.83-4.02,1.54-2.06,2.36-5.28,1.15-7.46Z" style="fill: #1a1a1a; stroke: #000; stroke-miterlimit: 10; stroke-width: 8px;"/>
    <path d="m88.13,43.04c0,16.02-12.98,29-29,29-12.14,0-22.54-4.46-26.85-15.05,1.29.36,2.71.71,4.27,1.05,8.98,1.93,18.74-.4,24-1-2.55-4.77-6-11.22-6-17,0-10.01,4.32-19.01,11.21-25.23,12.82,2.99,22.37,14.49,22.37,28.23Z" style="fill: #333;"/>
    <circle cx="81.63" cy="80.54" r="12.5" style="fill: #f7931e; stroke: #000; stroke-miterlimit: 10; stroke-width: 8px;"/>
    <path d="m51.92,35.39c2.8,4.02,7.45,6.65,12.71,6.65,8.56,0,15.5-6.94,15.5-15.5s-6.71-15.24-15.06-15.48c-7.42,5.72-12.4,14.43-13.15,24.33Z" style="fill: #f15a24; stroke: #000; stroke-miterlimit: 10; stroke-width: 8px;"/>
    <path d="m39.13,98.04c0,5.49-2.46,10.41-6.34,13.71-3.18-.89-6.66-2.35-9.98-4.75-7.2-5.21-11.63-13.4-13.9-22.16,3.21-2.98,7.5-4.8,12.22-4.8,9.94,0,18,8.06,18,18Z" style="fill: #333;"/>
    <circle cx="25.63" cy="81.54" r="6.5" style="fill: #e6e6e6; stroke: #000; stroke-miterlimit: 10; stroke-width: 8px;"/>
    <g>
      <path d="m102.34,121.48c-3.23,0-6.37-2.12-8-5.39l-1.43-2.88-1.68,1.71c-1.18,1.2-2.72,1.86-4.34,1.86-1.81,0-3.54-.82-4.74-2.25-1.27-1.51-1.79-3.52-1.44-5.52l3.87-21.93c.55-3.11,3.14-5.37,6.16-5.37,1.19,0,2.35.36,3.36,1.03l17.65,11.79c2.39,1.6,3.44,4.59,2.62,7.44-.79,2.75-3.07,4.57-5.82,4.65l-1.15.03,1.16,2.34c1,2.02,1.34,4.26.93,6.32-.47,2.42-1.92,4.39-3.97,5.41-.99.5-2.07.75-3.2.75h0Z" style="fill: #e6e6e6;"/>
      <path d="m90.73,85.72c.39,0,.78.11,1.14.36,5.88,3.93,11.77,7.86,17.65,11.79,1.96,1.31,1.18,4.7-1.09,4.77-2.47.07-4.93.14-7.4.21l3.95,7.94c1.27,2.55.71,5.4-1.24,6.37-.45.22-.92.33-1.41.33-1.66,0-3.44-1.21-4.42-3.17l-3.93-7.89c-1.87,1.9-3.74,3.8-5.61,5.7-.45.46-.98.66-1.49.66-1.31,0-2.54-1.34-2.23-3.07l3.87-21.93c.22-1.26,1.19-2.06,2.22-2.06m0-8c-4.96,0-9.21,3.65-10.1,8.67l-3.87,21.93c-.56,3.17.28,6.37,2.31,8.78,1.96,2.34,4.81,3.68,7.8,3.68,1.71,0,3.37-.44,4.84-1.26,2.48,3.67,6.48,5.96,10.62,5.96,1.75,0,3.43-.39,4.98-1.17,5.32-2.65,7.59-8.86,5.74-14.84,2.44-1.28,4.34-3.56,5.16-6.4,1.3-4.53-.4-9.3-4.25-11.87l-8.5-5.67-9.15-6.11c-1.67-1.11-3.6-1.7-5.59-1.7h0Z"/>
    </g>
    <path d="m40.94,98.14c-7.37-1.15-14.27,3.89-15.42,11.26-.13.84-.17,1.68-.15,2.5,4.73,1.38,10.1,2.63,16.09,3.49,3.5.5,6.83.81,9.97.98.34-.89.61-1.82.76-2.81,1.15-7.37-3.89-14.27-11.26-15.42Z" style="fill: #009245; stroke: #000; stroke-miterlimit: 10; stroke-width: 8px;"/>
  </g>
</svg>