<?xml version="1.0" encoding="UTF-8" standalone="no"?>
<svg
   id="Layer_2"
   data-name="Layer 2"
   viewBox="0 0 196.54 159.82"
   version="1.1"
   sodipodi:docname="22.svg"
   inkscape:version="1.3.2 (091e20e, 2023-11-25, custom)"
   xmlns:inkscape="http://www.inkscape.org/namespaces/inkscape"
   xmlns:sodipodi="http://sodipodi.sourceforge.net/DTD/sodipodi-0.dtd"
   xmlns="http://www.w3.org/2000/svg"
   xmlns:svg="http://www.w3.org/2000/svg">
  <defs
     id="defs10" />
  <sodipodi:namedview
     id="namedview10"
     pagecolor="#ffffff"
     bordercolor="#000000"
     borderopacity="0.25"
     inkscape:showpageshadow="2"
     inkscape:pageopacity="0.0"
     inkscape:pagecheckerboard="0"
     inkscape:deskcolor="#d1d1d1"
     inkscape:zoom="3.3279424"
     inkscape:cx="81.581941"
     inkscape:cy="59.045493"
     inkscape:window-width="1920"
     inkscape:window-height="991"
     inkscape:window-x="-9"
     inkscape:window-y="-9"
     inkscape:window-maximized="1"
     inkscape:current-layer="g10" />
  <g
     id="Layer_2-2"
     data-name="Layer 2">
    <g
       id="g10">
      <path
         d="m 173.94,150.92 c -6.04,6.03 -20.19,-8.79 -43.28,-5.64 -14.92,2.04 -14.58,8.99 -28.24,10.36 -17.92,1.8 -21.26,-9.88 -48.01,-16 -21.45,-4.91 -33.23,-0.58 -37.66,-8.47 -3.29,-5.87 2.41,-9.68 2.82,-21.65 C 20.34,86.86 0.63,79.29 4.51,63.39 7.3,51.93 18.47,52.06 21.46,38.91 24.24,26.63 12.95,20.25 16.75,12.55 21.38,3.14 41.04,3.95 44.04,4.07 c 13.75,0.56 16.01,6.04 29.18,6.59 13.57,0.57 14.58,-5.1 27.3,-5.65 18.64,-0.81 20.93,11.17 43.3,15.06 21.9,3.81 34.51,-5.1 39.54,1.88 4.3,5.96 -4.86,12.55 -4.71,28.24 0.21,20.96 17.5,27.24 13.18,41.42 -3.71,12.16 -15.21,11.18 -19.77,24.48 -5.56,16.21 7.61,29.11 1.88,34.83 z"
         style="fill:#1a1a1a;stroke:#000000;stroke-width:8px;stroke-miterlimit:10"
         id="path1"
         sodipodi:nodetypes="ccccccccccccccccccc" />
      <circle
         cx="57.04"
         cy="97.96"
         r="30.5"
         style="fill: #333;"
         id="circle1" />
      <circle
         cx="154.04"
         cy="95.96"
         r="14.5"
         style="fill: #333;"
         id="circle2" />
      <circle
         cx="138.04"
         cy="119.96"
         r="6.5"
         style="fill: #333;"
         id="circle3" />
      <circle
         cx="107.04"
         cy="29.96"
         r="14.5"
         style="fill: #333;"
         id="circle4" />
      <circle
         cx="79.04"
         cy="47.96"
         r="17.5"
         style="fill: #006837; stroke: #000; stroke-miterlimit: 10; stroke-width: 8px;"
         id="circle5" />
      <circle
         cx="98.04"
         cy="133.96"
         r="16.5"
         style="fill: #f15a24; stroke: #000; stroke-miterlimit: 10; stroke-width: 8px;"
         id="circle6" />
      <path
         d="m 45,137.44 c 0.35,-1.1 0.54,-2.26 0.54,-3.48 0,-6.35 -5.15,-11.5 -11.5,-11.5 -6.35,0 -11.19,4.86 -11.47,10.95 4.01,3.51 11.27,2.87 22.43,4.03 z"
         style="fill:#2e3192;stroke:#000000;stroke-width:8px;stroke-miterlimit:10"
         id="path6"
         sodipodi:nodetypes="cssccc" />
      <circle
         cx="46.13"
         cy="32.47"
         r="6.5"
         style="fill: #e6e6e6; stroke: #000; stroke-miterlimit: 10; stroke-width: 8px;"
         id="circle7" />
      <circle
         cx="20.04"
         cy="73.96"
         r="6.5"
         style="fill: #f7931e; stroke: #000; stroke-miterlimit: 10; stroke-width: 8px;"
         id="circle8" />
      <circle
         cx="170.04"
         cy="81.96"
         r="6.5"
         style="fill: #f7931e; stroke: #000; stroke-miterlimit: 10; stroke-width: 8px;"
         id="circle9" />
      <path
         d="m166.39,38.57c-1.09-1.82-2.73-2.33-3.5-2.54-4.16-1.2-7.73-2.22-10.78-3.02-4.43-16.79-20.76-28.04-38.41-25.64-19.1,2.6-32.48,20.18-29.88,39.28.8,5.88,3.03,11.22,6.28,15.72-5.26,1.35-13.11,2.75-22.51,2.02-13.49-1.04-17.04-4.69-21.03-2.32-10.87,6.46-8.18,49.32,15.69,62.1,6.77,3.62,13.64,3.97,18.12,3.75,6.55.34,14.6.21,23.67-1.14,7.76-1.16,14.5-2.95,20.07-4.8,2.1-.29,13.24-2.01,21.04-12.26,4.93-6.48,7.39-14.84,6.21-23.55-1-7.33-4.42-13.73-9.34-18.51,3.27-3,5.93-6.62,7.85-10.62,2.37-.35,4.85-1.12,7.28-1.87,3.68-1.14,7.53-2.4,9.33-6.69,1.22-2.91,1.51-7.24-.08-9.9Z"
         style="fill: #f7931e; stroke: #000; stroke-miterlimit: 10; stroke-width: 8px;"
         id="path9" />
      <path
         d="m155.2,123.91h-9.06v-4.88c0-4.23-3.43-7.67-7.67-7.67s-7.67,3.43-7.67,7.67v10.45h-2.09c-4.23,0-7.67,3.43-7.67,7.67s3.43,7.67,7.67,7.67h2.93c1.84,4.88,6.54,8.36,12.06,8.36h11.5c6.54,0,11.85-5.3,11.85-11.85v-5.58c0-6.54-5.3-11.85-11.85-11.85Z"
         style="fill: #e6e6e6; stroke: #000; stroke-miterlimit: 10; stroke-width: 8px;"
         id="path10" />
    </g>
  </g>
</svg>
