<?xml version="1.0" encoding="UTF-8" standalone="no"?>
<svg
   id="Layer_2"
   data-name="Layer 2"
   viewBox="0 0 141.83 122.01"
   version="1.1"
   sodipodi:docname="3.svg"
   inkscape:version="1.3.2 (091e20e, 2023-11-25, custom)"
   xmlns:inkscape="http://www.inkscape.org/namespaces/inkscape"
   xmlns:sodipodi="http://sodipodi.sourceforge.net/DTD/sodipodi-0.dtd"
   xmlns="http://www.w3.org/2000/svg"
   xmlns:svg="http://www.w3.org/2000/svg">
  <defs
     id="defs6" />
  <sodipodi:namedview
     id="namedview6"
     pagecolor="#ffffff"
     bordercolor="#000000"
     borderopacity="0.25"
     inkscape:showpageshadow="2"
     inkscape:pageopacity="0.0"
     inkscape:pagecheckerboard="0"
     inkscape:deskcolor="#d1d1d1"
     inkscape:zoom="12.736661"
     inkscape:cx="117.57399"
     inkscape:cy="55.548312"
     inkscape:window-width="1920"
     inkscape:window-height="991"
     inkscape:window-x="-9"
     inkscape:window-y="-9"
     inkscape:window-maximized="1"
     inkscape:current-layer="g2" />
  <g
     id="Layer_2-2"
     data-name="Layer 2">
    <g
       id="g6">
      <g
         id="g2">
        <path
           d="m118.81,38c0-18.78-15.22-34-34-34s-34,15.22-34,34c0,5.79,1.45,11.23,4,16-5.26.61-13.02.93-22-1-12.88-2.78-15.84-6.77-20-5-11.34,4.81-14.37,46.53,7,62,6.06,4.39,12.65,5.62,17,6,6.28,1.18,14.07,2.12,23,2,7.64-.1,14.39-.94,20-2,2.06,0,13.05-.21,21.92-9.08,5.61-5.61,9.08-13.36,9.08-21.92h0c0-7.2-2.46-13.83-6.59-19.09,8.81-6.14,14.59-16.35,14.59-27.91Z"
           style="fill: #fbb03b; stroke: #000; stroke-miterlimit: 10; stroke-width: 8px;"
           id="path1" />
        <ellipse
           cx="89.65"
           cy="31.1"
           rx="6.78"
           ry="7.4"
           transform="translate(45.71 115.21) rotate(-81.55)"
           id="ellipse1" />
        <path
           d="m 136.1,49.76 c -2.27,3.03 -6.13,3.56 -9.83,4.02 -6.52,0.8 -13.29,1.64 -16.82,-3.22 -3.46,-4.75 -2.41,-12.99 1.64,-16.16 2.15,-1.68 8.55931,0.331378 22.49931,5.221378 0.71,0.25 3.06276,1.559485 3.88276,3.039485 1.2,2.18 0.16793,5.039137 -1.37207,7.099137 z"
           style="fill:#f15a24;stroke:#000000;stroke-width:8px;stroke-miterlimit:10"
           id="path2"
           sodipodi:nodetypes="ccccccc" />
      </g>
      <g
         id="g4">
        <path
           d="m101.82,117.04c-3.23,0-6.37-2.12-8-5.39l-1.43-2.88-1.68,1.71c-1.18,1.2-2.72,1.86-4.34,1.86-1.81,0-3.54-.82-4.74-2.25-1.26-1.51-1.79-3.52-1.43-5.52l3.87-21.93c.55-3.11,3.14-5.37,6.16-5.37,1.19,0,2.36.36,3.37,1.03l17.65,11.79c2.39,1.6,3.44,4.59,2.62,7.44-.79,2.75-3.07,4.57-5.82,4.65l-1.15.03,1.16,2.33c2.29,4.59.95,9.75-3.04,11.74-.99.5-2.07.75-3.2.75h0Z"
           style="fill: #e6e6e6;"
           id="path3" />
        <path
           d="m90.21,81.28c.39,0,.78.11,1.14.36,5.88,3.93,11.77,7.86,17.65,11.79,1.96,1.31,1.18,4.7-1.09,4.77-2.47.07-4.93.14-7.4.22l3.95,7.94c1.27,2.55.71,5.4-1.24,6.37-.45.22-.92.33-1.41.33-1.66,0-3.44-1.21-4.42-3.17l-3.93-7.89c-1.87,1.9-3.74,3.8-5.61,5.7-.45.46-.98.66-1.49.66-1.31,0-2.54-1.34-2.23-3.07l3.87-21.93c.22-1.26,1.19-2.06,2.22-2.06m0-8c-4.96,0-9.21,3.65-10.1,8.67l-3.87,21.93c-.56,3.17.28,6.37,2.31,8.78,1.96,2.34,4.81,3.68,7.8,3.68,1.71,0,3.37-.44,4.84-1.26,2.48,3.67,6.48,5.96,10.62,5.96,1.75,0,3.43-.39,4.98-1.17,3.17-1.58,5.4-4.58,6.11-8.23.42-2.16.28-4.44-.38-6.61,2.45-1.28,4.35-3.56,5.16-6.4,1.3-4.53-.4-9.3-4.25-11.87l-8.19-5.47-9.46-6.31c-1.67-1.11-3.6-1.7-5.59-1.7h0Z"
           id="path4" />
      </g>
      <circle
         cx="89.77"
         cy="49.56"
         r="4.36"
         style="fill: #f7931e;"
         id="circle4" />
      <circle
         cx="74.5"
         cy="42.41"
         r="4.36"
         style="fill: #f7931e;"
         id="circle5" />
      <circle
         cx="79.1"
         cy="57.68"
         r="4.36"
         style="fill: #f7931e;"
         id="circle6" />
    </g>
  </g>
</svg>
