<?xml version="1.0" encoding="UTF-8" standalone="no"?>
<svg
   id="Layer_2"
   data-name="Layer 2"
   viewBox="0 0 140 140"
   version="1.1"
   sodipodi:docname="4.svg"
   width="140"
   height="140"
   inkscape:version="1.3.2 (091e20e, 2023-11-25, custom)"
   xmlns:inkscape="http://www.inkscape.org/namespaces/inkscape"
   xmlns:sodipodi="http://sodipodi.sourceforge.net/DTD/sodipodi-0.dtd"
   xmlns="http://www.w3.org/2000/svg"
   xmlns:svg="http://www.w3.org/2000/svg">
  <defs
     id="defs3" />
  <sodipodi:namedview
     id="namedview3"
     pagecolor="#ffffff"
     bordercolor="#000000"
     borderopacity="0.25"
     inkscape:showpageshadow="2"
     inkscape:pageopacity="0.0"
     inkscape:pagecheckerboard="0"
     inkscape:deskcolor="#d1d1d1"
     inkscape:zoom="2.4120729"
     inkscape:cx="6.8405892"
     inkscape:cy="78.148549"
     inkscape:window-width="1920"
     inkscape:window-height="991"
     inkscape:window-x="-9"
     inkscape:window-y="-9"
     inkscape:window-maximized="1"
     inkscape:current-layer="Layer_2" />
  <g
     id="Layer_2-2"
     data-name="Layer 2"
     transform="translate(13,13.047255)">
    <g
       id="g3">
      <ellipse
         cx="57"
         cy="76.120003"
         rx="53"
         ry="24.5"
         style="fill:#29abe2;stroke:#000000;stroke-width:8px;stroke-miterlimit:10"
         id="ellipse1" />
      <g
         id="g2">
        <path
           d="M 81.21,21.72 C 80.15,10.93 70.54,3.04 59.74,4.1 48.94,5.16 41.06,14.77 42.12,25.57 c 0.33,3.33 1.47,6.37 3.2,8.97 -2.99,0.65 -7.43,1.27 -12.7,0.67 -7.56,-0.87 -9.49,-2.99 -11.78,-1.74 -6.25,3.41 -5.63,27.56 7.53,35.24 3.73,2.18 7.59,2.52 10.11,2.49 3.68,0.33 8.21,0.42 13.33,-0.15 4.39,-0.49 8.22,-1.35 11.38,-2.28 1.19,-0.12 7.49,-0.86 12.09,-6.46 2.91,-3.54 4.46,-8.19 3.98,-13.11 v 0 c -0.41,-4.14 -2.2,-7.81 -4.87,-10.6 4.72,-4.03 7.46,-10.22 6.81,-16.87 z"
           style="fill:#fbb03b;stroke:#000000;stroke-width:8px;stroke-miterlimit:10"
           id="path1" />
        <ellipse
           cx="64.059998"
           cy="19.4"
           rx="3.9200001"
           ry="4.2800002"
           transform="rotate(-87.17,64.062708,19.403421)"
           id="ellipse2" />
        <path
           d="m 91.82,27.5 c -1.13,1.87 -3.32,2.39 -5.42,2.86 -3.7,0.83 -7.54,1.69 -9.85,-0.9 -2.26,-2.53 -2.12,-7.33 0.03,-9.38 1.14,-1.09 5.31,-0.1 13.6,1.92 0.42,0.1 1.33,0.34 1.88,1.15 0.82,1.18 0.53,3.08 -0.24,4.35 z"
           style="fill:#f15a24;stroke:#000000;stroke-width:8px;stroke-miterlimit:10"
           id="path2" />
      </g>
      <path
         d="m 99.18,83.16 h -8.27 v -4.45 c 0,-3.87 -3.13,-7 -7,-7 -3.87,0 -7,3.13 -7,7 v 9.55 H 75 c -3.87,0 -7,3.13 -7,7 0,3.87 3.13,7 7,7 h 2.67 c 1.68,4.46 5.97,7.64 11.01,7.64 h 10.5 c 5.97,0 10.82,-4.84 10.82,-10.82 v -5.09 c 0,-5.97 -4.84,-10.83 -10.82,-10.83 z"
         style="fill:#e6e6e6;stroke:#000000;stroke-width:8px;stroke-miterlimit:10"
         id="path3"
         sodipodi:nodetypes="ccssscssscsssscc" />
    </g>
  </g>
</svg>
