<?xml version="1.0" encoding="UTF-8"?>
<svg id="Layer_2" data-name="Layer 2" xmlns="http://www.w3.org/2000/svg" viewBox="0 0 143.13 124.42">
  <g id="Layer_2-2" data-name="Layer 2">
    <g>
      <g>
        <g>
          <path d="m120.45,43.35c.93-18.75-13.53-34.71-32.28-35.64s-34.71,13.53-35.64,32.28c-.29,5.78.89,11.29,3.2,16.18-5.28.35-13.05.29-21.92-2.08-12.73-3.41-15.48-7.54-19.73-5.98-11.56,4.24-16.65,45.77,3.93,62.27,5.84,4.68,12.35,6.24,16.68,6.83,6.21,1.49,13.94,2.81,22.87,3.13,7.64.28,14.41-.23,20.07-1.01,2.06.1,13.04.44,22.34-7.99,5.88-5.33,9.73-12.9,10.15-21.45h0c.36-7.2-1.78-13.93-5.64-19.4,9.11-5.7,15.38-15.61,15.95-27.15Z" style="fill: #fbb03b; stroke: #000; stroke-miterlimit: 10; stroke-width: 8px;"/>
          <ellipse cx="91.67" cy="35.02" rx="6.78" ry="7.4" transform="translate(39.4 118.07) rotate(-78.72)"/>
          <path d="m137.15,55.94c-2.42,2.92-6.3,3.26-10.01,3.53-6.55.48-13.35.98-16.64-4.05-3.22-4.91-1.76-13.1,2.43-16.06,2.23-1.58,9.12,1.18,22.81,6.74.69.28,2.19.91,2.94,2.44,1.1,2.23.12,5.41-1.52,7.39Z" style="fill: #f15a24; stroke: #000; stroke-miterlimit: 10; stroke-width: 8px;"/>
        </g>
        <g>
          <path d="m102.38,120c-3.23,0-6.37-2.12-8-5.39l-1.43-2.88-1.68,1.71c-1.18,1.2-2.72,1.86-4.34,1.86-1.81,0-3.54-.82-4.74-2.25-1.26-1.51-1.79-3.52-1.43-5.52l3.87-21.93c.55-3.11,3.14-5.37,6.16-5.37,1.19,0,2.36.36,3.37,1.03l17.65,11.79c2.39,1.6,3.44,4.59,2.62,7.44-.79,2.75-3.07,4.57-5.82,4.65l-1.15.03,1.16,2.33c2.29,4.59.95,9.75-3.04,11.74-.99.5-2.07.75-3.2.75h0Z" style="fill: #e6e6e6;"/>
          <path d="m90.78,84.24c.39,0,.78.11,1.14.36,5.88,3.93,11.77,7.86,17.65,11.79,1.96,1.31,1.18,4.7-1.09,4.77-2.47.07-4.93.14-7.4.21l3.95,7.94c1.27,2.55.71,5.4-1.24,6.37-.45.22-.92.33-1.41.33-1.66,0-3.44-1.21-4.42-3.17l-3.93-7.89c-1.87,1.9-3.74,3.8-5.61,5.7-.45.46-.98.66-1.49.66-1.31,0-2.54-1.34-2.23-3.07l3.87-21.93c.22-1.26,1.19-2.06,2.22-2.06m0-8c-4.96,0-9.21,3.65-10.1,8.67l-3.87,21.93c-.56,3.17.28,6.37,2.31,8.78,1.96,2.34,4.81,3.68,7.8,3.68,1.71,0,3.37-.44,4.84-1.26,2.48,3.67,6.48,5.96,10.62,5.96,1.75,0,3.43-.39,4.98-1.17,5.32-2.65,7.59-8.86,5.74-14.84,2.44-1.28,4.34-3.56,5.16-6.4,1.3-4.53-.4-9.3-4.25-11.87l-17.65-11.79c-1.67-1.11-3.6-1.7-5.59-1.7h0Z"/>
        </g>
      </g>
      <rect x="50.7" y="4" width="70" height="17" rx="8.5" ry="8.5" style="fill: #ed1c24; stroke: #000; stroke-miterlimit: 10; stroke-width: 8px;"/>
    </g>
  </g>
</svg>