<?xml version="1.0" encoding="UTF-8"?>
<svg id="Layer_2" data-name="Layer 2" xmlns="http://www.w3.org/2000/svg" viewBox="0 0 145.17 143.94">
  <g id="Layer_2-2" data-name="Layer 2">
    <g>
      <g>
        <path d="m124.37,85.35c-.53-10.83-9.74-19.19-20.57-18.66-10.83.53-19.19,9.74-18.66,20.57.16,3.34,1.15,6.44,2.76,9.12-3.02.5-7.49.91-12.72.04-7.51-1.24-9.33-3.46-11.68-2.32-6.41,3.09-6.98,27.25,5.78,35.57,3.62,2.36,7.45,2.89,9.98,2.98,3.66.51,8.17.83,13.33.51,4.41-.27,8.27-.95,11.48-1.72,1.19-.06,7.52-.49,12.39-5.85,3.08-3.39,4.86-7.96,4.62-12.9h0c-.2-4.16-1.81-7.91-4.34-10.83,4.91-3.79,7.96-9.84,7.63-16.51Z" style="fill: #fbb03b; stroke: #000; stroke-miterlimit: 10; stroke-width: 8px;"/>
        <ellipse cx="107.35" cy="82.19" rx="3.92" ry="4.28" transform="translate(14.98 180.91) rotate(-84.34)"/>
        <path d="m134.67,91.64c-1.22,1.81-3.44,2.23-5.56,2.59-3.74.65-7.62,1.32-9.8-1.38-2.13-2.64-1.75-7.43.49-9.37,1.19-1.03,5.31.16,13.49,2.59.41.12,1.31.4,1.83,1.24.76,1.22.38,3.1-.45,4.33Z" style="fill: #f15a24; stroke: #000; stroke-miterlimit: 10; stroke-width: 8px;"/>
      </g>
      <path d="m129.33,110.67h-9.06v-4.88c0-4.23-3.43-7.67-7.67-7.67s-7.67,3.43-7.67,7.67v10.45h-2.09c-4.23,0-7.67,3.43-7.67,7.67s3.43,7.67,7.67,7.67h2.93c1.84,4.88,6.54,8.36,12.06,8.36h11.5c6.54,0,11.85-5.3,11.85-11.85v-5.58c0-6.54-5.3-11.85-11.85-11.85Z" style="fill: #e6e6e6; stroke: #000; stroke-miterlimit: 10; stroke-width: 8px;"/>
      <rect x="31.47" y="39.03" width="25.4" height="94" rx="12.7" ry="12.7" style="fill: #e6e6e6; stroke: #000; stroke-miterlimit: 10; stroke-width: 8px;"/>
      <rect x="13.36" y="39.74" width="24.78" height="51.26" rx="12.39" ry="12.39" transform="translate(53.76 .94) rotate(45)" style="fill: #ed1c24; stroke: #000; stroke-miterlimit: 10; stroke-width: 8px;"/>
      <rect x="54.36" y="33.74" width="24.78" height="51.26" rx="12.39" ry="12.39" transform="translate(144.69 15.72) rotate(109.11)" style="fill: #ed1c24; stroke: #000; stroke-miterlimit: 10; stroke-width: 8px;"/>
      <rect x="26.36" y="3.74" width="24.78" height="51.26" rx="12.39" ry="12.39" transform="translate(-5.09 8.34) rotate(-11.53)" style="fill: #ed1c24; stroke: #000; stroke-miterlimit: 10; stroke-width: 8px;"/>
      <rect x="31.47" y="36.03" width="25.4" height="25.4" rx="12.7" ry="12.7" style="fill: #ccc; stroke: #000; stroke-miterlimit: 10; stroke-width: 8px;"/>
    </g>
  </g>
</svg>