<?xml version="1.0" encoding="UTF-8" standalone="no"?>
<svg
   width="548.38702"
   height="529.76709"
   version="1.1"
   viewBox="0 0 548.38702 529.76711"
   id="svg1170"
   xmlns="http://www.w3.org/2000/svg"
   xmlns:svg="http://www.w3.org/2000/svg">
  <defs
     id="defs536" />
  <g
     fill="#29abe2"
     stroke="#282828"
     stroke-width="10.667"
     id="g1151"
     transform="translate(729.60352,-2534.5664)">
    <rect
       x="-724.27002"
       y="2539.8999"
       width="29.643"
       height="29.643"
       rx="9.7319002"
       ry="9.7319002"
       id="rect1142" />
    <rect
       x="-668.69"
       y="2539.8999"
       width="29.643"
       height="29.643"
       rx="9.7319002"
       ry="9.7319002"
       id="rect1143" />
    <rect
       x="-613.09998"
       y="2539.8999"
       width="29.643"
       height="29.643"
       rx="9.7319002"
       ry="9.7319002"
       id="rect1144" />
    <rect
       transform="matrix(0,1,1,0,0,0)"
       x="2592.8999"
       y="-724.27002"
       width="29.643"
       height="29.643"
       rx="9.7319002"
       ry="9.7319002"
       id="rect1145" />
    <rect
       transform="matrix(0,1,1,0,0,0)"
       x="2648.3999"
       y="-724.27002"
       width="29.643"
       height="29.643"
       rx="9.7319002"
       ry="9.7319002"
       id="rect1146" />
    <rect
       transform="scale(-1)"
       x="186.55"
       y="-3059"
       width="29.643"
       height="29.643"
       rx="9.7319002"
       ry="9.7319002"
       id="rect1147" />
    <rect
       transform="scale(-1)"
       x="242.13"
       y="-3059"
       width="29.643"
       height="29.643"
       rx="9.7319002"
       ry="9.7319002"
       id="rect1148" />
    <rect
       transform="scale(-1)"
       x="297.70999"
       y="-3059"
       width="29.643"
       height="29.643"
       rx="9.7319002"
       ry="9.7319002"
       id="rect1149" />
    <rect
       transform="matrix(0,-1,-1,0,0,0)"
       x="-3006"
       y="186.55"
       width="29.643"
       height="29.643"
       rx="9.7319002"
       ry="9.7319002"
       id="rect1150" />
    <rect
       transform="matrix(0,-1,-1,0,0,0)"
       x="-2950.5"
       y="186.55"
       width="29.643"
       height="29.643"
       rx="9.7319002"
       ry="9.7319002"
       id="rect1151" />
  </g>
</svg>
