<?xml version="1.0" encoding="UTF-8" standalone="no"?>
<svg
   width="569.23999"
   height="669.75903"
   version="1.1"
   viewBox="0 0 569.23999 669.75906"
   id="svg1170"
   xmlns="http://www.w3.org/2000/svg"
   xmlns:svg="http://www.w3.org/2000/svg">
  <defs
     id="defs536" />
  <g
     id="g1174"
     transform="translate(827.46002,-4228.2002)">
    <path
       d="m -431.58,4690.8 a 60.53,60.53 0 0 0 -51.281,28.463 60.53,60.53 0 0 0 -43.043,-17.982 60.53,60.53 0 0 0 -34.723,11.104 60.53,60.53 0 0 0 -28.91,-7.3613 60.53,60.53 0 0 0 -39.949,15.096 60.53,60.53 0 0 0 -43.145,-18.09 60.53,60.53 0 0 0 -55.57,36.75 60.53,60.53 0 0 0 -2.8223,-0.068 60.53,60.53 0 0 0 -60.529,60.531 60.53,60.53 0 0 0 60.529,60.529 60.53,60.53 0 0 0 30.73,-8.5195 60.53,60.53 0 0 0 57.605,42.207 60.53,60.53 0 0 0 41.174,-16.318 60.53,60.53 0 0 0 40.424,15.57 60.53,60.53 0 0 0 50,-26.574 60.53,60.53 0 0 0 14.381,1.8691 60.53,60.53 0 0 0 45.23,-20.375 60.53,60.53 0 0 0 31.875,9.1465 60.53,60.53 0 0 0 55.133,-35.58 60.53,60.53 0 0 0 14.488,1.8926 60.53,60.53 0 0 0 60.529,-60.531 60.53,60.53 0 0 0 -60.529,-60.529 60.53,60.53 0 0 0 -34.676,11.07 60.53,60.53 0 0 0 -46.922,-22.299 z"
       fill="#e6e6e6"
       stroke="#000000"
       stroke-linecap="round"
       stroke-linejoin="round"
       stroke-width="9"
       id="path1168" />
    <rect
       x="-827.46002"
       y="4228.2002"
       width="569.23999"
       height="544.48999"
       rx="0.87936002"
       ry="5.2402"
       fill="none"
       id="rect1168" />
  </g>
</svg>
