<?xml version="1.0" encoding="UTF-8" standalone="no"?>
<svg
   width="569.23999"
   height="544.48999"
   version="1.1"
   viewBox="0 0 569.23999 544.49001"
   id="svg1170"
   xmlns="http://www.w3.org/2000/svg"
   xmlns:svg="http://www.w3.org/2000/svg">
  <defs
     id="defs536" />
  <g
     transform="translate(1375.4,-2000.5)"
     id="g1142">
    <rect
       x="-1375.4"
       y="2000.5"
       width="569.23999"
       height="544.48999"
       rx="0.87936002"
       ry="5.2402"
       fill="none"
       id="rect1139" />
    <g
       transform="translate(-1339.4,-512.41)"
       fill="#fbb03b"
       stroke="#000000"
       id="g1141">
      <path
         d="m 140.14,2606.9 -13.792,-0.8393 a 15.005,15.005 155.73 0 0 -12.74,5.7456 l -8.5187,10.916 a 3.8916,3.8916 11.734 0 1 -6.8356,-1.4199 l -3.4708,-13.419 a 15.023,15.023 47.77 0 0 -9.3958,-10.351 l -12.986,-4.7371 a 3.9032,3.9032 83.739 0 1 -0.76323,-6.9565 l 11.657,-7.4443 a 15.032,15.032 119.72 0 0 6.9322,-12.142 l 0.48611,-13.855 a 3.8932,3.8932 155.77 0 1 6.3683,-2.8667 l 10.673,8.8048 a 14.999,14.999 11.755 0 0 13.682,2.8471 l 13.285,-3.8122 a 3.8979,3.8979 47.718 0 1 4.7031,5.1718 l -5.0668,12.898 a 15.044,15.044 83.75 0 0 1.5223,13.901 l 7.7336,11.489 a 3.9004,3.9004 119.77 0 1 -3.4726,6.0712 z"
         stroke-width="10.667"
         id="path1139" />
      <path
         transform="matrix(0.83359,0.20373,-0.20352,0.83271,489.91,496.48)"
         d="m 140.14,2606.9 -13.792,-0.8393 a 15.005,15.005 155.73 0 0 -12.74,5.7456 l -8.5187,10.916 a 3.8916,3.8916 11.734 0 1 -6.8356,-1.4199 l -3.4708,-13.419 a 15.023,15.023 47.77 0 0 -9.3958,-10.351 l -12.986,-4.7371 a 3.9032,3.9032 83.739 0 1 -0.76323,-6.9565 l 11.657,-7.4443 a 15.032,15.032 119.72 0 0 6.9322,-12.142 l 0.48611,-13.855 a 3.8932,3.8932 155.77 0 1 6.3683,-2.8667 l 10.673,8.8048 a 14.999,14.999 11.755 0 0 13.682,2.8471 l 13.285,-3.8122 a 3.8979,3.8979 47.718 0 1 4.7031,5.1718 l -5.0668,12.898 a 15.044,15.044 83.75 0 0 1.5223,13.901 l 7.7336,11.489 a 3.9004,3.9004 119.77 0 1 -3.4726,6.0712 z"
         stroke-width="12.437"
         id="path1140" />
      <path
         transform="matrix(0.74863,0,0,0.74908,368.11,1056)"
         d="m 140.14,2606.9 -13.792,-0.8393 a 15.005,15.005 155.73 0 0 -12.74,5.7456 l -8.5187,10.916 a 3.8916,3.8916 11.734 0 1 -6.8356,-1.4199 l -3.4708,-13.419 a 15.023,15.023 47.77 0 0 -9.3958,-10.351 l -12.986,-4.7371 a 3.9032,3.9032 83.739 0 1 -0.76323,-6.9565 l 11.657,-7.4443 a 15.032,15.032 119.72 0 0 6.9322,-12.142 l 0.48611,-13.855 a 3.8932,3.8932 155.77 0 1 6.3683,-2.8667 l 10.673,8.8048 a 14.999,14.999 11.755 0 0 13.682,2.8471 l 13.285,-3.8122 a 3.8979,3.8979 47.718 0 1 4.7031,5.1718 l -5.0668,12.898 a 15.044,15.044 83.75 0 0 1.5223,13.901 l 7.7336,11.489 a 3.9004,3.9004 119.77 0 1 -3.4726,6.0712 z"
         stroke-width="14.244"
         id="path1141" />
    </g>
  </g>
</svg>
