<?xml version="1.0" encoding="UTF-8" standalone="no"?>
<svg
   width="569.23999"
   height="544.48999"
   version="1.1"
   viewBox="0 0 569.23999 544.49001"
   id="svg1170"
   xmlns="http://www.w3.org/2000/svg"
   xmlns:svg="http://www.w3.org/2000/svg">
  <defs
     id="defs536" />
  <g
     transform="translate(1408.3,-2732.3999)"
     id="g1139">
    <g
       transform="translate(-1323.5,146.79)"
       fill="#e6e6e6"
       stroke="#000000"
       stroke-width="10.667"
       id="g1138">
      <path
         d="m -65.875,2600.5 c -2.9031,0 -5.2402,2.3371 -5.2402,5.2402 v 89.412 c 0,2.9031 2.3371,5.2402 5.2402,5.2402 h 21.783 c 2.9031,0 5.2402,-2.3371 5.2402,-5.2402 v -62.389 h 76.025 c 2.9031,0 5.2402,-2.3371 5.2402,-5.2402 v -21.783 c 0,-2.9031 -2.3371,-5.2402 -5.2402,-5.2402 z"
         id="path1137" />
      <path
         d="m 464.48,3115.5 c 2.9031,0 5.2402,-2.3371 5.2402,-5.2402 v -89.412 c 0,-2.9031 -2.3372,-5.2402 -5.2402,-5.2402 h -21.783 c -2.9031,0 -5.2402,2.3371 -5.2402,5.2402 v 62.389 h -76.025 c -2.9031,0 -5.2402,2.3371 -5.2402,5.2402 v 21.783 c 0,2.9031 2.3372,5.2402 5.2402,5.2402 z"
         id="path1138" />
    </g>
    <rect
       x="-1408.3"
       y="2732.3999"
       width="569.23999"
       height="544.48999"
       rx="0.87936002"
       ry="5.2402"
       fill="none"
       id="rect1138" />
  </g>
</svg>
