<?xml version="1.0" encoding="UTF-8"?>
<svg id="Layer_2" data-name="Layer 2" xmlns="http://www.w3.org/2000/svg" viewBox="0 0 47 60">
  <g id="Layer_2-2" data-name="Layer 2">
    <path d="m32.8,19.36c.76-1.45,1.2-3.1,1.2-4.86,0-5.8-4.7-10.5-10.5-10.5s-10.5,4.7-10.5,10.5c0,1.75.44,3.41,1.2,4.86-6.07,3.3-10.2,9.74-10.2,17.14,0,10.77,8.73,19.5,19.5,19.5s19.5-8.73,19.5-19.5c0-7.4-4.12-13.84-10.2-17.14Zm-9.3,23.18c-3.34,0-6.04-2.7-6.04-6.04s2.7-6.04,6.04-6.04,6.04,2.7,6.04,6.04-2.7,6.04-6.04,6.04Z" style="fill: #fbb03b; stroke: #000; stroke-miterlimit: 10; stroke-width: 8px;"/>
  </g>
</svg>