<?xml version="1.0" encoding="UTF-8" standalone="no"?>
<svg
   width="191.57666"
   height="90.664398"
   version="1.1"
   viewBox="0 0 191.57666 90.664402"
   id="svg1170"
   xmlns="http://www.w3.org/2000/svg"
   xmlns:svg="http://www.w3.org/2000/svg">
  <defs
     id="defs536">
    <clipPath
       id="clipPath162">
      <path
         transform="translate(-908,-2129)"
         d="M 0,3490 H 1920 V 0 H 0 Z"
         id="path68" />
    </clipPath>
  </defs>
  <g
     id="g1170"
     transform="translate(-2215.5892,-1861.6668)">
    <path
       transform="matrix(1.3333,0,0,-1.3333,2376.5,1867)"
       d="m 0,0 c -10.493,0 -19,-8.507 -19,-19 0,-0.49 0.037,-0.972 0.073,-1.453 l -18.726,-9.378 C -41.108,-25.092 -46.686,-22 -53,-22 c -8.59,0 -15.841,-5.704 -18.192,-13.529 l -38.431,6.626 c -3.287,0.567 -6.411,-1.639 -6.977,-4.925 -0.567,-3.287 1.638,-6.41 4.925,-6.977 L -70.7,-47.869 C -67.944,-54.963 -61.068,-60 -53,-60 c 10.317,0 18.694,8.228 18.974,18.478 l 19.826,9.929 C -10.72,-35.515 -5.656,-38 0,-38 c 10.493,0 19,8.507 19,19 C 19,-8.507 10.493,0 0,0"
       clip-path="url(#clipPath162)"
       fill="#8cc63f"
       stroke="#000000"
       stroke-miterlimit="10"
       stroke-width="8"
       style="paint-order:fill markers stroke"
       id="path1136" />
  </g>
</svg>
