<?xml version="1.0" encoding="UTF-8"?>
<svg id="Layer_2" data-name="Layer 2" xmlns="http://www.w3.org/2000/svg" viewBox="0 0 143.69 68">
  <g id="Layer_2-2" data-name="Layer 2">
    <path d="m120.69,4c-10.49,0-19,8.51-19,19,0,.49.04.97.07,1.45l-18.73,9.38c-3.46-4.74-9.03-7.83-15.35-7.83-8.59,0-15.84,5.7-18.19,13.53l-38.43-6.63c-3.29-.57-6.41,1.64-6.98,4.92-.57,3.29,1.64,6.41,4.92,6.98l40.98,7.06c2.76,7.09,9.63,12.13,17.7,12.13,10.32,0,18.69-8.23,18.97-18.48l19.83-9.93c3.48,3.92,8.54,6.41,14.2,6.41,10.49,0,19-8.51,19-19s-8.51-19-19-19Z" style="fill: #1a1a1a; stroke: #000; stroke-miterlimit: 10; stroke-width: 8px;"/>
  </g>
</svg>